<?xml version="1.0" standalone="no"?>
<!DOCTYPE svg PUBLIC "-//W3C//DTD SVG 20010904//EN"
 "http://www.w3.org/TR/2001/REC-SVG-20010904/DTD/svg10.dtd">
<svg version="1.0" xmlns="http://www.w3.org/2000/svg"
 width="1587.000000pt" height="1587.000000pt" viewBox="0 0 1587.000000 1587.000000"
 preserveAspectRatio="xMidYMid meet">
<metadata>
Created by potrace 1.11, written by Peter Selinger 2001-2013
</metadata>
<g transform="translate(0.000000,1587.000000) scale(0.100000,-0.100000)"
fill="#000000" stroke="none">
<path d="M290 15851 c-142 -45 -249 -163 -278 -306 -6 -31 -9 -326 -8 -795 3
-841 -1 -799 81 -908 51 -67 111 -111 192 -142 51 -19 82 -21 417 -24 376 -3
383 -4 470 -37 254 -95 269 -336 28 -447 -98 -44 -149 -49 -507 -50 -375 -1
-402 -4 -496 -68 -74 -49 -106 -85 -148 -169 -36 -72 -38 -115 -37 -875 1
-704 2 -748 20 -800 11 -30 30 -72 43 -93 56 -89 174 -167 276 -182 27 -4 200
-9 385 -10 185 -2 344 -5 352 -7 8 -3 29 -8 45 -13 105 -27 212 -118 235 -200
34 -122 -83 -252 -268 -296 -29 -7 -180 -12 -397 -14 -333 -2 -353 -3 -415
-24 -123 -42 -207 -126 -253 -249 -21 -56 -21 -68 -23 -807 -1 -540 2 -764 11
-800 24 -107 94 -200 193 -258 102 -59 95 -59 917 -55 413 2 760 6 772 10 122
37 220 127 271 250 l26 63 2 340 c3 409 7 444 60 544 131 246 381 184 458
-114 12 -43 15 -132 16 -391 1 -386 6 -427 68 -519 53 -78 127 -134 220 -166
53 -18 91 -19 821 -16 421 1 776 5 787 9 88 27 183 99 233 176 62 98 63 103
66 497 2 198 6 371 9 384 35 150 113 257 207 285 101 30 199 -26 263 -152 47
-93 49 -110 56 -502 4 -206 10 -388 14 -405 21 -87 113 -199 202 -247 92 -49
106 -50 914 -46 l755 3 65 31 c76 36 129 80 169 138 27 40 58 110 67 151 7 29
6 1516 0 1543 -3 12 -8 31 -10 42 -16 70 -95 170 -176 222 -89 57 -121 61
-510 64 -329 1 -360 3 -420 22 -116 38 -197 101 -226 179 -46 120 47 249 220
306 56 19 91 20 411 23 212 1 369 6 398 13 158 37 286 169 312 320 13 80 9
1513 -5 1557 -49 159 -177 277 -324 299 -26 4 -188 7 -359 7 -340 0 -406 7
-500 54 -194 97 -220 274 -57 395 34 25 120 61 177 75 15 4 187 8 381 10 217
2 369 8 395 15 97 25 210 116 255 205 44 86 44 94 44 879 -1 413 -3 759 -6
770 -37 154 -149 273 -293 310 -85 22 -1524 22 -1597 0 -145 -44 -268 -178
-290 -315 -3 -19 -6 -183 -6 -365 -1 -350 -6 -393 -50 -490 -33 -74 -70 -118
-124 -150 -136 -80 -287 25 -343 238 -13 51 -16 124 -18 412 -1 363 -3 381
-47 468 -27 54 -85 115 -145 154 -102 65 -88 64 -935 61 l-763 -3 -50 -23
c-74 -35 -142 -91 -182 -151 -65 -98 -66 -107 -73 -516 -4 -203 -10 -382 -13
-396 -42 -163 -140 -269 -250 -270 -55 -1 -87 12 -137 57 -52 48 -86 105 -111
191 -18 62 -20 102 -23 428 -2 316 -5 366 -21 410 -43 121 -137 213 -263 256
-51 18 -95 19 -811 18 -693 0 -761 -2 -811 -18z m3677 -795 c28 -13 71 -48 96
-76 183 -203 35 -523 -241 -521 -79 0 -173 43 -227 102 -153 169 -80 444 137
515 64 21 173 12 235 -20z m-2762 -40 c165 -77 211 -277 96 -416 -57 -70 -166
-106 -258 -85 -151 34 -244 196 -194 341 50 150 218 225 356 160z m5477 -9
c92 -54 141 -139 139 -239 -4 -167 -162 -290 -327 -254 -44 9 -103 47 -137 87
-154 179 -22 447 215 435 49 -2 78 -10 110 -29z m-2707 -1208 c149 -56 263
-213 269 -372 9 -238 -194 -444 -426 -432 -114 6 -193 38 -268 108 -94 88
-135 181 -135 307 1 124 37 211 126 298 47 46 141 97 204 110 63 13 167 5 230
-19z m-1420 -34 c264 -67 364 -405 178 -601 -147 -156 -376 -162 -525 -13
-146 146 -146 373 0 518 93 91 223 127 347 96z m2732 -3 c146 -34 263 -180
269 -333 6 -157 -71 -284 -216 -352 -55 -27 -75 -31 -145 -31 -102 1 -172 27
-246 93 -175 156 -158 437 35 571 89 60 193 79 303 52z m-1402 -1256 c196 -20
367 -179 402 -375 51 -286 -171 -551 -462 -551 -123 0 -228 45 -321 135 -150
147 -184 360 -86 551 61 120 208 224 338 239 27 4 50 8 52 10 2 2 9 2 15 0 7
-2 35 -6 62 -9z m1455 -72 c195 -73 304 -282 256 -492 -24 -107 -114 -215
-224 -269 -73 -37 -80 -38 -181 -38 -99 0 -111 2 -171 32 -264 129 -325 464
-122 670 62 62 159 112 233 120 30 3 55 6 57 8 6 5 111 -16 152 -31z m-2750 6
c180 -61 290 -211 290 -398 0 -222 -190 -412 -413 -412 -228 0 -418 186 -418
409 0 74 3 87 25 150 75 208 308 321 516 251z m-1357 -108 c61 -27 123 -92
155 -161 70 -151 1 -335 -153 -411 -70 -35 -198 -35 -269 0 -155 75 -224 260
-154 411 76 165 256 234 421 161z m5461 -3 c110 -54 180 -167 177 -283 -1 -65
-5 -81 -29 -134 -65 -144 -246 -218 -397 -161 -78 29 -154 104 -183 179 -61
162 25 353 185 413 68 25 182 19 247 -14z m-2756 -1246 c210 -62 341 -273 298
-478 -42 -195 -198 -331 -391 -339 -77 -3 -125 7 -200 44 -254 123 -310 464
-109 664 106 107 266 150 402 109z m-1405 -44 c75 -14 135 -46 189 -100 186
-186 118 -507 -128 -598 -309 -116 -606 208 -458 501 47 94 109 148 209 183
71 24 117 28 188 14z m2788 -15 c201 -78 293 -307 200 -498 -35 -71 -50 -90
-113 -138 -104 -79 -246 -93 -373 -37 -59 26 -148 115 -174 174 -24 54 -41
138 -35 174 13 82 18 101 41 146 64 130 199 208 344 200 36 -2 85 -11 110 -21z
m-1416 -1400 c48 -10 101 -41 144 -83 158 -155 113 -415 -89 -510 -77 -36
-193 -37 -264 -1 -69 35 -122 89 -154 157 -35 75 -37 183 -5 254 64 144 211
217 368 183z m-2670 -79 c146 -85 174 -296 54 -413 -59 -58 -105 -77 -189 -77
-84 0 -128 18 -189 76 -120 115 -93 328 53 414 83 49 189 49 271 0z m5405 23
c192 -60 244 -314 92 -449 -141 -124 -363 -65 -429 114 -34 92 -1 210 79 282
27 25 53 45 57 45 3 1 29 7 56 14 52 14 86 12 145 -6z"/>
<path d="M8497 15849 c-133 -45 -222 -137 -268 -274 -18 -54 -21 -1502 -4
-1581 23 -103 80 -185 169 -245 100 -67 124 -71 499 -71 355 -1 414 -7 511
-51 216 -99 230 -310 27 -420 -106 -58 -118 -60 -491 -63 -190 -2 -365 -5
-390 -8 -142 -17 -291 -160 -325 -311 -8 -35 -11 -277 -9 -800 1 -675 3 -754
18 -795 52 -138 145 -226 280 -265 49 -14 114 -18 415 -20 338 -2 359 -3 420
-24 316 -110 298 -401 -32 -488 -51 -13 -124 -17 -407 -18 -373 -2 -396 -5
-490 -57 -88 -49 -150 -124 -186 -224 -16 -45 -17 -111 -18 -789 -1 -407 1
-761 5 -786 22 -143 132 -269 276 -318 59 -20 83 -21 811 -21 699 0 753 1 808
18 53 17 113 49 154 84 36 31 90 107 111 158 22 53 23 67 25 393 2 337 5 405
23 462 47 154 139 247 246 247 101 0 193 -86 239 -225 25 -74 27 -117 29 -482
l2 -340 36 -75 c44 -91 107 -156 198 -201 l66 -34 770 -3 c543 -1 782 1 810 9
138 39 240 133 291 269 15 39 17 95 20 400 2 386 8 434 61 533 112 205 316
197 421 -18 45 -92 52 -159 52 -517 0 -289 2 -333 18 -386 43 -136 145 -237
283 -276 50 -15 141 -16 820 -14 l764 3 66 31 c111 53 180 128 221 240 21 58
21 69 23 784 1 399 -2 752 -6 784 -15 113 -94 233 -191 290 -98 57 -104 58
-493 61 -383 2 -419 6 -518 56 -89 46 -156 134 -157 207 0 107 113 215 268
254 31 8 164 12 382 14 184 1 351 4 370 7 124 21 244 108 300 218 44 86 46
124 45 889 -1 399 -5 741 -9 760 -10 54 -61 151 -101 192 -20 20 -58 51 -85
68 -87 56 -121 60 -490 62 -228 1 -355 6 -396 14 -122 26 -222 91 -264 174
-22 43 -21 121 3 165 34 66 140 141 227 161 19 4 42 10 50 12 8 2 174 6 369 8
278 3 365 7 405 19 126 37 235 145 272 270 16 55 18 120 19 790 0 402 -3 753
-8 780 -18 108 -87 210 -182 270 -104 67 -79 65 -910 65 -815 -1 -796 1 -894
-57 -56 -32 -112 -89 -145 -145 -51 -89 -55 -123 -56 -478 0 -182 -3 -345 -6
-363 -27 -149 -89 -253 -178 -299 -131 -67 -280 41 -332 241 -13 51 -16 126
-16 399 -1 362 -6 404 -52 487 -35 64 -72 105 -134 148 -93 64 -68 62 -927 62
l-780 0 -65 -32 c-96 -47 -172 -129 -215 -233 -17 -41 -19 -78 -21 -387 -2
-370 -5 -403 -33 -486 -108 -313 -401 -282 -486 52 -14 52 -17 124 -18 405 0
380 -5 410 -68 502 -55 82 -120 132 -212 163 -57 20 -84 21 -815 20 -733 0
-759 0 -815 -20z m3638 -774 c182 -66 269 -260 192 -429 -57 -124 -169 -191
-307 -184 -123 7 -216 71 -271 187 -33 70 -32 178 3 253 41 88 121 156 213
179 42 10 133 7 170 -6z m-2745 -46 c8 -3 28 -13 44 -20 82 -38 139 -132 140
-229 1 -103 -45 -186 -127 -234 -187 -109 -420 38 -400 253 10 105 88 199 193
232 30 9 129 8 150 -2z m5480 -11 c178 -76 219 -302 79 -437 -169 -162 -452
-35 -445 199 1 39 10 80 21 103 24 52 86 112 138 135 56 25 148 25 207 0z
m-2720 -1208 c66 -18 110 -43 168 -95 85 -77 130 -170 136 -283 6 -117 -33
-220 -118 -310 -193 -205 -532 -156 -663 96 -168 320 127 687 477 592z m-1385
-45 c119 -30 225 -132 261 -252 45 -149 -13 -315 -140 -403 -200 -137 -469
-51 -556 178 -29 76 -23 200 13 275 50 101 151 183 254 206 42 9 122 7 168 -4z
m2740 -3 c113 -33 201 -118 243 -234 26 -69 24 -191 -3 -253 -77 -179 -271
-271 -450 -214 -196 62 -306 282 -235 472 69 184 261 282 445 229z m-1385
-1256 c78 -12 186 -70 250 -135 181 -186 181 -470 -2 -653 -289 -289 -782 -93
-793 316 -7 234 174 447 398 472 29 3 53 7 55 9 3 2 23 0 92 -9z m-1280 -78
c56 -26 164 -111 174 -138 3 -8 16 -33 29 -55 32 -55 43 -99 46 -178 13 -370
-432 -566 -702 -308 -218 208 -145 571 138 685 52 21 74 24 160 22 83 -2 109
-7 155 -28z m2700 9 c68 -25 96 -42 146 -87 90 -82 129 -176 129 -310 0 -86
-3 -101 -31 -161 -73 -153 -206 -243 -369 -248 -232 -7 -424 179 -426 411 0
76 5 102 32 165 47 110 142 197 255 233 78 26 190 24 264 -3z m-4083 -113 c59
-28 102 -73 138 -144 34 -67 40 -133 21 -209 -61 -237 -347 -320 -524 -152
-129 123 -129 326 0 452 53 51 85 68 161 83 73 15 130 7 204 -30z m5444 9
c214 -102 245 -398 56 -539 -67 -50 -115 -64 -204 -60 -170 8 -292 129 -299
299 -5 132 60 239 179 296 55 26 71 30 142 28 58 -2 92 -8 126 -24z m-2761
-1248 c116 -31 219 -114 270 -219 82 -167 53 -345 -77 -475 -134 -133 -310
-163 -479 -80 -164 80 -256 266 -222 449 42 229 284 384 508 325z m-1340 -60
c135 -46 239 -193 241 -336 3 -196 -148 -360 -341 -372 -223 -14 -402 165
-388 389 16 242 257 400 488 319z m2715 5 c153 -51 261 -202 254 -357 -7 -176
-131 -320 -302 -352 -217 -40 -429 134 -430 355 0 170 122 326 288 364 43 10
145 5 190 -10z m-1387 -1409 c187 -51 282 -278 189 -457 -24 -47 -87 -104
-144 -131 -249 -116 -515 116 -433 378 51 165 219 255 388 210z m-2712 -60
c212 -93 212 -390 0 -487 -170 -77 -366 52 -369 240 -2 193 192 323 369 247z
m5463 -3 c175 -84 207 -316 60 -442 -131 -112 -329 -72 -408 83 -113 220 125
466 348 359z"/>
<path d="M13590 13596 c0 -2 8 -10 18 -17 15 -13 16 -12 3 4 -13 16 -21 21
-21 13z"/>
<path d="M321 7650 c-114 -27 -210 -100 -267 -204 -51 -94 -51 -87 -49 -896 2
-823 0 -794 59 -890 58 -93 166 -168 266 -186 25 -4 200 -8 390 -9 340 -2 346
-3 417 -27 118 -42 202 -114 222 -191 31 -124 -52 -228 -234 -293 -44 -15 -93
-18 -408 -20 -331 -2 -362 -4 -426 -23 -134 -41 -239 -150 -274 -285 -11 -41
-14 -199 -12 -806 1 -486 5 -766 12 -785 36 -106 114 -205 192 -245 98 -49
116 -51 473 -52 361 -1 412 -6 510 -50 223 -102 231 -318 16 -426 -105 -53
-161 -59 -527 -60 -363 -2 -395 -5 -478 -58 -69 -44 -104 -78 -141 -140 -60
-96 -59 -86 -57 -908 1 -413 5 -764 9 -780 30 -126 140 -241 273 -287 52 -17
98 -19 808 -19 705 0 756 1 811 18 95 30 166 82 221 163 64 92 66 109 69 487
1 188 5 362 8 386 14 89 67 198 123 251 87 82 214 71 297 -26 45 -52 68 -100
93 -191 4 -13 8 -178 10 -368 2 -190 8 -367 14 -395 24 -121 111 -231 227
-287 l67 -33 760 -3 c487 -2 777 1 807 8 140 29 252 130 304 270 14 38 17 100
19 410 3 338 4 370 23 430 36 111 101 196 176 228 18 8 53 12 84 9 95 -7 174
-85 222 -219 25 -67 22 -25 33 -653 3 -177 4 -181 34 -246 40 -86 114 -161
201 -202 l67 -32 760 -3 c489 -2 776 1 807 8 154 33 288 170 313 320 4 25 7
378 7 785 0 806 2 779 -57 880 -52 89 -176 178 -267 190 -18 3 -180 6 -360 6
-358 2 -406 7 -509 57 -259 123 -209 379 90 461 57 16 109 18 399 19 183 0
352 4 375 7 93 16 201 88 261 173 14 21 36 65 47 98 21 58 21 74 21 814 0 547
-3 767 -11 798 -27 97 -89 180 -178 238 -92 60 -135 66 -527 68 -319 3 -356 5
-411 23 -269 89 -314 322 -87 446 101 55 146 60 522 62 289 1 354 4 400 18
133 40 239 146 277 276 13 47 15 152 15 806 1 557 -3 762 -11 791 -37 120
-118 215 -228 267 l-68 32 -759 3 c-825 3 -827 3 -922 -53 -55 -32 -117 -94
-149 -148 -51 -88 -54 -115 -55 -471 0 -182 -3 -345 -6 -361 -21 -117 -51
-188 -105 -250 -125 -142 -311 -81 -387 126 -32 87 -35 122 -37 479 -1 231 -6
349 -14 380 -40 144 -162 257 -311 289 -40 9 -255 11 -805 9 l-750 -3 -56 -23
c-61 -24 -155 -99 -184 -147 -70 -113 -68 -101 -75 -525 l-6 -385 -29 -74
c-47 -115 -125 -190 -211 -204 -75 -12 -174 54 -227 151 -52 95 -59 155 -61
537 -3 371 -3 371 -54 472 -42 82 -162 169 -264 193 -52 11 -1506 12 -1557 0z
m3631 -798 c162 -71 235 -256 164 -417 -42 -93 -120 -156 -222 -181 -102 -24
-222 14 -295 93 -168 182 -78 467 166 527 41 10 142 -2 187 -22z m-2734 -51
c52 -26 117 -101 135 -155 38 -111 -11 -246 -112 -308 -181 -113 -416 26 -407
240 5 107 86 207 196 243 39 13 145 2 188 -20z m5416 15 c153 -45 232 -225
161 -366 -101 -200 -372 -203 -478 -5 -33 61 -30 173 5 241 60 114 186 166
312 130z m-2670 -1225 c254 -89 360 -399 212 -619 -84 -125 -216 -193 -363
-187 -338 14 -521 402 -314 665 51 64 78 86 146 120 102 51 213 59 319 21z
m-1383 -46 c90 -30 175 -107 220 -200 20 -42 24 -65 24 -145 0 -85 -3 -101
-29 -155 -67 -136 -198 -216 -342 -210 -74 3 -107 12 -168 44 -80 43 -164 155
-182 243 -9 48 -5 135 9 181 62 200 270 307 468 242z m2732 -1 c47 -16 124
-67 160 -108 10 -12 32 -49 49 -84 118 -244 -73 -532 -344 -517 -76 5 -116 16
-171 49 -89 52 -150 138 -172 242 -58 277 204 506 478 418z m-1350 -1264 c142
-44 256 -153 305 -295 105 -298 -122 -615 -438 -615 -125 1 -225 39 -316 123
-156 142 -195 368 -97 561 32 64 133 163 197 195 111 54 237 66 349 31z
m-1383 -46 c103 -31 209 -119 254 -210 10 -22 22 -47 27 -57 16 -30 22 -161
10 -216 -32 -148 -152 -277 -296 -319 -42 -11 -171 -13 -210 -2 -140 39 -246
137 -295 270 -15 40 -19 74 -17 149 2 86 6 103 35 161 35 71 94 139 153 175
96 62 232 81 339 49z m2782 -21 c117 -55 195 -147 232 -272 49 -168 -25 -358
-179 -456 -79 -50 -134 -64 -238 -62 -82 2 -100 6 -160 35 -86 43 -155 110
-195 192 -40 81 -44 97 -43 190 0 177 110 328 282 390 41 14 76 19 144 17 77
-2 99 -7 157 -34z m-4128 -93 c241 -116 240 -454 -2 -571 -88 -43 -181 -41
-279 8 -144 70 -209 257 -141 404 40 88 98 138 208 182 35 14 165 0 214 -23z
m5461 -2 c208 -107 239 -384 59 -527 -68 -55 -126 -74 -214 -69 -293 17 -407
387 -174 565 90 68 230 81 329 31z m-2735 -1253 c144 -51 251 -175 278 -322
32 -180 -62 -365 -229 -447 -62 -30 -82 -35 -156 -40 -197 -14 -383 126 -431
325 -51 210 89 436 307 494 59 16 173 11 231 -10z m-1370 -51 c103 -40 177
-116 219 -221 16 -40 19 -70 17 -135 -3 -102 -31 -171 -98 -240 -214 -219
-579 -102 -626 202 -28 185 99 366 288 409 53 13 150 5 200 -15z m2696 12 c67
-14 154 -76 206 -146 174 -237 -16 -589 -312 -574 -69 3 -86 7 -141 33 -312
147 -269 597 65 686 47 12 129 13 182 1z m-1323 -1435 c239 -117 240 -444 2
-569 -43 -23 -63 -27 -135 -27 -104 0 -162 24 -232 98 -160 167 -84 445 142
518 50 16 172 5 223 -20z m-2735 -54 c152 -79 184 -294 60 -416 -58 -57 -104
-76 -188 -76 -85 0 -137 22 -192 78 -121 125 -85 343 71 418 87 43 162 41 249
-4z m5447 7 c112 -53 173 -201 134 -323 -29 -92 -129 -169 -228 -178 -168 -16
-305 124 -288 293 12 114 108 217 217 231 19 3 36 6 38 8 6 6 96 -16 127 -31z"/>
<path d="M8515 7646 c-85 -28 -120 -50 -177 -106 -64 -64 -105 -140 -116 -217
-4 -26 -7 -381 -6 -788 1 -823 -2 -782 70 -891 55 -83 159 -153 254 -170 25
-4 198 -8 385 -9 324 -1 343 -2 410 -24 92 -30 145 -61 189 -113 56 -65 68
-147 32 -216 -36 -69 -146 -141 -256 -168 -14 -4 -184 -8 -378 -10 -323 -2
-359 -4 -420 -23 -126 -39 -214 -122 -263 -250 -22 -56 -22 -59 -24 -816 -1
-688 1 -765 16 -810 32 -98 55 -132 151 -220 21 -19 111 -60 153 -69 17 -4
181 -7 365 -8 370 -1 422 -7 523 -61 211 -111 201 -323 -19 -424 -97 -44 -156
-50 -512 -51 -288 0 -340 -3 -390 -18 -131 -40 -225 -136 -273 -279 -19 -59
-21 -1493 -2 -1579 33 -145 133 -253 276 -298 55 -17 111 -18 807 -18 723 0
750 1 814 20 136 42 244 160 275 300 5 25 10 196 10 380 0 271 3 346 16 395
79 300 333 361 459 109 53 -106 58 -148 59 -513 0 -185 4 -353 9 -375 25 -112
125 -232 235 -284 l58 -27 763 -3 c829 -3 833 -3 927 52 92 55 174 170 193
273 5 29 9 198 10 376 0 179 3 338 6 353 4 16 8 39 11 52 6 33 49 125 71 152
56 67 118 103 181 103 91 0 193 -99 232 -222 30 -97 30 -97 31 -457 1 -240 5
-345 14 -381 30 -112 113 -211 222 -264 l69 -34 770 -3 c746 -3 771 -2 835 17
113 35 216 134 262 251 21 54 21 64 23 795 1 562 -2 755 -11 803 -22 108 -81
195 -176 258 -90 61 -118 64 -489 66 -370 1 -432 8 -530 59 -169 88 -206 239
-88 357 35 35 123 84 174 96 17 5 39 10 50 14 11 3 166 7 345 8 179 1 349 5
379 8 111 13 239 101 292 201 54 100 52 66 54 845 1 403 -2 754 -7 790 -12 86
-46 158 -103 219 -56 60 -110 93 -188 116 -48 14 -116 17 -415 19 -341 2 -360
3 -422 25 -310 107 -302 381 13 483 57 19 92 21 417 23 295 1 364 4 410 18
103 30 200 109 246 199 49 97 50 112 49 893 -1 402 -5 746 -9 765 -29 120
-110 221 -224 277 l-76 38 -764 3 c-678 2 -771 1 -821 -13 -144 -42 -249 -148
-285 -289 -12 -46 -16 -127 -16 -395 -1 -356 -5 -399 -51 -497 -28 -59 -84
-121 -132 -145 -134 -69 -279 37 -332 241 -14 55 -17 118 -18 400 0 252 -3
348 -14 389 -38 151 -160 269 -311 301 -30 7 -318 10 -802 8 l-755 -3 -58 -25
c-109 -47 -193 -135 -233 -245 -16 -44 -18 -90 -20 -377 -3 -422 -5 -442 -60
-553 -77 -158 -227 -202 -344 -103 -54 46 -114 174 -126 266 -3 26 -6 189 -6
362 0 179 -5 334 -11 360 -31 137 -126 244 -260 295 l-66 25 -758 -1 c-600 0
-766 -3 -798 -13z m3620 -783 c217 -73 289 -335 141 -510 -51 -60 -180 -117
-244 -107 -81 13 -100 17 -137 36 -53 27 -116 94 -145 154 -34 73 -34 180 2
254 72 152 233 225 383 173z m-2706 -63 c164 -83 197 -313 63 -431 -137 -121
-340 -83 -418 78 -36 72 -37 160 -4 228 26 54 97 118 153 139 54 20 153 14
206 -14z m5442 8 c95 -41 160 -139 161 -243 1 -247 -305 -362 -465 -174 -102
118 -79 301 47 387 27 17 62 36 80 42 42 12 133 6 177 -12z m-2736 -1204 c188
-41 333 -238 319 -434 -18 -247 -253 -429 -491 -380 -276 57 -417 344 -293
595 84 172 272 260 465 219z m-1374 -49 c95 -21 198 -105 244 -199 41 -85 47
-168 21 -259 -71 -244 -369 -343 -570 -189 -177 134 -196 384 -42 544 90 94
216 131 347 103z m2761 -11 c158 -55 250 -193 244 -363 -3 -99 -37 -174 -112
-246 -72 -69 -152 -100 -259 -99 -69 0 -89 5 -147 32 -280 135 -280 519 0 661
80 41 186 46 274 15z m-1327 -1269 c144 -50 264 -187 300 -340 22 -96 3 -235
-43 -320 -129 -234 -431 -317 -654 -179 -163 102 -251 292 -218 475 22 122
104 249 205 316 33 22 126 59 165 67 49 9 196 -2 245 -19z m-1395 -45 c97 -33
163 -82 216 -161 58 -86 69 -124 69 -239 0 -99 -2 -109 -33 -170 -77 -152
-206 -235 -372 -239 -291 -8 -500 291 -393 562 81 206 309 316 513 247z m2713
5 c187 -49 321 -238 304 -428 -7 -82 -12 -102 -38 -151 -53 -104 -146 -184
-254 -220 -58 -20 -176 -20 -244 1 -185 55 -306 237 -290 434 21 257 270 431
522 364z m-4071 -113 c152 -67 227 -267 157 -418 -93 -199 -357 -246 -510 -92
-166 168 -103 441 121 522 60 22 169 16 232 -12z m5458 -1 c229 -109 247 -414
33 -555 -50 -33 -70 -38 -164 -42 -62 -2 -84 1 -126 21 -157 72 -231 248 -170
405 27 71 107 151 179 179 69 28 182 24 248 -8z m-2719 -1260 c193 -73 305
-270 267 -471 -20 -109 -116 -238 -214 -288 -273 -139 -595 47 -609 353 -6
120 41 232 133 320 42 41 146 95 200 105 62 12 164 3 223 -19z m-1384 -46
c195 -70 296 -294 218 -482 -102 -244 -421 -305 -602 -117 -156 164 -129 431
57 556 99 66 219 82 327 43z m2728 0 c142 -49 238 -182 244 -338 5 -140 -81
-276 -215 -339 -49 -23 -77 -29 -135 -30 -87 -2 -115 4 -174 32 -161 78 -247
278 -190 440 71 202 273 303 470 235z m-1413 -1400 c87 -19 166 -84 209 -171
62 -125 37 -265 -64 -365 -64 -63 -116 -83 -217 -83 -101 0 -155 21 -220 86
-226 222 -19 600 292 533z m-2660 -83 c42 -26 71 -60 100 -114 31 -60 31 -166
-1 -226 -27 -53 -77 -103 -128 -128 -56 -28 -174 -26 -230 4 -163 86 -197 298
-68 427 86 85 224 101 327 37z m5418 20 c136 -54 202 -231 136 -362 -25 -49
-74 -98 -121 -123 -56 -29 -165 -32 -223 -5 -124 56 -190 205 -146 327 53 149
208 220 354 163z"/>
</g>
</svg>
