<?xml version="1.0" encoding="utf-8"?>
<!-- Generator: Adobe Illustrator 16.0.0, SVG Export Plug-In . SVG Version: 6.00 Build 0)  -->
<!DOCTYPE svg PUBLIC "-//W3C//DTD SVG 1.1//EN" "http://www.w3.org/Graphics/SVG/1.1/DTD/svg11.dtd">
<svg version="1.1" id="Layer_1" xmlns="http://www.w3.org/2000/svg" xmlns:xlink="http://www.w3.org/1999/xlink" x="0px" y="0px"
	 width="200px" height="75px" viewBox="0 0 200 75" enable-background="new 0 0 200 75" xml:space="preserve">
<g>
	<g>
		<path fill="#F25022" d="M21.554,21.538h1.556c0.632,0,1.147-0.517,1.147-1.146v-3.894c0-0.63-0.515-1.147-1.147-1.147h-3.891
			c-0.632,0-1.148,0.518-1.148,1.147v1.556c0,0.633-0.341,1.149-0.757,1.149c-0.416,0-0.757-0.517-0.757-1.146v-1.559
			c0-0.63-0.516-1.147-1.148-1.147h-3.892c-0.631,0-1.148,0.518-1.147,1.147v1.556c0,0.633-0.341,1.149-0.758,1.149
			c-0.417,0-0.757-0.517-0.757-1.149V16.5c0-0.632-0.516-1.149-1.147-1.149H3.813c-0.631,0-1.146,0.518-1.146,1.147v3.894
			c0,0.633,0.516,1.146,1.146,1.146H5.37c0.631,0,1.147,0.341,1.147,0.759c0,0.417-0.517,0.757-1.147,0.757H3.813
			c-0.631,0-1.146,0.516-1.146,1.146v3.894c0,0.63,0.516,1.147,1.148,1.147h1.556c0.63,0,1.146,0.339,1.146,0.756
			c0,0.418-0.517,0.758-1.146,0.758H3.813c-0.631,0-1.146,0.518-1.146,1.149v3.89c0,0.632,0.516,1.148,1.146,1.148h3.893
			c0.631,0,1.147-0.517,1.147-1.148V34.24c0-0.633,0.341-1.149,0.759-1.149c0.416,0,0.757,0.517,0.757,1.149v1.554
			c0,0.632,0.516,1.148,1.147,1.148h3.891c0.632,0,1.148-0.517,1.148-1.148V34.24c0-0.633,0.341-1.149,0.758-1.149
			c0.416,0,0.757,0.517,0.757,1.149v1.554c0,0.632,0.516,1.148,1.147,1.148h3.892c0.632,0,1.148-0.517,1.148-1.148v-3.89
			c0-0.632-0.516-1.149-1.148-1.149h-1.556c-0.63,0-1.148-0.34-1.148-0.758c0-0.414,0.517-0.756,1.148-0.756h1.556
			c0.632,0,1.148-0.517,1.148-1.147V24.2c0-0.631-0.516-1.147-1.148-1.147h-1.556c-0.631,0-1.147-0.339-1.148-0.759
			C20.406,21.879,20.923,21.538,21.554,21.538z M5.761,34.607c-0.417,0-0.758-0.342-0.757-0.759c0-0.416,0.339-0.758,0.757-0.758
			c0.416,0,0.757,0.342,0.757,0.758S6.177,34.607,5.761,34.607z M5.761,19.203c-0.417,0-0.757-0.342-0.757-0.759
			c0-0.416,0.339-0.758,0.757-0.758c0.416,0,0.757,0.342,0.757,0.758S6.177,19.203,5.761,19.203z M5.761,27.046L5.761,27.046
			c-0.496,0-0.899-0.403-0.899-0.898c0-0.239,0.094-0.465,0.265-0.636c0.169-0.17,0.394-0.263,0.634-0.263
			c0.495,0,0.898,0.401,0.898,0.898C6.659,26.641,6.255,27.046,5.761,27.046z M9.611,21.256c0.574,0,1.04,0.468,1.04,1.041
			c0,0.573-0.466,1.038-1.04,1.038c-0.573,0-1.04-0.465-1.04-1.038S9.038,21.256,9.611,21.256z M9.611,31.035
			c-0.573,0-1.04-0.465-1.04-1.038s0.467-1.042,1.04-1.042c0.574,0,1.04,0.469,1.04,1.042S10.185,31.035,9.611,31.035z
			 M9.611,27.328c-0.651,0-1.181-0.531-1.181-1.182c0-0.652,0.53-1.181,1.181-1.181l0,0c0.652,0,1.182,0.53,1.182,1.182
			C10.791,26.797,10.263,27.328,9.611,27.328z M12.827,17.812c0.169-0.171,0.396-0.265,0.635-0.265c0.238,0,0.465,0.094,0.634,0.265
			c0.171,0.168,0.264,0.395,0.264,0.633c0,0.496-0.403,0.898-0.898,0.898l0,0c-0.497,0-0.898-0.402-0.898-0.898
			C12.563,18.206,12.658,17.979,12.827,17.812z M13.462,21.113c0.651,0,1.182,0.531,1.182,1.184c0,0.648-0.53,1.18-1.182,1.18
			c-0.314,0-0.61-0.123-0.834-0.347c-0.224-0.224-0.346-0.519-0.346-0.833C12.282,21.645,12.81,21.113,13.462,21.113z
			 M13.462,34.747L13.462,34.747c-0.497,0-0.899-0.402-0.899-0.898s0.402-0.897,0.898-0.897c0.495,0,0.898,0.402,0.898,0.897
			C14.361,34.345,13.957,34.747,13.462,34.747z M13.462,31.178c-0.652,0-1.18-0.528-1.18-1.181c0-0.651,0.53-1.182,1.181-1.182
			c0.651,0,1.181,0.53,1.181,1.182C14.643,30.649,14.113,31.178,13.462,31.178z M13.462,27.469c-0.729,0-1.322-0.594-1.322-1.322
			c0-0.728,0.593-1.322,1.322-1.322c0.729,0,1.322,0.592,1.322,1.322C14.784,26.875,14.19,27.469,13.462,27.469z M17.313,21.256
			L17.313,21.256c0.573,0,1.039,0.468,1.039,1.041s-0.467,1.038-1.04,1.038c-0.573,0-1.04-0.465-1.04-1.038
			S16.739,21.256,17.313,21.256z M17.313,31.035c-0.276,0-0.537-0.108-0.734-0.304c-0.197-0.196-0.306-0.458-0.306-0.734
			c0-0.573,0.466-1.04,1.04-1.04c0.575,0,1.04,0.467,1.04,1.04S17.886,31.035,17.313,31.035z M17.313,27.328
			c-0.651,0-1.181-0.531-1.181-1.182c0-0.652,0.53-1.181,1.181-1.181c0.652,0,1.182,0.528,1.182,1.181
			C18.495,26.797,17.965,27.328,17.313,27.328z M21.164,33.091c0.417,0,0.757,0.342,0.757,0.758c0,0.417-0.341,0.759-0.757,0.759
			c-0.417-0.003-0.759-0.342-0.759-0.759C20.406,33.433,20.748,33.091,21.164,33.091z M21.165,25.248
			c0.495,0,0.898,0.402,0.898,0.898c0,0.494-0.403,0.898-0.898,0.898c-0.24,0-0.465-0.094-0.635-0.263
			c-0.17-0.171-0.264-0.396-0.264-0.636C20.266,25.65,20.667,25.248,21.165,25.248z M20.406,18.444c0-0.416,0.342-0.758,0.759-0.758
			c0.416,0,0.757,0.342,0.757,0.758c0,0.417-0.341,0.759-0.757,0.759C20.748,19.203,20.406,18.86,20.406,18.444z"/>
		<path fill="#02A4EF" d="M21.554,44.719h1.556c0.632,0,1.147-0.517,1.147-1.149v-3.892c0-0.63-0.515-1.146-1.147-1.146h-3.891
			c-0.632,0-1.148,0.517-1.148,1.146v1.557c0,0.632-0.34,1.148-0.757,1.148c-0.417,0-0.757-0.517-0.757-1.148v-1.557
			c0-0.63-0.516-1.146-1.148-1.146h-3.892c-0.631,0-1.148,0.517-1.148,1.146v1.557c0.001,0.632-0.34,1.148-0.757,1.148
			c-0.417,0-0.757-0.517-0.757-1.148v-1.557c0-0.63-0.517-1.146-1.148-1.146H3.813c-0.631,0-1.146,0.517-1.146,1.146v3.892
			c0,0.633,0.516,1.149,1.146,1.149H5.37c0.631,0,1.147,0.343,1.147,0.757c0,0.418-0.517,0.757-1.147,0.757H3.813
			c-0.631,0-1.146,0.516-1.146,1.147v3.893c0,0.631,0.516,1.146,1.146,1.146h1.558c0.63,0,1.146,0.343,1.146,0.758
			c0,0.417-0.517,0.759-1.146,0.759H3.813c-0.631,0-1.146,0.517-1.146,1.146v3.892c0,0.633,0.516,1.149,1.146,1.149h3.893
			c0.631,0,1.147-0.517,1.147-1.149v-1.555c0-0.631,0.341-1.148,0.757-1.148c0.417,0,0.758,0.518,0.758,1.148v1.555
			c0,0.633,0.516,1.149,1.147,1.149h3.891c0.632,0,1.148-0.517,1.148-1.149v-1.555c0-0.631,0.34-1.148,0.757-1.148
			c0.417,0,0.757,0.518,0.757,1.148v1.558c0,0.63,0.517,1.147,1.147,1.147h3.893c0.633,0,1.147-0.518,1.147-1.147v-3.894
			c0-0.631-0.515-1.147-1.147-1.147h-1.556c-0.632,0-1.148-0.34-1.148-0.759c0-0.415,0.516-0.756,1.148-0.756h1.556
			c0.633,0,1.147-0.517,1.147-1.148V47.38c0-0.63-0.515-1.147-1.147-1.147h-1.556c-0.631,0-1.147-0.339-1.148-0.757
			C20.406,45.059,20.922,44.719,21.554,44.719z M5.761,42.383c-0.417,0-0.757-0.341-0.757-0.758s0.339-0.759,0.757-0.759
			c0.416,0,0.757,0.342,0.757,0.759S6.177,42.383,5.761,42.383z M5.761,57.786c-0.418,0-0.758-0.343-0.758-0.757
			c0-0.418,0.34-0.759,0.758-0.759c0.416,0,0.757,0.341,0.757,0.759C6.518,57.445,6.177,57.786,5.761,57.786z M5.761,50.224
			L5.761,50.224c-0.496,0-0.899-0.403-0.899-0.896c0-0.238,0.094-0.465,0.265-0.636c0.169-0.169,0.394-0.264,0.634-0.264
			c0.495,0,0.898,0.403,0.898,0.899S6.255,50.224,5.761,50.224z M9.611,44.436c0.574,0,1.04,0.467,1.04,1.039
			c0,0.573-0.466,1.039-1.04,1.039c-0.573,0-1.04-0.466-1.041-1.039C8.57,44.902,9.038,44.436,9.611,44.436z M9.611,54.216
			c-0.573,0-1.04-0.466-1.04-1.039s0.467-1.042,1.04-1.042c0.574,0,1.04,0.469,1.04,1.042S10.185,54.216,9.611,54.216z
			 M9.611,50.507c-0.651,0-1.181-0.529-1.181-1.18c0-0.653,0.53-1.182,1.181-1.182l0,0c0.652,0,1.182,0.528,1.182,1.182
			C10.792,49.978,10.261,50.507,9.611,50.507z M12.827,40.989c0.169-0.169,0.396-0.263,0.635-0.263c0.238,0,0.464,0.092,0.634,0.263
			c0.17,0.172,0.264,0.396,0.264,0.636c0,0.494-0.403,0.897-0.898,0.897l0,0c-0.497,0-0.898-0.403-0.898-0.897
			C12.563,41.385,12.658,41.161,12.827,40.989z M13.462,44.294c0.651,0,1.181,0.53,1.181,1.182c0,0.652-0.53,1.181-1.181,1.181
			c-0.314,0-0.61-0.122-0.834-0.344c-0.225-0.224-0.347-0.522-0.346-0.837C12.282,44.824,12.81,44.294,13.462,44.294z
			 M13.462,57.926L13.462,57.926c-0.497,0-0.898-0.402-0.898-0.896c0-0.496,0.402-0.898,0.898-0.898
			c0.495,0,0.898,0.402,0.898,0.898C14.361,57.523,13.957,57.926,13.462,57.926z M13.462,54.357c-0.652,0-1.18-0.529-1.18-1.181
			c0-0.65,0.53-1.181,1.181-1.181c0.651,0,1.181,0.53,1.181,1.181C14.643,53.828,14.113,54.357,13.462,54.357z M13.462,50.648
			c-0.729,0-1.322-0.594-1.322-1.321c0-0.729,0.593-1.324,1.322-1.324c0.729,0,1.322,0.595,1.322,1.324
			C14.784,50.055,14.19,50.648,13.462,50.648z M17.313,44.436L17.313,44.436c0.573,0,1.039,0.467,1.039,1.039
			c0,0.573-0.466,1.039-1.039,1.039c-0.574,0-1.04-0.466-1.04-1.039C16.273,44.902,16.739,44.436,17.313,44.436z M17.313,54.216
			c-0.276,0-0.537-0.106-0.734-0.304c-0.197-0.197-0.306-0.458-0.306-0.735c0-0.573,0.466-1.039,1.04-1.039
			c0.573,0,1.039,0.466,1.039,1.039S17.886,54.216,17.313,54.216z M17.313,50.507c-0.651,0-1.181-0.529-1.181-1.18
			c0-0.653,0.53-1.182,1.181-1.182c0.652,0,1.182,0.528,1.182,1.182C18.495,49.978,17.965,50.507,17.313,50.507z M21.164,56.271
			c0.417,0,0.757,0.341,0.757,0.759c0,0.416-0.341,0.757-0.757,0.757s-0.758-0.343-0.758-0.757
			C20.406,56.611,20.748,56.271,21.164,56.271z M21.164,48.428c0.495,0,0.898,0.403,0.898,0.899s-0.403,0.896-0.898,0.896
			c-0.239,0-0.464-0.092-0.635-0.263c-0.171-0.171-0.264-0.396-0.264-0.635C20.266,48.831,20.667,48.428,21.164,48.428z
			 M20.406,41.622c0-0.414,0.342-0.756,0.758-0.756s0.757,0.342,0.757,0.756c0,0.418-0.341,0.759-0.757,0.759
			C20.748,42.383,20.406,42.04,20.406,41.622z"/>
		<path fill="#FFB902" d="M44.734,44.719h1.556c0.631,0,1.148-0.517,1.148-1.149v-3.892c0-0.63-0.517-1.146-1.148-1.146h-3.893
			c-0.63,0-1.147,0.517-1.147,1.146v1.557c0,0.632-0.341,1.148-0.757,1.148s-0.758-0.517-0.758-1.148v-1.557
			c0.001-0.63-0.516-1.146-1.147-1.146h-3.893c-0.63,0-1.148,0.517-1.148,1.146v1.557c0,0.632-0.34,1.148-0.757,1.148
			c-0.417,0-0.757-0.517-0.757-1.148v-1.557c0-0.63-0.516-1.146-1.147-1.146h-3.893c-0.63,0-1.147,0.517-1.147,1.146v3.892
			c0,0.633,0.517,1.149,1.147,1.149h1.556c0.631,0,1.148,0.343,1.148,0.757c0,0.418-0.516,0.757-1.148,0.757h-1.556
			c-0.63,0-1.147,0.518-1.147,1.147v3.893c0,0.632,0.517,1.148,1.147,1.148h1.557c0.631,0,1.147,0.341,1.147,0.756
			c0,0.417-0.516,0.759-1.148,0.759h-1.556c-0.63,0-1.147,0.517-1.147,1.147v3.894c0,0.63,0.517,1.147,1.147,1.147h3.893
			c0.631,0,1.147-0.518,1.147-1.147v-1.558c0-0.631,0.341-1.148,0.757-1.148c0.417,0,0.757,0.518,0.757,1.148v1.558
			c0,0.63,0.518,1.147,1.148,1.147h3.893c0.631,0,1.147-0.518,1.147-1.147v-1.558c0-0.63,0.342-1.146,0.758-1.146
			c0.417,0,0.757,0.516,0.757,1.146v1.558c0,0.63,0.517,1.147,1.147,1.147h3.893c0.631,0,1.148-0.517,1.148-1.147v-3.894
			c0-0.63-0.517-1.147-1.148-1.147h-1.556c-0.63,0-1.148-0.34-1.148-0.756c0-0.418,0.517-0.759,1.148-0.759h1.556
			c0.631,0,1.148-0.517,1.148-1.146v-3.892c0-0.633-0.517-1.149-1.148-1.149h-1.556c-0.63,0-1.148-0.34-1.148-0.758
			C43.586,45.062,44.104,44.719,44.734,44.719z M28.94,57.786c-0.417,0-0.757-0.343-0.757-0.757c0-0.418,0.34-0.759,0.757-0.759
			c0.416,0,0.758,0.341,0.758,0.759C29.698,57.445,29.356,57.786,28.94,57.786z M28.94,42.383c-0.417,0-0.757-0.341-0.757-0.758
			s0.34-0.759,0.757-0.759c0.416,0,0.758,0.342,0.758,0.759S29.356,42.383,28.94,42.383z M28.94,50.224L28.94,50.224
			c-0.495,0-0.899-0.403-0.899-0.896c0-0.238,0.094-0.465,0.264-0.636c0.171-0.169,0.395-0.264,0.635-0.264
			c0.496,0,0.898,0.403,0.898,0.899S29.437,50.224,28.94,50.224z M32.791,44.436c0.573,0,1.039,0.467,1.039,1.039
			c0,0.573-0.466,1.039-1.039,1.039c-0.573,0-1.04-0.466-1.04-1.039C31.751,44.902,32.218,44.436,32.791,44.436z M32.791,54.216
			c-0.573,0-1.04-0.466-1.04-1.039s0.467-1.042,1.04-1.042c0.573,0,1.039,0.469,1.039,1.042S33.364,54.216,32.791,54.216z
			 M32.791,50.507c-0.651,0-1.181-0.529-1.181-1.18c0-0.653,0.53-1.182,1.18-1.182l0,0c0.651,0,1.181,0.528,1.181,1.182
			C33.971,49.978,33.442,50.507,32.791,50.507z M36.007,40.989c0.169-0.169,0.396-0.263,0.634-0.263
			c0.239,0,0.466,0.092,0.636,0.263c0.169,0.172,0.263,0.396,0.263,0.636c0,0.494-0.402,0.897-0.898,0.897l0,0
			c-0.495,0-0.897-0.403-0.897-0.897C35.744,41.385,35.838,41.161,36.007,40.989z M36.641,44.294c0.652,0,1.182,0.53,1.182,1.182
			c0,0.652-0.53,1.181-1.182,1.181c-0.313,0-0.61-0.122-0.834-0.344c-0.224-0.224-0.346-0.522-0.345-0.837
			C35.462,44.824,35.99,44.294,36.641,44.294z M36.643,57.926L36.643,57.926c-0.495,0-0.898-0.402-0.898-0.896
			c0-0.496,0.402-0.898,0.897-0.898c0.496,0,0.898,0.402,0.898,0.898C37.541,57.523,37.137,57.926,36.643,57.926z M36.641,54.357
			c-0.651,0-1.18-0.529-1.18-1.181c0-0.65,0.529-1.181,1.18-1.181c0.652,0,1.182,0.53,1.182,1.181
			C37.823,53.828,37.294,54.357,36.641,54.357z M36.641,50.648c-0.728,0-1.322-0.594-1.322-1.321c0-0.729,0.594-1.324,1.322-1.324
			c0.73,0,1.323,0.595,1.323,1.324C37.964,50.055,37.372,50.648,36.641,50.648z M40.493,44.436L40.493,44.436
			c0.573,0,1.039,0.467,1.039,1.039c0,0.573-0.467,1.039-1.04,1.039c-0.574,0-1.041-0.466-1.041-1.039
			C39.454,44.902,39.92,44.436,40.493,44.436z M40.493,54.216c-0.278,0-0.538-0.106-0.735-0.304
			c-0.196-0.197-0.305-0.458-0.305-0.735c0-0.573,0.465-1.039,1.04-1.039c0.573,0,1.039,0.466,1.039,1.039
			C41.533,53.75,41.066,54.216,40.493,54.216z M40.493,50.507c-0.652,0-1.181-0.529-1.181-1.18c0-0.653,0.529-1.182,1.181-1.182
			c0.651,0,1.181,0.528,1.181,1.182C41.674,49.978,41.144,50.507,40.493,50.507z M44.343,56.271c0.417,0,0.758,0.341,0.758,0.759
			c0,0.416-0.341,0.757-0.758,0.757c-0.416,0-0.757-0.343-0.757-0.757C43.586,56.611,43.927,56.271,44.343,56.271z M44.343,48.428
			c0.496,0,0.899,0.403,0.899,0.899s-0.403,0.896-0.899,0.896c-0.238,0-0.464-0.092-0.634-0.263s-0.263-0.396-0.263-0.635
			C43.446,48.831,43.848,48.428,44.343,48.428z M44.343,40.866c0.417,0,0.758,0.342,0.758,0.759s-0.341,0.758-0.758,0.758
			c-0.416,0-0.757-0.343-0.757-0.758C43.586,41.208,43.927,40.866,44.343,40.866z"/>
		<path fill="#80BA01" d="M44.734,21.538h1.556c0.631,0,1.148-0.517,1.148-1.146v-3.894c0-0.63-0.517-1.147-1.148-1.147h-3.893
			c-0.63,0-1.147,0.518-1.147,1.147v1.559c0,0.63-0.341,1.146-0.757,1.146s-0.758-0.517-0.758-1.146V16.5
			c0.001-0.632-0.516-1.149-1.146-1.149h-3.892c-0.63,0-1.148,0.515-1.148,1.147v1.559c0,0.63-0.339,1.146-0.757,1.146
			c-0.416,0-0.757-0.517-0.757-1.146V16.5c0-0.632-0.517-1.149-1.148-1.149h-3.893c-0.63,0-1.147,0.515-1.147,1.149v3.892
			c0,0.63,0.518,1.146,1.147,1.146h1.557c0.631,0,1.148,0.341,1.148,0.759c0,0.417-0.517,0.757-1.148,0.757h-1.557
			c-0.63,0-1.147,0.517-1.147,1.146v3.894c0,0.631,0.518,1.147,1.147,1.147h1.558c0.63,0,1.147,0.342,1.147,0.758
			s-0.517,0.756-1.148,0.756h-1.557c-0.63,0-1.147,0.518-1.147,1.149v3.892c0,0.63,0.518,1.146,1.147,1.146h3.893
			c0.631,0,1.148-0.517,1.148-1.146V34.24c0-0.63,0.341-1.148,0.757-1.148c0.417,0,0.757,0.519,0.757,1.148v1.556
			c0,0.63,0.518,1.146,1.148,1.146h3.892c0.631,0,1.148-0.514,1.148-1.146V34.24c0-0.63,0.341-1.148,0.757-1.148
			c0.417,0,0.757,0.519,0.757,1.148v1.556c0,0.63,0.517,1.146,1.147,1.146h3.893c0.63,0,1.148-0.517,1.148-1.146v-3.892
			c0-0.632-0.518-1.149-1.148-1.149h-1.556c-0.63,0-1.148-0.34-1.148-0.756s0.518-0.758,1.148-0.758h1.556
			c0.63,0,1.148-0.517,1.148-1.147V24.2c0-0.63-0.518-1.146-1.148-1.146h-1.556c-0.63,0-1.148-0.34-1.148-0.757
			C43.586,21.879,44.104,21.538,44.734,21.538z M28.94,34.607c-0.417,0-0.757-0.342-0.757-0.759c0-0.416,0.34-0.758,0.757-0.758
			c0.416,0,0.758,0.342,0.758,0.758S29.356,34.607,28.94,34.607z M28.94,19.203c-0.417,0-0.757-0.342-0.757-0.759
			c0-0.416,0.34-0.758,0.757-0.758c0.416,0,0.758,0.342,0.758,0.758C29.698,18.861,29.356,19.203,28.94,19.203z M28.94,27.046
			L28.94,27.046c-0.495,0-0.899-0.403-0.899-0.898c0-0.239,0.094-0.465,0.264-0.636c0.171-0.17,0.395-0.263,0.635-0.263
			c0.496,0,0.898,0.401,0.898,0.898C29.838,26.643,29.437,27.046,28.94,27.046z M32.791,21.256c0.573,0,1.039,0.468,1.039,1.041
			s-0.466,1.038-1.039,1.038c-0.573,0-1.04-0.465-1.04-1.038C31.751,21.724,32.218,21.256,32.791,21.256z M32.791,31.035
			c-0.573,0-1.04-0.465-1.04-1.038s0.467-1.04,1.04-1.04c0.573,0,1.039,0.467,1.039,1.04S33.364,31.035,32.791,31.035z
			 M32.791,27.328c-0.651,0-1.181-0.531-1.181-1.182c0-0.652,0.53-1.181,1.18-1.181l0,0c0.651,0,1.181,0.528,1.181,1.181
			C33.972,26.797,33.442,27.328,32.791,27.328z M36.007,17.812c0.169-0.171,0.396-0.265,0.634-0.265
			c0.239,0,0.466,0.094,0.636,0.265c0.169,0.168,0.263,0.395,0.263,0.633c0,0.496-0.402,0.898-0.898,0.898l0,0
			c-0.495,0-0.897-0.402-0.897-0.898C35.744,18.206,35.838,17.979,36.007,17.812z M36.641,21.113c0.653,0,1.182,0.531,1.182,1.184
			c0,0.648-0.53,1.18-1.182,1.18c-0.313,0-0.61-0.123-0.834-0.347c-0.224-0.221-0.345-0.519-0.345-0.833
			C35.462,21.645,35.99,21.113,36.641,21.113z M36.643,34.747L36.643,34.747c-0.495,0-0.898-0.402-0.898-0.898
			s0.402-0.897,0.897-0.897c0.496,0,0.898,0.402,0.898,0.897C37.541,34.345,37.137,34.747,36.643,34.747z M36.641,31.178
			c-0.651,0-1.18-0.528-1.18-1.181c0-0.651,0.529-1.182,1.18-1.182c0.652,0,1.182,0.53,1.182,1.182
			C37.823,30.649,37.294,31.178,36.641,31.178z M36.641,27.469c-0.728,0-1.322-0.594-1.322-1.322c0-0.73,0.594-1.322,1.322-1.322
			c0.73,0,1.323,0.592,1.323,1.322C37.964,26.875,37.372,27.469,36.641,27.469z M40.493,21.256L40.493,21.256
			c0.573,0,1.039,0.468,1.039,1.041s-0.467,1.039-1.04,1.039c-0.574,0-1.041-0.466-1.041-1.039
			C39.454,21.724,39.92,21.256,40.493,21.256z M40.493,31.035c-0.278,0-0.538-0.108-0.735-0.304
			c-0.196-0.196-0.305-0.458-0.305-0.734c0-0.573,0.465-1.04,1.04-1.04c0.573,0,1.039,0.467,1.039,1.04S41.066,31.035,40.493,31.035
			z M40.493,27.328c-0.652,0-1.181-0.531-1.181-1.182c0-0.652,0.529-1.181,1.181-1.181c0.651,0,1.181,0.528,1.181,1.181
			C41.674,26.797,41.144,27.328,40.493,27.328z M44.343,33.091c0.417,0,0.758,0.342,0.758,0.758c0,0.417-0.341,0.759-0.758,0.759
			c-0.416,0-0.757-0.342-0.757-0.759C43.586,33.433,43.927,33.091,44.343,33.091z M44.343,25.248c0.496,0,0.899,0.402,0.899,0.898
			c0,0.494-0.403,0.898-0.899,0.898c-0.238,0-0.464-0.094-0.634-0.263c-0.17-0.171-0.263-0.396-0.263-0.636
			C43.446,25.65,43.848,25.248,44.343,25.248z M44.343,17.687c0.417,0,0.758,0.342,0.758,0.758c0,0.417-0.341,0.759-0.757,0.759
			c-0.417,0-0.759-0.342-0.759-0.759C43.586,18.028,43.927,17.687,44.343,17.687z"/>
	</g>
	<g>
		<path fill="#777777" d="M130.98,22.749c0.528-0.08,1.1,0.1,1.451,0.516c0.412,0.452,0.486,1.175,0.185,1.703
			c-0.341,0.598-1.093,0.875-1.75,0.732c-0.68-0.124-1.247-0.756-1.218-1.462C129.631,23.494,130.252,22.832,130.98,22.749
			L130.98,22.749z"/>
		<path fill="#777777" d="M187.165,22.595c1.118-0.727,2.566-0.795,3.824-0.45c0.014,0.751,0,1.5,0.006,2.25
			c-0.6-0.263-1.303-0.436-1.934-0.178c-0.502,0.2-0.796,0.714-0.874,1.227c-0.096,0.648-0.034,1.31-0.049,1.965
			c1.279,0.004,2.558,0,3.836,0.001c0.011-0.831-0.008-1.662,0.014-2.493c0.868-0.248,1.73-0.525,2.596-0.786
			c0.009,1.094-0.011,2.189,0.011,3.285c0.866-0.013,1.729-0.003,2.596-0.006v2.13c-0.867-0.035-1.736-0.008-2.606-0.012
			c0.003,1.225,0,2.451,0,3.676c0.017,0.679-0.035,1.36,0.047,2.037c0.046,0.398,0.19,0.841,0.566,1.046
			c0.626,0.351,1.42,0.198,1.994-0.187v2.151c-0.751,0.326-1.588,0.426-2.398,0.368c-0.769-0.057-1.565-0.337-2.069-0.949
			c-0.58-0.69-0.73-1.628-0.741-2.505c-0.008-1.88,0-3.759-0.004-5.64c-1.277-0.002-2.56-0.002-3.838,0
			c-0.002,2.95-0.002,5.903-0.002,8.853c-0.876,0-1.751,0-2.624,0c0-2.949-0.004-5.899,0-8.85c-0.606-0.012-1.218,0.004-1.825-0.011
			c0.004-0.699,0.006-1.401-0.001-2.101c0.605-0.015,1.211-0.009,1.818-0.004c0.045-0.932-0.098-1.89,0.182-2.797
			C185.919,23.797,186.444,23.059,187.165,22.595L187.165,22.595z"/>
		<path fill="#777777" d="M110.87,23.073c1.271,0,2.543,0,3.816,0c1.187,3.017,2.385,6.03,3.572,9.048
			c0.305,0.753,0.588,1.515,0.906,2.266c1.529-3.771,3.079-7.53,4.595-11.304c1.225-0.02,2.449-0.005,3.674-0.007
			c-0.003,5.1-0.003,10.202-0.003,15.301c-0.883-0.003-1.765,0.007-2.646-0.006c0.009-3.764-0.002-7.526,0.003-11.291
			c0.002-0.171-0.003-0.339-0.016-0.508c-0.05,0.078-0.096,0.159-0.137,0.245c-1.518,3.851-3.062,7.693-4.569,11.55
			c-0.63,0.023-1.257,0.002-1.887,0.013c-1.564-3.853-3.109-7.715-4.666-11.569c-0.041-0.08-0.083-0.159-0.131-0.233
			c-0.034,1.649-0.007,3.3-0.016,4.948c0,2.285-0.001,4.568,0,6.853c-0.833,0.002-1.665,0-2.496,0
			C110.868,33.278,110.868,28.175,110.87,23.073L110.87,23.073z"/>
		<path fill="#777777" d="M138.202,27.398c1.268-0.359,2.632-0.346,3.898,0.014c0.262,0.07,0.514,0.173,0.748,0.311
			c-0.015,0.836,0,1.672-0.007,2.509c-0.847-0.647-1.919-1.056-2.994-0.92c-0.856,0.077-1.67,0.521-2.18,1.209
			c-0.659,0.857-0.81,1.992-0.696,3.039c0.084,0.82,0.423,1.639,1.058,2.182c0.664,0.587,1.591,0.794,2.456,0.729
			c0.856-0.098,1.661-0.46,2.354-0.967c0.009,0.794-0.002,1.586,0.009,2.377c-1.073,0.64-2.362,0.805-3.59,0.744
			c-1.257-0.067-2.506-0.543-3.417-1.426c-0.988-0.952-1.524-2.312-1.588-3.672c-0.064-1.415,0.224-2.889,1.038-4.07
			C135.973,28.448,137.041,27.734,138.202,27.398L138.202,27.398z"/>
		<path fill="#777777" d="M166.868,27.231c1.214-0.214,2.482-0.057,3.632,0.378c0.003,0.806,0,1.608,0.001,2.412
			c-0.804-0.551-1.781-0.848-2.756-0.813c-0.49,0.019-1.03,0.228-1.254,0.692c-0.179,0.462-0.057,1.067,0.38,1.344
			c0.744,0.497,1.631,0.708,2.403,1.153c0.607,0.343,1.197,0.789,1.502,1.431c0.578,1.204,0.333,2.794-0.682,3.691
			c-0.969,0.908-2.367,1.157-3.653,1.109c-0.912-0.058-1.828-0.239-2.665-0.612c0.004-0.844-0.007-1.69,0.004-2.538
			c0.706,0.514,1.519,0.881,2.381,1.027c0.6,0.099,1.252,0.104,1.811-0.164c0.536-0.264,0.633-1.028,0.313-1.491
			c-0.295-0.358-0.731-0.558-1.144-0.751c-0.773-0.346-1.587-0.637-2.265-1.159c-0.479-0.372-0.839-0.896-0.983-1.487
			c-0.206-0.873-0.141-1.856,0.363-2.619C164.834,27.947,165.843,27.415,166.868,27.231L166.868,27.231z"/>
		<path fill="#777777" d="M148.716,27.576c0.727-0.434,1.646-0.471,2.437-0.203c-0.003,0.875,0,1.749-0.001,2.624
			c-0.518-0.336-1.163-0.479-1.776-0.417c-0.741,0.085-1.331,0.657-1.64,1.314c-0.332,0.693-0.395,1.479-0.373,2.237
			c0,1.75,0,3.497,0,5.246c-0.863,0-1.725,0-2.588,0c-0.004-3.654,0.004-7.309-0.004-10.963c0.864-0.011,1.73-0.006,2.595-0.002
			c-0.006,0.629,0,1.255-0.003,1.884C147.639,28.612,148.058,27.951,148.716,27.576L148.716,27.576z"/>
		<path fill="#777777" d="M129.889,27.413c0.87-0.004,1.741-0.012,2.61,0.004c-0.01,3.652,0,7.307-0.005,10.961
			c-0.868,0-1.737,0-2.604,0C129.889,34.723,129.891,31.067,129.889,27.413L129.889,27.413z"/>
		<path fill="#777777" d="M162.029,29.971c-0.452-1.016-1.277-1.859-2.291-2.317c-1.17-0.531-2.499-0.604-3.755-0.444
			c-1.325,0.169-2.611,0.79-3.451,1.844c-0.768,0.94-1.14,2.152-1.212,3.352c-0.105,1.416,0.132,2.916,0.962,4.096
			c0.708,1.02,1.824,1.72,3.031,1.979c1.009,0.212,2.063,0.213,3.072,0.002c1.181-0.243,2.282-0.895,3.013-1.858
			c0.715-0.907,1.072-2.053,1.152-3.193C162.635,32.261,162.516,31.048,162.029,29.971z M159.497,35.004
			c-0.254,0.565-0.712,1.041-1.29,1.266c-0.679,0.262-1.44,0.276-2.142,0.097c-0.71-0.188-1.313-0.703-1.644-1.357
			c-0.423-0.844-0.486-1.82-0.396-2.747c0.077-0.84,0.372-1.707,1.015-2.287c0.464-0.436,1.099-0.646,1.725-0.682
			c0.79-0.052,1.631,0.172,2.194,0.745c0.607,0.596,0.843,1.461,0.906,2.286C159.91,33.227,159.875,34.167,159.497,35.004z"/>
		<path fill="#777777" d="M183.046,30.287c-0.403-1.091-1.211-2.031-2.252-2.553c-1.196-0.603-2.588-0.689-3.897-0.528
			c-1.055,0.137-2.092,0.535-2.896,1.244c-0.985,0.847-1.563,2.092-1.733,3.368c-0.161,1.273-0.105,2.617,0.412,3.81
			c0.499,1.17,1.483,2.12,2.668,2.585c1.168,0.462,2.466,0.514,3.696,0.314c1.257-0.207,2.45-0.87,3.227-1.885
			c0.831-1.053,1.189-2.412,1.188-3.737C183.473,32.02,183.363,31.119,183.046,30.287z M180.681,34.006
			c-0.101,0.575-0.302,1.153-0.68,1.609c-0.383,0.458-0.951,0.738-1.532,0.822c-0.63,0.096-1.291,0.051-1.878-0.201
			c-0.636-0.269-1.126-0.818-1.382-1.449c-0.313-0.752-0.376-1.584-0.313-2.389c0.06-0.779,0.281-1.578,0.792-2.185
			c0.472-0.566,1.193-0.878,1.917-0.92c0.743-0.052,1.534,0.121,2.104,0.622c0.524,0.437,0.816,1.088,0.949,1.747
			C180.808,32.433,180.808,33.229,180.681,34.006z"/>
	</g>
	<g>
		<path fill="#919191" d="M62.527,38.378l-6.504-7.304c-0.12-0.133-0.205-0.25-0.254-0.351h-0.043v7.654h-1.053V23.112h1.053v7.198
			h0.043c0.085-0.149,0.177-0.273,0.277-0.373l6.174-6.825h1.374l-6.696,7.398l7.111,7.867H62.527z"/>
		<path fill="#919191" d="M65.743,32.971c0,1.495,0.346,2.668,1.038,3.512c0.692,0.846,1.64,1.266,2.848,1.266
			c1.22,0,2.413-0.448,3.576-1.351v1.043c-1.127,0.801-2.388,1.202-3.779,1.202c-1.404,0-2.541-0.501-3.406-1.51
			c-0.865-1.008-1.298-2.432-1.298-4.271c0-1.589,0.451-2.929,1.356-4.019c0.905-1.088,2.081-1.633,3.53-1.633
			c1.355,0,2.394,0.477,3.118,1.428c0.724,0.949,1.085,2.248,1.085,3.896v0.437H65.743L65.743,32.971z M72.789,32.076
			c-0.043-1.255-0.345-2.231-0.905-2.927c-0.561-0.695-1.334-1.044-2.321-1.044c-1.021,0-1.868,0.343-2.538,1.027
			c-0.671,0.686-1.085,1.665-1.241,2.943H72.789z"/>
		<path fill="#919191" d="M81.656,28.5c-0.326-0.234-0.708-0.353-1.149-0.353c-0.859,0-1.579,0.444-2.161,1.332
			c-0.583,0.887-0.874,2.146-0.874,3.776v5.121h-0.958v-10.9h0.958v2.418h0.044c0.247-0.831,0.642-1.478,1.181-1.937
			c0.54-0.461,1.164-0.692,1.874-0.692c0.404,0,0.766,0.063,1.085,0.192V28.5z"/>
		<path fill="#919191" d="M90.226,38.378v-2.183h-0.042c-0.349,0.745-0.854,1.34-1.518,1.782c-0.664,0.442-1.4,0.665-2.209,0.665
			c-1.036,0-1.855-0.291-2.458-0.871c-0.604-0.583-0.905-1.317-0.905-2.205c0-1.901,1.26-3.05,3.779-3.448l3.354-0.499
			c0-2.343-0.881-3.512-2.64-3.512c-1.199,0-2.367,0.482-3.502,1.447v-1.184c0.405-0.319,0.953-0.592,1.645-0.819
			c0.691-0.226,1.342-0.339,1.952-0.339c1.122,0,1.989,0.348,2.604,1.043c0.614,0.694,0.92,1.706,0.92,3.034v7.088H90.226
			L90.226,38.378z M87.224,32.948c-1.143,0.164-1.946,0.429-2.406,0.795c-0.461,0.365-0.692,0.959-0.692,1.781
			c0,0.646,0.215,1.179,0.644,1.598s1.026,0.628,1.793,0.628c1.051,0,1.923-0.388,2.619-1.166c0.696-0.777,1.043-1.779,1.043-3.007
			v-1.064L87.224,32.948z"/>
		<path fill="#919191" d="M94.482,38.378V22.241h0.98v16.137H94.482z"/>
		<path fill="#919191" d="M105.468,38.378v-2.183h-0.043c-0.347,0.745-0.854,1.34-1.516,1.782c-0.664,0.442-1.4,0.665-2.209,0.665
			c-1.037,0-1.856-0.291-2.459-0.871c-0.604-0.583-0.905-1.317-0.905-2.205c0-1.901,1.26-3.05,3.779-3.448l3.353-0.499
			c0-2.343-0.88-3.512-2.639-3.512c-1.201,0-2.368,0.482-3.502,1.447v-1.184c0.404-0.319,0.952-0.592,1.645-0.819
			c0.69-0.226,1.344-0.339,1.952-0.339c1.121,0,1.989,0.348,2.604,1.043c0.614,0.694,0.92,1.706,0.92,3.034v7.088H105.468
			L105.468,38.378z M102.466,32.948c-1.143,0.164-1.943,0.429-2.405,0.795c-0.46,0.365-0.691,0.959-0.691,1.781
			c0,0.646,0.214,1.179,0.644,1.598c0.428,0.419,1.026,0.628,1.793,0.628c1.05,0,1.923-0.388,2.618-1.166
			c0.696-0.777,1.045-1.779,1.045-3.007v-1.064L102.466,32.948z"/>
	</g>
	<g>
		<path fill="#919191" d="M62.986,47.316c0,3.311-1.411,4.966-4.235,4.966c-2.685,0-4.028-1.594-4.028-4.783v-7.332h0.813v7.217
			c0,2.762,1.124,4.143,3.372,4.143c2.175,0,3.263-1.342,3.263-4.027v-7.332h0.813v7.149H62.986z"/>
		<path fill="#919191" d="M65.285,51.702v-0.923c0.289,0.25,0.638,0.446,1.047,0.59c0.409,0.145,0.764,0.216,1.063,0.216
			c1.333,0,2.001-0.545,2.001-1.636c0-0.377-0.147-0.698-0.44-0.962c-0.294-0.268-0.77-0.542-1.428-0.824
			c-0.813-0.354-1.386-0.721-1.714-1.099c-0.33-0.38-0.495-0.842-0.495-1.384c0-0.691,0.263-1.249,0.793-1.676
			c0.528-0.426,1.18-0.639,1.955-0.639c0.732,0,1.356,0.149,1.877,0.447v0.864c-0.631-0.41-1.286-0.615-1.959-0.615
			c-0.559,0-1.011,0.146-1.354,0.438c-0.343,0.289-0.515,0.667-0.515,1.132c0,0.405,0.108,0.733,0.325,0.985
			c0.215,0.252,0.691,0.539,1.428,0.868c0.885,0.397,1.495,0.768,1.827,1.107c0.332,0.341,0.499,0.794,0.499,1.357
			c0,0.675-0.254,1.233-0.759,1.674c-0.507,0.44-1.206,0.661-2.096,0.661C66.517,52.282,65.833,52.089,65.285,51.702z"/>
		<path fill="#919191" d="M72.51,47.858c0,1.168,0.27,2.08,0.811,2.738c0.539,0.66,1.279,0.988,2.22,0.988
			c0.952,0,1.881-0.352,2.789-1.055v0.813c-0.879,0.627-1.861,0.938-2.946,0.938c-1.096,0-1.982-0.392-2.657-1.18
			c-0.675-0.785-1.014-1.896-1.014-3.33c0-1.238,0.354-2.284,1.06-3.134c0.707-0.849,1.624-1.275,2.753-1.275
			c1.057,0,1.868,0.371,2.434,1.114c0.563,0.741,0.845,1.755,0.845,3.039v0.342H72.51z M78.007,47.159
			c-0.034-0.979-0.269-1.741-0.705-2.283c-0.438-0.542-1.042-0.814-1.811-0.814c-0.797,0-1.457,0.269-1.979,0.802
			c-0.524,0.534-0.847,1.3-0.967,2.296H78.007z"/>
		<path fill="#919191" d="M84.925,44.37c-0.255-0.183-0.554-0.274-0.897-0.274c-0.671,0-1.232,0.345-1.687,1.037
			c-0.453,0.692-0.68,1.677-0.68,2.949v3.993h-0.747v-8.502h0.747v1.885h0.033c0.194-0.647,0.501-1.151,0.922-1.512
			c0.421-0.36,0.908-0.539,1.461-0.539c0.316,0,0.598,0.049,0.848,0.15V44.37z"/>
		<path fill="#919191" d="M86.253,51.702v-0.923c0.287,0.25,0.636,0.446,1.045,0.59c0.41,0.145,0.765,0.216,1.063,0.216
			c1.333,0,2-0.545,2-1.636c0-0.377-0.146-0.698-0.439-0.962c-0.294-0.268-0.77-0.542-1.428-0.824
			c-0.814-0.354-1.386-0.721-1.714-1.099c-0.329-0.38-0.494-0.842-0.494-1.384c0-0.691,0.263-1.249,0.793-1.676
			c0.529-0.426,1.181-0.639,1.955-0.639c0.731,0,1.356,0.149,1.876,0.447v0.864c-0.631-0.41-1.285-0.615-1.959-0.615
			c-0.559,0-1.011,0.146-1.354,0.438c-0.344,0.289-0.514,0.667-0.514,1.132c0,0.405,0.107,0.733,0.324,0.985
			c0.215,0.252,0.692,0.539,1.428,0.868c0.885,0.397,1.495,0.768,1.827,1.107c0.331,0.341,0.498,0.794,0.498,1.357
			c0,0.675-0.253,1.233-0.761,1.674c-0.506,0.44-1.204,0.661-2.097,0.661C87.484,52.282,86.801,52.089,86.253,51.702z"/>
		<path fill="#919191" d="M106.729,51.244c-1.228,0.692-2.494,1.038-3.795,1.038c-1.62,0-2.933-0.55-3.935-1.651
			c-1.002-1.104-1.503-2.548-1.503-4.336c0-1.804,0.54-3.311,1.619-4.516c1.08-1.207,2.523-1.811,4.327-1.811
			c1.046,0,2.062,0.209,3.046,0.631v0.896c-1.078-0.521-2.132-0.781-3.163-0.781c-1.5,0-2.706,0.512-3.617,1.536
			s-1.366,2.331-1.366,3.919c0,1.672,0.428,2.983,1.283,3.931c0.855,0.95,2.008,1.426,3.457,1.426c1.075,0,2.017-0.234,2.825-0.698
			v-3.927h-2.807v-0.748h3.628V51.244z"/>
		<path fill="#919191" d="M113.322,44.37c-0.256-0.183-0.554-0.274-0.896-0.274c-0.671,0-1.232,0.345-1.686,1.037
			c-0.454,0.692-0.681,1.677-0.681,2.949v3.993h-0.747v-8.502h0.747v1.885h0.033c0.193-0.647,0.502-1.151,0.92-1.512
			c0.422-0.36,0.908-0.539,1.463-0.539c0.315,0,0.597,0.049,0.847,0.15V44.37z"/>
		<path fill="#919191" d="M117.997,52.282c-1.241,0-2.222-0.407-2.943-1.225c-0.723-0.815-1.083-1.877-1.083-3.184
			c0-1.411,0.377-2.518,1.132-3.314c0.757-0.796,1.753-1.196,2.985-1.196c1.212,0,2.171,0.396,2.874,1.19
			c0.702,0.791,1.055,1.886,1.055,3.287c0,1.323-0.358,2.395-1.077,3.214C120.224,51.873,119.242,52.282,117.997,52.282z
			 M118.055,44.062c-1.002,0-1.8,0.337-2.396,1.014c-0.595,0.676-0.891,1.613-0.891,2.814c0,1.113,0.291,2.008,0.871,2.683
			c0.581,0.676,1.376,1.013,2.384,1.013c1.023,0,1.813-0.331,2.367-0.995c0.553-0.667,0.831-1.587,0.831-2.766
			c0-1.214-0.277-2.144-0.828-2.79C119.842,44.387,119.063,44.062,118.055,44.062z"/>
		<path fill="#919191" d="M129.737,52.075V50.53h-0.032c-0.593,1.168-1.506,1.752-2.74,1.752c-2.009,0-3.014-1.263-3.014-3.793
			v-4.916h0.771v4.726c0,1.151,0.191,1.987,0.57,2.507c0.378,0.522,0.974,0.781,1.79,0.781c0.792,0,1.431-0.291,1.921-0.874
			c0.49-0.58,0.734-1.354,0.734-2.322v-4.817h0.765v8.503L129.737,52.075L129.737,52.075z"/>
		<path fill="#919191" d="M134.022,50.564h-0.032v5.423h-0.763V43.573h0.763v1.752h0.032c0.305-0.627,0.741-1.109,1.31-1.449
			c0.566-0.342,1.189-0.513,1.871-0.513c1.078,0,1.924,0.373,2.529,1.117c0.604,0.745,0.91,1.757,0.91,3.035
			c0,1.423-0.348,2.573-1.043,3.449c-0.696,0.877-1.612,1.316-2.752,1.316C135.573,52.282,134.633,51.709,134.022,50.564z
			 M133.99,47.4v1.071c0,0.853,0.269,1.586,0.804,2.198c0.538,0.609,1.244,0.915,2.118,0.915c0.869,0,1.575-0.37,2.119-1.115
			c0.542-0.744,0.813-1.723,0.813-2.937c0-1.062-0.248-1.907-0.747-2.531c-0.499-0.626-1.163-0.939-1.993-0.939
			c-0.99,0-1.758,0.332-2.3,0.999C134.26,45.723,133.99,46.503,133.99,47.4z"/>
	</g>
</g>
</svg>
