<?xml version="1.0" encoding="utf-8"?>
<!-- Generator: Adobe Illustrator 16.0.0, SVG Export Plug-In . SVG Version: 6.00 Build 0)  -->
<!DOCTYPE svg PUBLIC "-//W3C//DTD SVG 1.1//EN" "http://www.w3.org/Graphics/SVG/1.1/DTD/svg11.dtd">
<svg version="1.1" id="Layer_1" xmlns="http://www.w3.org/2000/svg" xmlns:xlink="http://www.w3.org/1999/xlink" x="0px" y="0px"
	 width="264px" height="192px" viewBox="0 0 264 192" enable-background="new 0 0 264 192" xml:space="preserve">
<g>
	<g>
		<path fill="#F25022" d="M27.237,12.267h2.079c0.843,0,1.533-0.69,1.533-1.533V5.533C30.849,4.69,30.159,4,29.316,4h-5.2
			c-0.844,0-1.534,0.69-1.534,1.533v2.079c0,0.843-0.456,1.534-1.012,1.534s-1.012-0.69-1.012-1.533v-2.08
			C20.558,4.69,19.868,4,19.024,4l-5.2,0c-0.843,0-1.534,0.69-1.533,1.533v2.079c0,0.843-0.456,1.534-1.013,1.534
			s-1.012-0.69-1.012-1.534V5.534C10.267,4.69,9.577,4,8.734,4H3.533C2.69,4,2,4.69,2,5.533l0,5.201c0,0.844,0.69,1.534,1.533,1.533
			h2.079c0.843,0,1.534,0.456,1.534,1.013s-0.69,1.012-1.534,1.012H3.533C2.69,14.292,2,14.981,2,15.824l0,5.2
			c0,0.843,0.689,1.534,1.534,1.534h2.079c0.843,0,1.533,0.455,1.533,1.012s-0.69,1.012-1.533,1.012h-2.08
			C2.69,24.582,2,25.272,2,26.116v5.2c0,0.843,0.69,1.533,1.533,1.533h5.201c0.843,0,1.533-0.689,1.533-1.533v-2.079
			c0-0.843,0.455-1.534,1.013-1.534c0.556,0,1.012,0.69,1.012,1.534v2.079c0,0.844,0.69,1.533,1.533,1.533h5.2
			c0.843,0,1.534-0.689,1.534-1.533v-2.079c0-0.843,0.455-1.534,1.012-1.534c0.557,0,1.012,0.69,1.012,1.534l0,2.079
			c0,0.843,0.69,1.533,1.533,1.533h5.201c0.843,0,1.533-0.689,1.533-1.533v-5.2c0-0.844-0.689-1.534-1.533-1.534h-2.079
			c-0.843,0-1.534-0.456-1.534-1.012s0.69-1.012,1.534-1.012h2.079c0.844,0,1.533-0.69,1.533-1.534v-5.2
			c0-0.843-0.689-1.533-1.533-1.533h-2.079c-0.844,0-1.533-0.455-1.534-1.013C25.703,12.722,26.394,12.267,27.237,12.267z
			 M6.134,29.728c-0.557,0-1.013-0.456-1.012-1.013c0-0.556,0.455-1.012,1.012-1.012c0.556,0,1.012,0.456,1.012,1.012
			C7.146,29.271,6.69,29.728,6.134,29.728z M6.134,9.146c-0.557,0-1.012-0.456-1.012-1.012c0-0.557,0.455-1.012,1.012-1.012
			c0.556,0,1.012,0.455,1.012,1.012C7.146,8.689,6.69,9.146,6.134,9.146z M6.134,19.625L6.134,19.625
			c-0.662,0-1.201-0.538-1.201-1.2c0-0.319,0.125-0.621,0.353-0.848c0.227-0.228,0.528-0.352,0.848-0.352c0.662,0,1.2,0.538,1.2,1.2
			C7.334,19.086,6.795,19.625,6.134,19.625z M11.279,11.89c0.766,0,1.389,0.623,1.39,1.389c0,0.766-0.624,1.389-1.39,1.389
			S9.89,14.045,9.89,13.279S10.513,11.89,11.279,11.89z M11.279,24.958c-0.766,0-1.389-0.623-1.389-1.389s0.623-1.39,1.389-1.39
			s1.39,0.624,1.39,1.39S12.045,24.958,11.279,24.958z M11.279,20.002c-0.87,0-1.578-0.708-1.578-1.578
			c0-0.87,0.708-1.577,1.578-1.577l0,0c0.87,0,1.578,0.708,1.578,1.578C12.856,19.294,12.149,20.002,11.279,20.002z M15.576,7.286
			c0.227-0.228,0.529-0.353,0.848-0.353s0.621,0.125,0.848,0.353c0.228,0.227,0.352,0.528,0.352,0.848c0,0.661-0.538,1.2-1.2,1.2
			l0,0c-0.662,0-1.2-0.539-1.2-1.2C15.224,7.814,15.349,7.513,15.576,7.286z M16.424,11.701c0.87,0,1.579,0.708,1.579,1.578
			s-0.708,1.578-1.579,1.578c-0.42,0-0.816-0.164-1.115-0.462c-0.298-0.299-0.462-0.695-0.462-1.115
			C14.847,12.409,15.554,11.701,16.424,11.701z M16.425,29.916L16.425,29.916c-0.663,0-1.201-0.539-1.201-1.201
			c0-0.662,0.538-1.2,1.2-1.2s1.2,0.539,1.2,1.201C17.625,29.377,17.086,29.916,16.425,29.916z M16.424,25.147
			c-0.87,0-1.577-0.708-1.577-1.578c0-0.87,0.708-1.578,1.578-1.578c0.87,0,1.578,0.708,1.578,1.578
			C18.002,24.439,17.294,25.146,16.424,25.147z M16.424,20.191c-0.974,0-1.766-0.793-1.766-1.767c0-0.974,0.792-1.767,1.766-1.767
			c0.974,0,1.767,0.792,1.767,1.767C18.191,19.398,17.398,20.191,16.424,20.191z M21.57,11.89L21.57,11.89
			c0.766,0,1.388,0.623,1.388,1.389s-0.623,1.389-1.389,1.389s-1.389-0.623-1.389-1.389S20.804,11.89,21.57,11.89z M21.57,24.958
			c-0.37,0-0.719-0.145-0.981-0.407c-0.263-0.263-0.408-0.612-0.408-0.981c0-0.766,0.623-1.389,1.389-1.389
			c0.767,0,1.39,0.623,1.39,1.389S22.336,24.958,21.57,24.958z M21.57,20.002c-0.87,0-1.578-0.708-1.578-1.578
			s0.708-1.578,1.578-1.578s1.578,0.708,1.578,1.578S22.44,20.002,21.57,20.002z M26.715,27.703c0.557,0,1.013,0.456,1.013,1.013
			c0,0.556-0.455,1.012-1.012,1.012c-0.557-0.001-1.013-0.456-1.013-1.013C25.703,28.159,26.159,27.703,26.715,27.703z
			 M26.716,17.224c0.661,0,1.2,0.538,1.2,1.2s-0.539,1.2-1.2,1.2c-0.32,0-0.621-0.125-0.849-0.352
			c-0.227-0.228-0.353-0.529-0.353-0.848C25.515,17.762,26.053,17.224,26.716,17.224z M25.703,8.133
			c0-0.557,0.456-1.012,1.013-1.012s1.012,0.455,1.012,1.012s-0.455,1.013-1.012,1.013S25.703,8.689,25.703,8.133z"/>
		<path fill="#02A4EF" d="M27.237,43.239h2.079c0.843,0,1.533-0.69,1.533-1.534v-5.2c0-0.843-0.689-1.533-1.533-1.533h-5.2
			c-0.844,0-1.534,0.69-1.534,1.533v2.079c0,0.844-0.455,1.533-1.012,1.534c-0.557,0-1.012-0.69-1.012-1.534v-2.079
			c0-0.843-0.69-1.533-1.534-1.533h-5.2c-0.843,0-1.534,0.69-1.534,1.533v2.079c0.001,0.844-0.455,1.533-1.012,1.533
			s-1.012-0.689-1.012-1.533v-2.079c0-0.843-0.69-1.533-1.533-1.533l-5.201,0C2.69,34.972,2,35.662,2,36.505v5.2
			c0,0.843,0.69,1.534,1.533,1.534h2.079c0.843,0,1.534,0.456,1.534,1.012c0,0.557-0.69,1.012-1.534,1.012H3.533
			C2.69,45.262,2,45.952,2,46.796l0,5.2c0,0.843,0.689,1.533,1.533,1.533l2.08,0c0.843,0,1.533,0.456,1.533,1.012
			c0,0.557-0.691,1.012-1.533,1.012h-2.08C2.69,55.553,2,56.243,2,57.087v5.2c0,0.843,0.69,1.534,1.533,1.534h5.201
			c0.843,0,1.533-0.69,1.533-1.534v-2.079c0-0.843,0.455-1.533,1.012-1.533s1.013,0.69,1.013,1.533v2.079
			c0,0.843,0.69,1.534,1.533,1.534h5.199c0.844,0,1.534-0.69,1.534-1.534v-2.078c0-0.843,0.455-1.533,1.012-1.533
			c0.557,0,1.012,0.69,1.012,1.533l0,2.079c0,0.843,0.69,1.534,1.533,1.534h5.201c0.844,0,1.533-0.69,1.533-1.534v-5.2
			c0-0.843-0.689-1.534-1.533-1.534h-2.079c-0.844,0-1.534-0.455-1.534-1.012c0-0.556,0.69-1.012,1.534-1.012l2.079,0
			c0.844,0,1.533-0.689,1.533-1.533v-5.2c0-0.844-0.689-1.534-1.533-1.534h-2.079c-0.843,0-1.533-0.455-1.534-1.012
			C25.703,43.694,26.393,43.239,27.237,43.239z M6.134,40.117c-0.557,0-1.012-0.455-1.012-1.012s0.455-1.011,1.012-1.011
			c0.556-0.001,1.012,0.454,1.012,1.011S6.69,40.117,6.134,40.117z M6.134,60.699c-0.558,0-1.013-0.456-1.013-1.012
			s0.455-1.012,1.013-1.012c0.556,0,1.012,0.455,1.012,1.012S6.69,60.699,6.134,60.699z M6.134,50.596L6.134,50.596
			c-0.662,0-1.201-0.539-1.201-1.2c0-0.32,0.125-0.621,0.353-0.848c0.227-0.227,0.528-0.353,0.848-0.353
			c0.662,0,1.2,0.539,1.2,1.201C7.334,50.058,6.795,50.596,6.134,50.596z M11.279,42.861c0.766,0,1.389,0.623,1.389,1.389
			s-0.623,1.389-1.389,1.389s-1.389-0.623-1.39-1.389C9.889,43.484,10.513,42.861,11.279,42.861z M11.279,55.93
			c-0.766,0-1.389-0.623-1.389-1.389s0.623-1.39,1.389-1.39s1.389,0.624,1.389,1.39S12.045,55.93,11.279,55.93z M11.279,50.974
			c-0.87,0-1.578-0.708-1.578-1.578s0.708-1.578,1.578-1.578h0c0.87,0,1.578,0.708,1.578,1.578S12.148,50.974,11.279,50.974z
			 M15.576,38.257c0.227-0.227,0.529-0.353,0.848-0.353s0.62,0.125,0.848,0.353c0.227,0.228,0.352,0.528,0.352,0.848
			c0,0.662-0.538,1.201-1.2,1.201h0c-0.662,0-1.2-0.539-1.2-1.201C15.224,38.786,15.349,38.485,15.576,38.257z M16.424,42.673
			c0.87,0,1.578,0.708,1.578,1.578s-0.708,1.578-1.578,1.578c-0.42,0-0.816-0.164-1.115-0.462s-0.463-0.695-0.462-1.115
			C14.847,43.38,15.554,42.673,16.424,42.673z M16.424,60.888L16.424,60.888c-0.662,0-1.2-0.539-1.2-1.201s0.538-1.2,1.2-1.2
			s1.2,0.539,1.2,1.2C17.625,60.349,17.086,60.888,16.424,60.888z M16.424,56.119c-0.87,0-1.577-0.708-1.577-1.578
			c0-0.869,0.708-1.577,1.578-1.577s1.578,0.707,1.578,1.577C18.002,55.411,17.294,56.119,16.424,56.119z M16.424,51.162
			c-0.974,0-1.767-0.792-1.767-1.766c0-0.974,0.792-1.767,1.767-1.767s1.767,0.793,1.767,1.767
			C18.191,50.37,17.398,51.162,16.424,51.162z M21.57,42.861L21.57,42.861c0.766,0,1.389,0.623,1.389,1.389
			s-0.623,1.389-1.389,1.389s-1.389-0.623-1.389-1.389S20.804,42.861,21.57,42.861z M21.57,55.93c-0.37,0-0.719-0.145-0.982-0.407
			c-0.262-0.263-0.407-0.612-0.407-0.982c0-0.765,0.623-1.389,1.389-1.389s1.389,0.624,1.389,1.389
			C22.958,55.307,22.336,55.93,21.57,55.93z M21.57,50.974c-0.87,0-1.578-0.708-1.578-1.578c0-0.87,0.708-1.578,1.578-1.578
			s1.578,0.708,1.578,1.578C23.148,50.266,22.44,50.974,21.57,50.974z M26.715,58.675c0.557,0,1.012,0.455,1.012,1.012
			c0.001,0.557-0.455,1.012-1.012,1.012c-0.556,0-1.012-0.456-1.012-1.012S26.159,58.675,26.715,58.675z M26.715,48.195
			c0.662,0,1.201,0.539,1.201,1.201c0,0.662-0.539,1.2-1.201,1.2c-0.319,0-0.62-0.125-0.848-0.352
			c-0.228-0.228-0.353-0.529-0.353-0.849C25.515,48.734,26.053,48.195,26.715,48.195z M25.703,39.104
			c0-0.556,0.456-1.012,1.012-1.012c0.557,0,1.013,0.456,1.013,1.012c0,0.557-0.456,1.012-1.012,1.012
			C26.159,40.117,25.703,39.661,25.703,39.104z"/>
		<path fill="#FFB902" d="M58.209,43.239h2.079c0.843,0,1.533-0.69,1.533-1.534v-5.2c0-0.843-0.69-1.533-1.533-1.533h-5.201
			c-0.843,0-1.533,0.69-1.533,1.533v2.079c0,0.844-0.455,1.533-1.012,1.534c-0.557,0-1.013-0.69-1.013-1.534v-2.079
			c0.001-0.843-0.689-1.533-1.533-1.533h-5.2c-0.843,0-1.534,0.69-1.534,1.533v2.079c0,0.844-0.455,1.533-1.012,1.533
			s-1.012-0.689-1.012-1.533v-2.079c0-0.843-0.69-1.533-1.533-1.533l-5.201,0c-0.843,0-1.533,0.69-1.533,1.533v5.2
			c0,0.843,0.69,1.534,1.533,1.534h2.079c0.843,0,1.534,0.456,1.534,1.012c0,0.557-0.69,1.012-1.534,1.012h-2.079
			c-0.843,0-1.533,0.69-1.533,1.534v5.2c0,0.843,0.69,1.533,1.533,1.533l2.08,0c0.843,0,1.533,0.456,1.533,1.012
			s-0.689,1.012-1.534,1.012h-2.079c-0.843,0-1.533,0.69-1.533,1.534v5.2c0,0.843,0.69,1.534,1.533,1.534h5.201
			c0.843,0,1.533-0.69,1.533-1.534v-2.079c0-0.843,0.455-1.533,1.012-1.533s1.012,0.69,1.012,1.533v2.079
			c0,0.843,0.69,1.534,1.534,1.534h5.2c0.843,0,1.533-0.69,1.533-1.534v-2.078c0-0.843,0.456-1.533,1.013-1.533
			s1.012,0.69,1.012,1.533v2.079c0,0.843,0.689,1.534,1.533,1.534h5.201c0.843,0,1.533-0.69,1.533-1.534v-5.2
			c0-0.843-0.69-1.534-1.533-1.534h-2.079c-0.843,0-1.534-0.455-1.534-1.012c0-0.556,0.69-1.012,1.534-1.012l2.079,0
			c0.843,0,1.533-0.689,1.533-1.533v-5.2c0-0.844-0.69-1.534-1.533-1.534h-2.079c-0.843,0-1.534-0.455-1.534-1.012
			S57.366,43.239,58.209,43.239z M37.106,60.699c-0.557,0-1.012-0.456-1.012-1.012s0.455-1.012,1.012-1.012
			c0.556,0,1.012,0.455,1.012,1.012S37.662,60.699,37.106,60.699z M37.106,40.117c-0.557,0-1.012-0.455-1.012-1.012
			s0.455-1.011,1.012-1.011c0.556-0.001,1.012,0.454,1.012,1.011S37.662,40.117,37.106,40.117z M37.106,50.596L37.106,50.596
			c-0.662,0-1.201-0.539-1.201-1.2c0-0.32,0.125-0.621,0.353-0.848c0.227-0.227,0.528-0.353,0.848-0.353
			c0.662,0,1.2,0.539,1.2,1.201C38.306,50.058,37.768,50.596,37.106,50.596z M42.251,42.861c0.766,0,1.389,0.623,1.389,1.389
			s-0.623,1.389-1.389,1.389s-1.39-0.623-1.39-1.389S41.485,42.861,42.251,42.861z M42.251,55.93c-0.766,0-1.389-0.623-1.389-1.389
			s0.623-1.39,1.389-1.39s1.389,0.624,1.389,1.39S43.017,55.93,42.251,55.93z M42.251,50.974c-0.87,0-1.578-0.708-1.578-1.578
			s0.708-1.578,1.577-1.578h0c0.87,0,1.578,0.708,1.578,1.578S43.121,50.974,42.251,50.974z M46.548,38.257
			c0.227-0.227,0.529-0.353,0.848-0.353s0.621,0.125,0.848,0.353c0.228,0.228,0.352,0.528,0.352,0.848
			c0,0.662-0.538,1.201-1.2,1.201l0,0c-0.662,0-1.2-0.539-1.2-1.201C46.196,38.786,46.321,38.485,46.548,38.257z M47.396,42.673
			c0.87,0,1.578,0.708,1.578,1.578s-0.708,1.578-1.578,1.578c-0.42,0-0.816-0.164-1.115-0.462s-0.463-0.695-0.462-1.115
			C45.819,43.38,46.526,42.673,47.396,42.673z M47.397,60.888L47.397,60.888c-0.662,0-1.201-0.539-1.201-1.201s0.538-1.2,1.2-1.2
			s1.2,0.539,1.2,1.2C48.597,60.349,48.059,60.888,47.397,60.888z M47.396,56.119c-0.87,0-1.578-0.708-1.578-1.578
			c0-0.869,0.708-1.577,1.578-1.577s1.578,0.707,1.578,1.577C48.974,55.411,48.267,56.119,47.396,56.119z M47.396,51.162
			c-0.974,0-1.767-0.792-1.767-1.766c0-0.974,0.793-1.767,1.767-1.767c0.974,0,1.767,0.793,1.767,1.767
			C49.163,50.37,48.371,51.162,47.396,51.162z M52.542,42.861L52.542,42.861c0.766,0,1.388,0.623,1.388,1.389
			s-0.623,1.389-1.389,1.389s-1.39-0.623-1.39-1.389C51.153,43.484,51.776,42.861,52.542,42.861z M52.542,55.93
			c-0.371,0-0.719-0.145-0.982-0.407c-0.263-0.263-0.408-0.612-0.408-0.982c0-0.765,0.623-1.389,1.39-1.389
			c0.766,0,1.389,0.624,1.389,1.389C53.932,55.307,53.308,55.93,52.542,55.93z M52.542,50.974c-0.87,0-1.578-0.708-1.578-1.578
			c0-0.87,0.708-1.578,1.578-1.578s1.578,0.708,1.578,1.578C54.12,50.266,53.412,50.974,52.542,50.974z M57.687,58.675
			c0.557,0,1.012,0.455,1.012,1.012c0,0.557-0.455,1.012-1.012,1.012c-0.556,0-1.012-0.456-1.012-1.012S57.131,58.675,57.687,58.675
			z M57.687,48.195c0.663,0,1.201,0.539,1.201,1.201c0,0.662-0.539,1.2-1.201,1.2c-0.319,0-0.62-0.125-0.848-0.352
			c-0.228-0.228-0.353-0.529-0.353-0.849C56.487,48.734,57.025,48.195,57.687,48.195z M57.687,38.093
			c0.557,0,1.012,0.456,1.012,1.012c0,0.557-0.455,1.012-1.012,1.012c-0.556,0-1.012-0.456-1.012-1.012
			C56.675,38.548,57.131,38.093,57.687,38.093z"/>
		<path fill="#80BA01" d="M58.209,12.267h2.079c0.843,0,1.533-0.69,1.533-1.533V5.533C61.821,4.69,61.131,4,60.288,4h-5.201
			c-0.843,0-1.533,0.69-1.533,1.533v2.08c0,0.843-0.455,1.533-1.012,1.533s-1.013-0.689-1.013-1.533V5.534
			C51.53,4.69,50.84,4,49.997,4h-5.2c-0.843,0-1.534,0.689-1.534,1.533v2.08c0,0.843-0.455,1.533-1.012,1.533
			s-1.012-0.689-1.012-1.533V5.534c0-0.843-0.69-1.534-1.533-1.534h-5.201c-0.843,0-1.533,0.689-1.533,1.534v5.2
			c0,0.843,0.69,1.534,1.533,1.534h2.079c0.843,0,1.534,0.455,1.534,1.012s-0.69,1.012-1.534,1.012h-2.079
			c-0.843,0-1.533,0.69-1.533,1.533v5.201c0,0.842,0.69,1.533,1.533,1.533h2.08c0.843,0,1.533,0.455,1.533,1.012
			s-0.689,1.012-1.534,1.012h-2.079c-0.843,0-1.533,0.69-1.533,1.534v5.2c0,0.843,0.69,1.533,1.533,1.533h5.201
			c0.843,0,1.533-0.69,1.533-1.533v-2.079c0-0.843,0.455-1.533,1.012-1.533s1.012,0.69,1.012,1.533v2.079
			c0,0.843,0.69,1.533,1.534,1.533h5.2c0.843,0,1.533-0.689,1.533-1.533v-2.079c0-0.843,0.456-1.533,1.013-1.533
			s1.012,0.69,1.012,1.533v2.079c0,0.843,0.689,1.533,1.533,1.533h5.201c0.843,0,1.533-0.69,1.533-1.533v-5.2
			c0-0.844-0.69-1.534-1.533-1.534h-2.079c-0.843,0-1.534-0.455-1.534-1.012s0.69-1.012,1.534-1.012h2.079
			c0.843,0,1.533-0.69,1.533-1.534v-5.2c0-0.843-0.69-1.533-1.533-1.533h-2.079c-0.843,0-1.534-0.455-1.534-1.012
			S57.366,12.267,58.209,12.267z M37.106,29.728c-0.557,0-1.012-0.456-1.012-1.013c0-0.556,0.455-1.012,1.012-1.012
			c0.556,0,1.012,0.456,1.012,1.012C38.118,29.271,37.662,29.728,37.106,29.728z M37.106,9.146c-0.557,0-1.012-0.456-1.012-1.012
			c0-0.557,0.455-1.012,1.012-1.012c0.556,0,1.012,0.455,1.012,1.012C38.118,8.69,37.662,9.146,37.106,9.146z M37.106,19.625
			L37.106,19.625c-0.662,0-1.201-0.538-1.201-1.2c0-0.319,0.125-0.621,0.353-0.848c0.227-0.228,0.528-0.352,0.848-0.352
			c0.662,0,1.2,0.538,1.2,1.2S37.768,19.625,37.106,19.625z M42.251,11.89c0.766,0,1.389,0.623,1.389,1.389
			s-0.623,1.389-1.389,1.389s-1.389-0.623-1.39-1.389C40.861,12.513,41.485,11.89,42.251,11.89z M42.251,24.958
			c-0.766,0-1.389-0.623-1.389-1.389s0.623-1.389,1.389-1.389s1.389,0.623,1.389,1.389S43.017,24.958,42.251,24.958z M42.251,20.002
			c-0.87,0-1.578-0.708-1.578-1.578c0-0.87,0.708-1.578,1.577-1.578h0c0.87,0,1.578,0.708,1.578,1.578
			C43.829,19.294,43.121,20.002,42.251,20.002z M46.548,7.286c0.227-0.228,0.529-0.353,0.848-0.353s0.621,0.125,0.848,0.353
			c0.228,0.227,0.352,0.528,0.352,0.848c0,0.661-0.538,1.2-1.2,1.2l0,0c-0.662,0-1.2-0.539-1.2-1.2
			C46.196,7.814,46.321,7.513,46.548,7.286z M47.396,11.701c0.871,0,1.578,0.708,1.578,1.578s-0.708,1.578-1.578,1.578
			c-0.42,0-0.816-0.164-1.115-0.462s-0.462-0.695-0.462-1.115C45.819,12.409,46.526,11.701,47.396,11.701z M47.397,29.916
			L47.397,29.916c-0.662,0-1.201-0.539-1.201-1.2c0-0.663,0.538-1.201,1.2-1.201s1.2,0.539,1.2,1.201
			C48.597,29.377,48.059,29.916,47.397,29.916z M47.396,25.147c-0.87,0-1.578-0.708-1.578-1.578s0.708-1.578,1.578-1.578
			c0.87,0,1.578,0.708,1.578,1.578C48.974,24.439,48.267,25.146,47.396,25.147z M47.396,20.191c-0.974,0-1.767-0.792-1.767-1.767
			s0.793-1.767,1.767-1.767c0.974,0,1.767,0.792,1.767,1.767S48.371,20.191,47.396,20.191z M52.542,11.89L52.542,11.89
			c0.766,0,1.389,0.623,1.389,1.389s-0.624,1.39-1.39,1.39s-1.39-0.624-1.39-1.39C51.153,12.513,51.776,11.89,52.542,11.89z
			 M52.542,24.958c-0.371,0-0.719-0.145-0.982-0.407c-0.263-0.263-0.408-0.612-0.408-0.981c0-0.766,0.623-1.389,1.39-1.389
			c0.766,0,1.389,0.623,1.389,1.389S53.308,24.958,52.542,24.958z M52.542,20.002c-0.87,0-1.578-0.708-1.578-1.578
			c0-0.87,0.708-1.578,1.578-1.578s1.578,0.708,1.578,1.578C54.12,19.294,53.412,20.002,52.542,20.002z M57.687,27.703
			c0.557,0,1.012,0.456,1.012,1.013s-0.455,1.012-1.012,1.012c-0.556,0-1.012-0.456-1.012-1.013
			C56.675,28.159,57.131,27.703,57.687,27.703z M57.687,17.224c0.663,0,1.201,0.538,1.201,1.2s-0.539,1.2-1.201,1.2
			c-0.319,0-0.62-0.125-0.848-0.352c-0.228-0.227-0.353-0.529-0.353-0.848C56.487,17.762,57.025,17.224,57.687,17.224z
			 M57.687,7.121c0.557,0,1.012,0.456,1.012,1.013c0,0.556-0.455,1.012-1.011,1.012c-0.557,0-1.013-0.456-1.013-1.012
			C56.675,7.577,57.131,7.121,57.687,7.121z"/>
	</g>
	<g>
		<path fill="#777777" d="M173.447,13.884c0.707-0.107,1.471,0.134,1.941,0.688c0.549,0.605,0.648,1.57,0.244,2.277
			c-0.453,0.798-1.459,1.169-2.336,0.978c-0.91-0.164-1.668-1.01-1.629-1.954C171.645,14.88,172.473,13.995,173.447,13.884
			L173.447,13.884z"/>
		<path fill="#777777" d="M248.518,13.679c1.496-0.972,3.428-1.063,5.111-0.6c0.016,1.001,0,2.003,0.008,3.004
			c-0.801-0.352-1.742-0.581-2.586-0.236c-0.668,0.266-1.064,0.951-1.168,1.637c-0.127,0.869-0.043,1.75-0.064,2.625
			c1.709,0.004,3.418,0.001,5.127,0.002c0.014-1.11-0.012-2.221,0.016-3.331c1.162-0.331,2.313-0.702,3.469-1.051
			c0.012,1.462-0.014,2.926,0.014,4.39c1.156-0.017,2.311-0.004,3.469-0.008v2.847c-1.16-0.048-2.322-0.013-3.484-0.016
			c0.006,1.636,0.002,3.274,0.002,4.911c0.021,0.907-0.047,1.818,0.059,2.722c0.064,0.532,0.258,1.123,0.758,1.398
			c0.838,0.468,1.898,0.264,2.666-0.25v2.875c-1.002,0.436-2.123,0.568-3.205,0.492c-1.027-0.076-2.092-0.45-2.766-1.269
			c-0.773-0.923-0.973-2.174-0.99-3.345c-0.008-2.513,0.002-5.024-0.004-7.538c-1.709-0.001-3.42-0.002-5.129,0.001
			c-0.002,3.942-0.002,7.886-0.002,11.828c-1.17,0-2.338,0-3.506,0c0-3.942-0.004-7.882,0.002-11.824
			c-0.814-0.015-1.627,0.004-2.441-0.013c0.004-0.936,0.008-1.873-0.002-2.809c0.809-0.019,1.619-0.011,2.432-0.005
			c0.059-1.244-0.131-2.525,0.24-3.737C246.855,15.284,247.555,14.297,248.518,13.679L248.518,13.679z"/>
		<path fill="#777777" d="M146.576,14.318c1.699,0,3.398,0,5.1,0c1.586,4.03,3.186,8.056,4.773,12.087
			c0.406,1.008,0.785,2.027,1.211,3.028c2.043-5.037,4.113-10.06,6.141-15.103c1.635-0.026,3.271-0.005,4.906-0.01
			c-0.004,6.816-0.004,13.631-0.002,20.446c-1.18-0.003-2.357,0.009-3.537-0.008c0.012-5.029-0.002-10.058,0.004-15.088
			c0.002-0.226-0.004-0.452-0.02-0.678c-0.068,0.105-0.131,0.214-0.184,0.327c-2.027,5.148-4.092,10.281-6.105,15.435
			c-0.842,0.03-1.68,0.001-2.521,0.016c-2.09-5.148-4.154-10.308-6.234-15.459c-0.055-0.107-0.111-0.211-0.176-0.312
			c-0.045,2.204-0.008,4.409-0.02,6.612c0,3.052-0.002,6.104,0,9.156c-1.113,0.003-2.225,0-3.336,0
			C146.574,27.951,146.574,21.135,146.576,14.318L146.576,14.318z"/>
		<path fill="#777777" d="M183.096,20.098c1.693-0.482,3.518-0.463,5.209,0.015c0.35,0.097,0.686,0.233,1,0.417
			c-0.02,1.116,0,2.234-0.01,3.352c-1.131-0.864-2.564-1.411-4.002-1.229c-1.141,0.103-2.23,0.696-2.912,1.617
			c-0.879,1.144-1.08,2.661-0.93,4.06c0.113,1.095,0.566,2.188,1.416,2.914c0.887,0.785,2.125,1.063,3.281,0.976
			c1.145-0.131,2.221-0.616,3.146-1.291c0.01,1.058-0.006,2.117,0.008,3.175c-1.434,0.853-3.154,1.074-4.793,0.993
			c-1.68-0.089-3.352-0.725-4.568-1.904c-1.32-1.273-2.037-3.089-2.121-4.907c-0.086-1.889,0.299-3.861,1.387-5.439
			C180.117,21.499,181.545,20.545,183.096,20.098L183.096,20.098z"/>
		<path fill="#777777" d="M221.396,19.874c1.623-0.285,3.32-0.075,4.854,0.506c0.004,1.074,0,2.148,0.002,3.223
			c-1.072-0.737-2.381-1.133-3.682-1.087c-0.656,0.025-1.377,0.303-1.674,0.926c-0.24,0.617-0.076,1.425,0.506,1.794
			c0.994,0.665,2.18,0.948,3.211,1.543c0.811,0.456,1.6,1.051,2.008,1.91c0.771,1.609,0.445,3.734-0.912,4.934
			c-1.295,1.211-3.162,1.546-4.879,1.481c-1.219-0.078-2.443-0.319-3.564-0.818c0.006-1.13-0.008-2.26,0.006-3.39
			c0.943,0.685,2.029,1.174,3.182,1.373c0.801,0.131,1.672,0.137,2.418-0.222c0.717-0.354,0.844-1.371,0.42-1.992
			c-0.396-0.478-0.98-0.743-1.529-1.002c-1.035-0.464-2.121-0.853-3.027-1.548c-0.639-0.498-1.121-1.199-1.311-1.989
			c-0.279-1.166-0.191-2.48,0.482-3.499C218.682,20.831,220.027,20.119,221.396,19.874L221.396,19.874z"/>
		<path fill="#777777" d="M197.145,20.336c0.969-0.582,2.199-0.63,3.256-0.274c-0.004,1.169,0,2.338-0.002,3.508
			c-0.693-0.448-1.555-0.64-2.373-0.557c-0.994,0.113-1.781,0.877-2.191,1.754c-0.445,0.927-0.529,1.977-0.5,2.992
			c0,2.337,0.002,4.672,0,7.008c-1.152,0-2.305,0-3.457,0c-0.004-4.883,0.004-9.766-0.004-14.647
			c1.154-0.015,2.311-0.009,3.465-0.003c-0.006,0.839,0,1.677-0.004,2.516C195.707,21.719,196.266,20.834,197.145,20.336
			L197.145,20.336z"/>
		<path fill="#777777" d="M171.988,20.116c1.162-0.005,2.326-0.016,3.488,0.005c-0.014,4.882,0,9.764-0.006,14.646
			c-1.16,0-2.322,0-3.48,0C171.988,29.883,171.99,25,171.988,20.116L171.988,20.116z"/>
		<path fill="#777777" d="M214.934,23.533c-0.605-1.354-1.707-2.483-3.063-3.096c-1.561-0.71-3.338-0.806-5.018-0.592
			c-1.768,0.223-3.488,1.055-4.609,2.463c-1.025,1.258-1.523,2.875-1.619,4.478c-0.141,1.891,0.174,3.896,1.283,5.474
			c0.947,1.361,2.438,2.297,4.053,2.642c1.346,0.284,2.756,0.285,4.104,0.003c1.576-0.324,3.049-1.196,4.025-2.483
			c0.955-1.212,1.434-2.741,1.541-4.267C215.742,26.593,215.584,24.974,214.934,23.533z M211.549,30.26
			c-0.338,0.753-0.949,1.39-1.723,1.691c-0.906,0.348-1.924,0.368-2.859,0.126c-0.951-0.25-1.758-0.938-2.197-1.813
			c-0.564-1.127-0.65-2.431-0.531-3.667c0.104-1.125,0.496-2.282,1.354-3.058c0.621-0.581,1.469-0.864,2.307-0.911
			c1.055-0.069,2.176,0.23,2.932,0.996c0.811,0.796,1.125,1.952,1.211,3.054C212.104,27.884,212.053,29.141,211.549,30.26z"/>
		<path fill="#777777" d="M243.014,23.956c-0.537-1.455-1.617-2.713-3.01-3.409c-1.596-0.807-3.455-0.924-5.205-0.708
			c-1.41,0.182-2.797,0.716-3.873,1.662c-1.316,1.132-2.086,2.797-2.314,4.501c-0.215,1.703-0.143,3.497,0.551,5.091
			c0.666,1.563,1.984,2.833,3.563,3.455c1.561,0.615,3.297,0.684,4.941,0.418c1.678-0.277,3.27-1.16,4.309-2.519
			c1.111-1.405,1.59-3.222,1.588-4.993C243.584,26.271,243.438,25.069,243.014,23.956z M239.854,28.924
			c-0.135,0.771-0.402,1.541-0.906,2.151c-0.512,0.613-1.27,0.987-2.051,1.102c-0.84,0.125-1.723,0.065-2.508-0.272
			c-0.848-0.358-1.504-1.092-1.848-1.935c-0.416-1.005-0.5-2.118-0.416-3.193c0.08-1.041,0.375-2.109,1.061-2.918
			c0.627-0.756,1.592-1.173,2.561-1.228c0.99-0.069,2.047,0.16,2.809,0.829c0.701,0.583,1.09,1.455,1.27,2.333
			C240.025,26.822,240.023,27.889,239.854,28.924z"/>
	</g>
	<g>
		<path fill="#919191" d="M81.983,34.767l-8.69-9.757c-0.161-0.18-0.275-0.336-0.341-0.47h-0.057v10.227h-1.408V14.371h1.408v9.615
			h0.057c0.114-0.199,0.237-0.365,0.37-0.498l8.25-9.117h1.835l-8.946,9.885l9.501,10.511H81.983z"/>
		<path fill="#919191" d="M86.279,27.542c0,2,0.462,3.565,1.387,4.693s2.192,1.692,3.805,1.692c1.631,0,3.224-0.602,4.779-1.806
			v1.394c-1.507,1.071-3.191,1.607-5.049,1.607c-1.877,0-3.395-0.673-4.551-2.02c-1.157-1.346-1.735-3.248-1.735-5.704
			c0-2.124,0.604-3.914,1.813-5.369c1.208-1.455,2.78-2.183,4.715-2.183c1.811,0,3.2,0.635,4.167,1.906
			c0.967,1.271,1.451,3.006,1.451,5.206v0.583H86.279z M95.694,26.347c-0.057-1.678-0.46-2.982-1.209-3.912
			c-0.749-0.929-1.783-1.394-3.101-1.394c-1.365,0-2.496,0.458-3.392,1.373s-1.449,2.226-1.657,3.933H95.694z"/>
		<path fill="#919191" d="M107.542,21.568c-0.436-0.313-0.947-0.47-1.535-0.47c-1.148,0-2.109,0.593-2.887,1.778
			c-0.779,1.186-1.168,2.869-1.168,5.049v6.841h-1.279V20.203h1.279v3.229h0.059c0.33-1.109,0.857-1.972,1.578-2.588
			c0.721-0.616,1.555-0.924,2.504-0.924c0.539,0,1.023,0.085,1.449,0.256V21.568z"/>
		<path fill="#919191" d="M118.992,34.767v-2.916h-0.057c-0.465,0.996-1.141,1.79-2.027,2.382c-0.887,0.592-1.87,0.889-2.951,0.889
			c-1.385,0-2.479-0.389-3.285-1.166c-0.807-0.777-1.209-1.759-1.209-2.944c0-2.541,1.683-4.077,5.049-4.608l4.48-0.668
			c0-3.129-1.176-4.693-3.527-4.693c-1.603,0-3.162,0.645-4.68,1.934v-1.579c0.541-0.427,1.273-0.792,2.198-1.095
			c0.924-0.303,1.794-0.455,2.609-0.455c1.498,0,2.657,0.465,3.478,1.394s1.23,2.28,1.23,4.053v9.473H118.992z M114.981,27.513
			c-1.527,0.218-2.599,0.571-3.215,1.06c-0.616,0.489-0.924,1.283-0.924,2.382c0,0.863,0.286,1.574,0.86,2.134
			c0.573,0.56,1.372,0.839,2.396,0.839c1.403,0,2.569-0.519,3.499-1.557c0.929-1.039,1.394-2.377,1.394-4.018V26.93L114.981,27.513z
			"/>
		<path fill="#919191" d="M124.681,34.767V13.205h1.308v21.562H124.681z"/>
		<path fill="#919191" d="M139.359,34.767v-2.916h-0.057c-0.465,0.996-1.141,1.79-2.027,2.382c-0.887,0.592-1.871,0.889-2.951,0.889
			c-1.385,0-2.48-0.389-3.286-1.166c-0.807-0.777-1.209-1.759-1.209-2.944c0-2.541,1.683-4.077,5.049-4.608l4.48-0.668
			c0-3.129-1.176-4.693-3.527-4.693c-1.604,0-3.163,0.645-4.68,1.934v-1.579c0.541-0.427,1.273-0.792,2.198-1.095
			c0.924-0.303,1.795-0.455,2.609-0.455c1.498,0,2.658,0.465,3.479,1.394s1.23,2.28,1.23,4.053v9.473H139.359z M135.348,27.513
			c-1.527,0.218-2.598,0.571-3.214,1.06c-0.616,0.489-0.924,1.283-0.924,2.382c0,0.863,0.286,1.574,0.86,2.134
			c0.573,0.56,1.372,0.839,2.397,0.839c1.402,0,2.568-0.519,3.498-1.557c0.93-1.039,1.395-2.377,1.395-4.018V26.93L135.348,27.513z"
			/>
	</g>
	<g>
		<path fill="#919191" d="M82.596,46.711c0,4.423-1.886,6.635-5.659,6.635c-3.587,0-5.381-2.13-5.381-6.391v-9.797h1.087V46.8
			c0,3.691,1.501,5.536,4.504,5.536c2.907,0,4.36-1.793,4.36-5.381v-9.797h1.087V46.711z"/>
		<path fill="#919191" d="M85.668,52.569v-1.231c0.385,0.333,0.851,0.596,1.398,0.788s1.021,0.288,1.42,0.288
			c1.782,0,2.674-0.728,2.674-2.186c0-0.503-0.196-0.932-0.588-1.287s-1.028-0.721-1.908-1.098c-1.087-0.473-1.851-0.963-2.291-1.47
			c-0.44-0.506-0.66-1.122-0.66-1.847c0-0.925,0.353-1.671,1.06-2.241c0.706-0.569,1.577-0.854,2.613-0.854
			c0.977,0,1.812,0.2,2.507,0.599v1.154c-0.843-0.547-1.716-0.821-2.618-0.821c-0.747,0-1.35,0.194-1.809,0.583
			s-0.688,0.893-0.688,1.514c0,0.54,0.145,0.979,0.433,1.315c0.288,0.337,0.924,0.723,1.908,1.16
			c1.183,0.532,1.997,1.026,2.441,1.481s0.666,1.06,0.666,1.814c0,0.902-0.338,1.647-1.015,2.236
			c-0.677,0.588-1.611,0.882-2.801,0.882C87.314,53.346,86.401,53.087,85.668,52.569z"/>
		<path fill="#919191" d="M95.321,47.433c0,1.561,0.361,2.781,1.082,3.661c0.721,0.88,1.71,1.32,2.968,1.32
			c1.272,0,2.514-0.469,3.727-1.409v1.087c-1.176,0.836-2.488,1.254-3.938,1.254c-1.464,0-2.648-0.525-3.55-1.576
			c-0.902-1.05-1.354-2.533-1.354-4.449c0-1.657,0.472-3.053,1.415-4.188c0.943-1.135,2.169-1.703,3.678-1.703
			c1.413,0,2.497,0.496,3.251,1.487s1.131,2.345,1.131,4.061v0.455H95.321z M102.667,46.5c-0.045-1.309-0.359-2.326-0.943-3.051
			s-1.391-1.087-2.418-1.087c-1.065,0-1.947,0.357-2.646,1.071c-0.699,0.714-1.13,1.736-1.292,3.067H102.667z"/>
		<path fill="#919191" d="M111.909,42.773c-0.341-0.244-0.74-0.366-1.198-0.366c-0.896,0-1.646,0.462-2.253,1.387
			c-0.606,0.925-0.909,2.238-0.909,3.939v5.336h-0.999V41.708h0.999v2.519h0.044c0.259-0.865,0.67-1.538,1.231-2.019
			c0.563-0.481,1.213-0.721,1.953-0.721c0.422,0,0.799,0.066,1.132,0.2V42.773z"/>
		<path fill="#919191" d="M113.683,52.569v-1.231c0.385,0.333,0.851,0.596,1.398,0.788c0.547,0.192,1.021,0.288,1.42,0.288
			c1.782,0,2.674-0.728,2.674-2.186c0-0.503-0.196-0.932-0.588-1.287c-0.393-0.355-1.028-0.721-1.908-1.098
			c-1.088-0.473-1.852-0.963-2.291-1.47c-0.44-0.506-0.66-1.122-0.66-1.847c0-0.925,0.353-1.671,1.06-2.241
			c0.706-0.569,1.577-0.854,2.612-0.854c0.977,0,1.813,0.2,2.508,0.599v1.154c-0.844-0.547-1.717-0.821-2.619-0.821
			c-0.747,0-1.35,0.194-1.808,0.583c-0.459,0.388-0.688,0.893-0.688,1.514c0,0.54,0.145,0.979,0.433,1.315
			c0.289,0.337,0.925,0.723,1.908,1.16c1.184,0.532,1.997,1.026,2.441,1.481c0.443,0.455,0.666,1.06,0.666,1.814
			c0,0.902-0.339,1.647-1.016,2.236c-0.677,0.588-1.61,0.882-2.802,0.882C115.329,53.346,114.416,53.087,113.683,52.569z"/>
		<path fill="#919191" d="M141.043,51.959c-1.641,0.925-3.332,1.387-5.07,1.387c-2.166,0-3.919-0.736-5.258-2.208
			c-1.339-1.472-2.009-3.402-2.009-5.792c0-2.411,0.722-4.423,2.164-6.036c1.442-1.612,3.369-2.418,5.781-2.418
			c1.396,0,2.754,0.281,4.07,0.843v1.198c-1.441-0.695-2.85-1.043-4.227-1.043c-2.004,0-3.615,0.684-4.832,2.053
			c-1.217,1.368-1.825,3.114-1.825,5.236c0,2.234,0.571,3.985,1.715,5.253c1.143,1.269,2.682,1.903,4.62,1.903
			c1.436,0,2.693-0.311,3.773-0.932v-5.248h-3.75v-0.999h4.848V51.959z"/>
		<path fill="#919191" d="M149.854,42.773c-0.342-0.244-0.74-0.366-1.199-0.366c-0.895,0-1.646,0.462-2.252,1.387
			c-0.607,0.925-0.91,2.238-0.91,3.939v5.336h-0.998V41.708h0.998v2.519h0.045c0.258-0.865,0.67-1.538,1.23-2.019
			c0.563-0.481,1.213-0.721,1.953-0.721c0.422,0,0.799,0.066,1.133,0.2V42.773z"/>
		<path fill="#919191" d="M156.1,53.346c-1.658,0-2.969-0.545-3.934-1.636c-0.965-1.091-1.447-2.509-1.447-4.255
			c0-1.886,0.504-3.362,1.514-4.427c1.01-1.065,2.34-1.598,3.988-1.598c1.619,0,2.9,0.529,3.84,1.587
			c0.938,1.058,1.408,2.522,1.408,4.394c0,1.768-0.479,3.199-1.438,4.293C159.074,52.799,157.764,53.346,156.1,53.346z
			 M156.176,42.362c-1.338,0-2.404,0.451-3.201,1.354c-0.795,0.902-1.191,2.156-1.191,3.761c0,1.487,0.389,2.681,1.164,3.583
			c0.777,0.903,1.838,1.354,3.186,1.354c1.367,0,2.422-0.444,3.162-1.331c0.738-0.888,1.109-2.119,1.109-3.695
			c0-1.62-0.369-2.862-1.105-3.728C158.564,42.795,157.523,42.362,156.176,42.362z"/>
		<path fill="#919191" d="M171.787,53.069v-2.063h-0.045c-0.791,1.561-2.012,2.341-3.66,2.341c-2.686,0-4.027-1.69-4.027-5.07
			v-6.568h1.031v6.313c0,1.539,0.254,2.656,0.76,3.351c0.506,0.696,1.303,1.043,2.391,1.043c1.059,0,1.914-0.388,2.568-1.165
			c0.654-0.777,0.982-1.813,0.982-3.107v-6.435h1.021v11.361H171.787z"/>
		<path fill="#919191" d="M177.512,51.05h-0.045v7.245h-1.02V41.708h1.02v2.341h0.045c0.406-0.836,0.99-1.481,1.748-1.936
			c0.758-0.455,1.592-0.683,2.502-0.683c1.441,0,2.568,0.498,3.379,1.492c0.809,0.995,1.215,2.347,1.215,4.055
			c0,1.901-0.465,3.438-1.393,4.61c-0.93,1.172-2.154,1.758-3.678,1.758C179.584,53.346,178.326,52.581,177.512,51.05z
			 M177.467,46.822v1.432c0,1.139,0.359,2.117,1.076,2.935c0.719,0.817,1.662,1.226,2.83,1.226c1.162,0,2.104-0.497,2.83-1.492
			c0.725-0.995,1.086-2.302,1.086-3.922c0-1.42-0.332-2.548-0.998-3.384s-1.553-1.254-2.662-1.254c-1.324,0-2.35,0.444-3.074,1.332
			C177.83,44.581,177.467,45.624,177.467,46.822z"/>
	</g>
</g>
<g>
	<g>
		<path fill="#7C7C7C" d="M27.237,75.267h2.079c0.843,0,1.533-0.69,1.533-1.533v-5.201c0-0.843-0.689-1.533-1.533-1.533h-5.2
			c-0.844,0-1.534,0.69-1.534,1.533v2.079c0,0.843-0.456,1.534-1.012,1.534s-1.012-0.69-1.012-1.533v-2.08
			c0-0.843-0.69-1.533-1.534-1.533l-5.2,0c-0.843,0-1.534,0.69-1.533,1.533v2.079c0,0.843-0.456,1.534-1.013,1.534
			s-1.012-0.69-1.012-1.534v-2.078c0-0.844-0.69-1.534-1.533-1.534H3.533C2.69,67,2,67.69,2,68.533l0,5.201
			c0,0.844,0.69,1.534,1.533,1.533h2.079c0.843,0,1.534,0.456,1.534,1.013s-0.69,1.012-1.534,1.012H3.533
			C2.69,77.292,2,77.981,2,78.824l0,5.2c0,0.843,0.689,1.534,1.534,1.534h2.079c0.843,0,1.533,0.455,1.533,1.012
			s-0.69,1.012-1.533,1.012h-2.08C2.69,87.582,2,88.272,2,89.116v5.2c0,0.843,0.69,1.533,1.533,1.533h5.201
			c0.843,0,1.533-0.689,1.533-1.533v-2.079c0-0.843,0.455-1.534,1.013-1.534c0.556,0,1.012,0.69,1.012,1.534v2.079
			c0,0.844,0.69,1.533,1.533,1.533h5.2c0.843,0,1.534-0.689,1.534-1.533v-2.079c0-0.843,0.455-1.534,1.012-1.534
			c0.557,0,1.012,0.69,1.012,1.534l0,2.079c0,0.843,0.69,1.533,1.533,1.533h5.201c0.843,0,1.533-0.689,1.533-1.533v-5.2
			c0-0.844-0.689-1.534-1.533-1.534h-2.079c-0.843,0-1.534-0.456-1.534-1.012s0.69-1.012,1.534-1.012h2.079
			c0.844,0,1.533-0.69,1.533-1.534v-5.2c0-0.843-0.689-1.533-1.533-1.533h-2.079c-0.844,0-1.533-0.455-1.534-1.013
			C25.703,75.722,26.394,75.267,27.237,75.267z M6.134,92.728c-0.557,0-1.013-0.456-1.012-1.013c0-0.556,0.455-1.012,1.012-1.012
			c0.556,0,1.012,0.456,1.012,1.012C7.146,92.271,6.69,92.728,6.134,92.728z M6.134,72.146c-0.557,0-1.012-0.456-1.012-1.012
			c0-0.557,0.455-1.012,1.012-1.012c0.556,0,1.012,0.455,1.012,1.012C7.146,71.689,6.69,72.146,6.134,72.146z M6.134,82.625
			L6.134,82.625c-0.662,0-1.201-0.538-1.201-1.2c0-0.319,0.125-0.621,0.353-0.848c0.227-0.228,0.528-0.352,0.848-0.352
			c0.662,0,1.2,0.538,1.2,1.2C7.334,82.086,6.795,82.625,6.134,82.625z M11.279,74.89c0.766,0,1.389,0.623,1.39,1.389
			c0,0.766-0.624,1.389-1.39,1.389S9.89,77.045,9.89,76.279S10.513,74.89,11.279,74.89z M11.279,87.958
			c-0.766,0-1.389-0.623-1.389-1.389s0.623-1.39,1.389-1.39s1.39,0.624,1.39,1.39S12.045,87.958,11.279,87.958z M11.279,83.002
			c-0.87,0-1.578-0.708-1.578-1.578c0-0.87,0.708-1.577,1.578-1.577l0,0c0.87,0,1.578,0.708,1.578,1.578
			C12.856,82.294,12.149,83.002,11.279,83.002z M15.576,70.286c0.227-0.228,0.529-0.353,0.848-0.353s0.621,0.125,0.848,0.353
			c0.228,0.227,0.352,0.528,0.352,0.848c0,0.661-0.538,1.2-1.2,1.2l0,0c-0.662,0-1.2-0.539-1.2-1.2
			C15.224,70.814,15.349,70.513,15.576,70.286z M16.424,74.701c0.87,0,1.579,0.708,1.579,1.578s-0.708,1.578-1.579,1.578
			c-0.42,0-0.816-0.164-1.115-0.462c-0.298-0.299-0.462-0.695-0.462-1.115C14.847,75.409,15.554,74.701,16.424,74.701z
			 M16.425,92.916L16.425,92.916c-0.663,0-1.201-0.539-1.201-1.201c0-0.662,0.538-1.2,1.2-1.2s1.2,0.539,1.2,1.201
			C17.625,92.377,17.086,92.916,16.425,92.916z M16.424,88.147c-0.87,0-1.577-0.708-1.577-1.578c0-0.87,0.708-1.578,1.578-1.578
			c0.87,0,1.578,0.708,1.578,1.578C18.002,87.439,17.294,88.146,16.424,88.147z M16.424,83.191c-0.974,0-1.766-0.793-1.766-1.767
			c0-0.974,0.792-1.767,1.766-1.767c0.974,0,1.767,0.792,1.767,1.767C18.191,82.398,17.398,83.191,16.424,83.191z M21.57,74.89
			L21.57,74.89c0.766,0,1.388,0.623,1.388,1.389s-0.623,1.389-1.389,1.389s-1.389-0.623-1.389-1.389S20.804,74.89,21.57,74.89z
			 M21.57,87.958c-0.37,0-0.719-0.145-0.981-0.407c-0.263-0.263-0.408-0.612-0.408-0.981c0-0.766,0.623-1.389,1.389-1.389
			c0.767,0,1.39,0.623,1.39,1.389S22.336,87.958,21.57,87.958z M21.57,83.002c-0.87,0-1.578-0.708-1.578-1.578
			s0.708-1.578,1.578-1.578s1.578,0.708,1.578,1.578S22.44,83.002,21.57,83.002z M26.715,90.703c0.557,0,1.013,0.456,1.013,1.013
			c0,0.556-0.455,1.012-1.012,1.012c-0.557-0.001-1.013-0.456-1.013-1.013C25.703,91.159,26.159,90.703,26.715,90.703z
			 M26.716,80.224c0.661,0,1.2,0.538,1.2,1.2s-0.539,1.2-1.2,1.2c-0.32,0-0.621-0.125-0.849-0.352
			c-0.227-0.228-0.353-0.529-0.353-0.848C25.515,80.762,26.053,80.224,26.716,80.224z M25.703,71.133
			c0-0.557,0.456-1.012,1.013-1.012s1.012,0.455,1.012,1.012s-0.455,1.013-1.012,1.013S25.703,71.689,25.703,71.133z"/>
		<path fill="#7C7C7C" d="M27.237,106.238h2.079c0.843,0,1.533-0.689,1.533-1.533v-5.2c0-0.843-0.689-1.533-1.533-1.533h-5.2
			c-0.844,0-1.534,0.69-1.534,1.533v2.079c0,0.844-0.455,1.533-1.012,1.533s-1.012-0.689-1.012-1.533v-2.079
			c0-0.843-0.69-1.533-1.534-1.533h-5.2c-0.843,0-1.534,0.69-1.534,1.533v2.079c0.001,0.844-0.455,1.533-1.012,1.533
			s-1.012-0.689-1.012-1.533v-2.079c0-0.843-0.69-1.532-1.533-1.532l-5.201-0.001C2.69,97.972,2,98.662,2,99.505v5.2
			c0,0.844,0.69,1.533,1.533,1.533h2.079c0.843,0,1.534,0.457,1.534,1.012c0,0.557-0.69,1.012-1.534,1.012H3.533
			c-0.843,0-1.533,0.691-1.533,1.535l0,5.199c0,0.844,0.689,1.533,1.533,1.533h2.08c0.843,0,1.533,0.455,1.533,1.012
			c0,0.557-0.691,1.012-1.533,1.012h-2.08c-0.843,0-1.533,0.691-1.533,1.535v5.199c0,0.844,0.69,1.533,1.533,1.533h5.201
			c0.843,0,1.533-0.689,1.533-1.533v-2.078c0-0.844,0.455-1.533,1.012-1.533s1.013,0.689,1.013,1.533v2.078
			c0,0.844,0.69,1.533,1.533,1.533h5.199c0.844,0,1.534-0.689,1.534-1.533v-2.078c0-0.844,0.455-1.533,1.012-1.533
			c0.557,0,1.012,0.689,1.012,1.533l0,2.078c0,0.844,0.69,1.533,1.533,1.533h5.201c0.844,0,1.533-0.689,1.533-1.533v-5.201
			c0-0.842-0.689-1.533-1.533-1.533h-2.079c-0.844,0-1.534-0.455-1.534-1.012c0-0.555,0.69-1.012,1.534-1.012h2.079
			c0.844,0,1.533-0.689,1.533-1.533v-5.199c0-0.844-0.689-1.535-1.533-1.535h-2.079c-0.843,0-1.533-0.455-1.534-1.012
			C25.703,106.693,26.393,106.238,27.237,106.238z M6.134,103.117c-0.557,0-1.012-0.455-1.012-1.012s0.455-1.012,1.012-1.012
			c0.556,0,1.012,0.455,1.012,1.012S6.69,103.117,6.134,103.117z M6.134,123.699c-0.558,0-1.013-0.455-1.013-1.012
			s0.455-1.012,1.013-1.012c0.556,0,1.012,0.455,1.012,1.012S6.69,123.699,6.134,123.699z M6.134,113.596L6.134,113.596
			c-0.662,0-1.201-0.537-1.201-1.199c0-0.32,0.125-0.621,0.353-0.848c0.227-0.229,0.528-0.354,0.848-0.354
			c0.662,0,1.2,0.539,1.2,1.201S6.795,113.596,6.134,113.596z M11.279,105.861c0.766,0,1.389,0.623,1.389,1.389
			c0,0.768-0.623,1.391-1.389,1.391s-1.389-0.623-1.39-1.391C9.889,106.484,10.513,105.861,11.279,105.861z M11.279,118.93
			c-0.766,0-1.389-0.623-1.389-1.389s0.623-1.389,1.389-1.389s1.389,0.623,1.389,1.389S12.045,118.93,11.279,118.93z
			 M11.279,113.975c-0.87,0-1.578-0.709-1.578-1.578c0-0.871,0.708-1.578,1.578-1.578h0c0.87,0,1.578,0.707,1.578,1.578
			C12.856,113.266,12.148,113.975,11.279,113.975z M15.576,101.258c0.227-0.228,0.529-0.354,0.848-0.354s0.62,0.126,0.848,0.354
			c0.227,0.227,0.352,0.527,0.352,0.848c0,0.661-0.538,1.2-1.2,1.2h0c-0.662,0-1.2-0.538-1.2-1.2
			C15.224,101.785,15.349,101.484,15.576,101.258z M16.424,105.674c0.87,0,1.578,0.707,1.578,1.576c0,0.871-0.708,1.578-1.578,1.578
			c-0.42,0-0.816-0.164-1.115-0.463s-0.463-0.693-0.462-1.115C14.847,106.381,15.554,105.674,16.424,105.674z M16.424,123.889
			L16.424,123.889c-0.662,0-1.2-0.539-1.2-1.201s0.538-1.201,1.2-1.201s1.2,0.539,1.2,1.201S17.086,123.889,16.424,123.889z
			 M16.424,119.119c-0.87,0-1.577-0.707-1.577-1.578c0-0.869,0.708-1.576,1.578-1.576s1.578,0.707,1.578,1.576
			S17.294,119.119,16.424,119.119z M16.424,114.162c-0.974,0-1.767-0.791-1.767-1.766s0.792-1.768,1.767-1.768
			s1.767,0.793,1.767,1.768S17.398,114.162,16.424,114.162z M21.57,105.861L21.57,105.861c0.766,0,1.389,0.623,1.389,1.389
			c0,0.768-0.623,1.391-1.389,1.391s-1.389-0.623-1.389-1.391C20.181,106.484,20.804,105.861,21.57,105.861z M21.57,118.93
			c-0.37,0-0.719-0.145-0.982-0.406c-0.262-0.264-0.407-0.611-0.407-0.982c0-0.766,0.623-1.389,1.389-1.389s1.389,0.623,1.389,1.389
			S22.336,118.93,21.57,118.93z M21.57,113.975c-0.87,0-1.578-0.709-1.578-1.578s0.708-1.578,1.578-1.578s1.578,0.709,1.578,1.578
			S22.44,113.975,21.57,113.975z M26.715,121.676c0.557,0,1.012,0.455,1.012,1.012c0.001,0.557-0.455,1.012-1.012,1.012
			c-0.556,0-1.012-0.455-1.012-1.012S26.159,121.676,26.715,121.676z M26.715,111.195c0.662,0,1.201,0.539,1.201,1.201
			s-0.539,1.199-1.201,1.199c-0.319,0-0.62-0.125-0.848-0.352s-0.353-0.529-0.353-0.848
			C25.515,111.734,26.053,111.195,26.715,111.195z M25.703,102.104c0-0.556,0.456-1.012,1.012-1.012
			c0.557,0,1.013,0.456,1.013,1.012c0,0.558-0.456,1.013-1.012,1.013C26.159,103.117,25.703,102.661,25.703,102.104z"/>
		<path fill="#BABABA" d="M58.209,106.238h2.079c0.843,0,1.533-0.689,1.533-1.533v-5.2c0-0.843-0.69-1.533-1.533-1.533h-5.201
			c-0.843,0-1.533,0.69-1.533,1.533v2.079c0,0.844-0.455,1.533-1.012,1.533s-1.013-0.689-1.013-1.533v-2.079
			c0.001-0.843-0.689-1.533-1.533-1.533h-5.2c-0.843,0-1.534,0.69-1.534,1.533v2.079c0,0.844-0.455,1.533-1.012,1.533
			s-1.012-0.689-1.012-1.533v-2.079c0-0.843-0.69-1.532-1.533-1.532l-5.201-0.001c-0.843,0-1.533,0.69-1.533,1.533v5.2
			c0,0.844,0.69,1.533,1.533,1.533h2.079c0.843,0,1.534,0.457,1.534,1.012c0,0.557-0.69,1.012-1.534,1.012h-2.079
			c-0.843,0-1.533,0.691-1.533,1.535v5.199c0,0.844,0.69,1.533,1.533,1.533h2.08c0.843,0,1.533,0.455,1.533,1.012
			s-0.689,1.012-1.534,1.012h-2.079c-0.843,0-1.533,0.691-1.533,1.535v5.199c0,0.844,0.69,1.533,1.533,1.533h5.201
			c0.843,0,1.533-0.689,1.533-1.533v-2.078c0-0.844,0.455-1.533,1.012-1.533s1.012,0.689,1.012,1.533v2.078
			c0,0.844,0.69,1.533,1.534,1.533h5.2c0.843,0,1.533-0.689,1.533-1.533v-2.078c0-0.844,0.456-1.533,1.013-1.533
			s1.012,0.689,1.012,1.533v2.078c0,0.844,0.689,1.533,1.533,1.533h5.201c0.843,0,1.533-0.689,1.533-1.533v-5.201
			c0-0.842-0.69-1.533-1.533-1.533h-2.079c-0.843,0-1.534-0.455-1.534-1.012c0-0.555,0.69-1.012,1.534-1.012h2.079
			c0.843,0,1.533-0.689,1.533-1.533v-5.199c0-0.844-0.69-1.535-1.533-1.535h-2.079c-0.843,0-1.534-0.455-1.534-1.012
			S57.366,106.238,58.209,106.238z M37.106,123.699c-0.557,0-1.012-0.455-1.012-1.012s0.455-1.012,1.012-1.012
			c0.556,0,1.012,0.455,1.012,1.012S37.662,123.699,37.106,123.699z M37.106,103.117c-0.557,0-1.012-0.455-1.012-1.012
			s0.455-1.012,1.012-1.012c0.556,0,1.012,0.455,1.012,1.012S37.662,103.117,37.106,103.117z M37.106,113.596L37.106,113.596
			c-0.662,0-1.201-0.537-1.201-1.199c0-0.32,0.125-0.621,0.353-0.848c0.227-0.229,0.528-0.354,0.848-0.354
			c0.662,0,1.2,0.539,1.2,1.201S37.768,113.596,37.106,113.596z M42.251,105.861c0.766,0,1.389,0.623,1.389,1.389
			c0,0.768-0.623,1.391-1.389,1.391s-1.39-0.623-1.39-1.391C40.861,106.484,41.485,105.861,42.251,105.861z M42.251,118.93
			c-0.766,0-1.389-0.623-1.389-1.389s0.623-1.389,1.389-1.389s1.389,0.623,1.389,1.389S43.017,118.93,42.251,118.93z
			 M42.251,113.975c-0.87,0-1.578-0.709-1.578-1.578c0-0.871,0.708-1.578,1.577-1.578h0c0.87,0,1.578,0.707,1.578,1.578
			C43.829,113.266,43.121,113.975,42.251,113.975z M46.548,101.258c0.227-0.228,0.529-0.354,0.848-0.354s0.621,0.126,0.848,0.354
			c0.228,0.227,0.352,0.527,0.352,0.848c0,0.661-0.538,1.2-1.2,1.2l0,0c-0.662,0-1.2-0.538-1.2-1.2
			C46.196,101.785,46.321,101.484,46.548,101.258z M47.396,105.674c0.87,0,1.578,0.707,1.578,1.576c0,0.871-0.708,1.578-1.578,1.578
			c-0.42,0-0.816-0.164-1.115-0.463s-0.463-0.693-0.462-1.115C45.819,106.381,46.526,105.674,47.396,105.674z M47.397,123.889
			L47.397,123.889c-0.662,0-1.201-0.539-1.201-1.201s0.538-1.201,1.2-1.201s1.2,0.539,1.2,1.201S48.059,123.889,47.397,123.889z
			 M47.396,119.119c-0.87,0-1.578-0.707-1.578-1.578c0-0.869,0.708-1.576,1.578-1.576s1.578,0.707,1.578,1.576
			S48.267,119.119,47.396,119.119z M47.396,114.162c-0.974,0-1.767-0.791-1.767-1.766s0.793-1.768,1.767-1.768
			c0.974,0,1.767,0.793,1.767,1.768S48.371,114.162,47.396,114.162z M52.542,105.861L52.542,105.861
			c0.766,0,1.388,0.623,1.388,1.389c0,0.768-0.623,1.391-1.389,1.391s-1.39-0.623-1.39-1.391
			C51.153,106.484,51.776,105.861,52.542,105.861z M52.542,118.93c-0.371,0-0.719-0.145-0.982-0.406
			c-0.263-0.264-0.408-0.611-0.408-0.982c0-0.766,0.623-1.389,1.39-1.389c0.766,0,1.389,0.623,1.389,1.389
			S53.308,118.93,52.542,118.93z M52.542,113.975c-0.87,0-1.578-0.709-1.578-1.578s0.708-1.578,1.578-1.578s1.578,0.709,1.578,1.578
			S53.412,113.975,52.542,113.975z M57.687,121.676c0.557,0,1.012,0.455,1.012,1.012s-0.455,1.012-1.012,1.012
			c-0.556,0-1.012-0.455-1.012-1.012S57.131,121.676,57.687,121.676z M57.687,111.195c0.663,0,1.201,0.539,1.201,1.201
			s-0.539,1.199-1.201,1.199c-0.319,0-0.62-0.125-0.848-0.352s-0.353-0.529-0.353-0.848
			C56.487,111.734,57.025,111.195,57.687,111.195z M57.687,101.093c0.557,0,1.012,0.456,1.012,1.012
			c0,0.558-0.455,1.013-1.012,1.013c-0.556,0-1.012-0.456-1.012-1.013C56.675,101.549,57.131,101.093,57.687,101.093z"/>
		<path fill="#949494" d="M58.209,75.267h2.079c0.843,0,1.533-0.69,1.533-1.533v-5.201c0-0.843-0.69-1.533-1.533-1.533h-5.201
			c-0.843,0-1.533,0.69-1.533,1.533v2.08c0,0.843-0.455,1.533-1.012,1.533s-1.013-0.689-1.013-1.533v-2.079
			C51.53,67.69,50.84,67,49.997,67h-5.2c-0.843,0-1.534,0.689-1.534,1.533v2.08c0,0.843-0.455,1.533-1.012,1.533
			s-1.012-0.689-1.012-1.533v-2.079c0-0.843-0.69-1.534-1.533-1.534h-5.201c-0.843,0-1.533,0.689-1.533,1.534v5.2
			c0,0.843,0.69,1.534,1.533,1.534h2.079c0.843,0,1.534,0.455,1.534,1.012s-0.69,1.012-1.534,1.012h-2.079
			c-0.843,0-1.533,0.69-1.533,1.533v5.201c0,0.842,0.69,1.533,1.533,1.533h2.08c0.843,0,1.533,0.455,1.533,1.012
			s-0.689,1.012-1.534,1.012h-2.079c-0.843,0-1.533,0.69-1.533,1.534v5.2c0,0.843,0.69,1.533,1.533,1.533h5.201
			c0.843,0,1.533-0.69,1.533-1.533v-2.079c0-0.843,0.455-1.533,1.012-1.533s1.012,0.69,1.012,1.533v2.079
			c0,0.843,0.69,1.533,1.534,1.533h5.2c0.843,0,1.533-0.689,1.533-1.533v-2.079c0-0.843,0.456-1.533,1.013-1.533
			s1.012,0.69,1.012,1.533v2.079c0,0.843,0.689,1.533,1.533,1.533h5.201c0.843,0,1.533-0.69,1.533-1.533v-5.2
			c0-0.844-0.69-1.534-1.533-1.534h-2.079c-0.843,0-1.534-0.455-1.534-1.012s0.69-1.012,1.534-1.012h2.079
			c0.843,0,1.533-0.69,1.533-1.534v-5.2c0-0.843-0.69-1.533-1.533-1.533h-2.079c-0.843,0-1.534-0.455-1.534-1.012
			S57.366,75.267,58.209,75.267z M37.106,92.728c-0.557,0-1.012-0.456-1.012-1.013c0-0.556,0.455-1.012,1.012-1.012
			c0.556,0,1.012,0.456,1.012,1.012C38.118,92.271,37.662,92.728,37.106,92.728z M37.106,72.146c-0.557,0-1.012-0.456-1.012-1.012
			c0-0.557,0.455-1.012,1.012-1.012c0.556,0,1.012,0.455,1.012,1.012C38.118,71.69,37.662,72.146,37.106,72.146z M37.106,82.625
			L37.106,82.625c-0.662,0-1.201-0.538-1.201-1.2c0-0.319,0.125-0.621,0.353-0.848c0.227-0.228,0.528-0.352,0.848-0.352
			c0.662,0,1.2,0.538,1.2,1.2S37.768,82.625,37.106,82.625z M42.251,74.89c0.766,0,1.389,0.623,1.389,1.389
			s-0.623,1.389-1.389,1.389s-1.389-0.623-1.39-1.389C40.861,75.513,41.485,74.89,42.251,74.89z M42.251,87.958
			c-0.766,0-1.389-0.623-1.389-1.389s0.623-1.389,1.389-1.389s1.389,0.623,1.389,1.389S43.017,87.958,42.251,87.958z M42.251,83.002
			c-0.87,0-1.578-0.708-1.578-1.578c0-0.87,0.708-1.578,1.577-1.578h0c0.87,0,1.578,0.708,1.578,1.578
			C43.829,82.294,43.121,83.002,42.251,83.002z M46.548,70.286c0.227-0.228,0.529-0.353,0.848-0.353s0.621,0.125,0.848,0.353
			c0.228,0.227,0.352,0.528,0.352,0.848c0,0.661-0.538,1.2-1.2,1.2l0,0c-0.662,0-1.2-0.539-1.2-1.2
			C46.196,70.814,46.321,70.513,46.548,70.286z M47.396,74.701c0.871,0,1.578,0.708,1.578,1.578s-0.708,1.578-1.578,1.578
			c-0.42,0-0.816-0.164-1.115-0.462s-0.462-0.695-0.462-1.115C45.819,75.409,46.526,74.701,47.396,74.701z M47.397,92.916
			L47.397,92.916c-0.662,0-1.201-0.539-1.201-1.2c0-0.663,0.538-1.201,1.2-1.201s1.2,0.539,1.2,1.201
			C48.597,92.377,48.059,92.916,47.397,92.916z M47.396,88.147c-0.87,0-1.578-0.708-1.578-1.578s0.708-1.578,1.578-1.578
			c0.87,0,1.578,0.708,1.578,1.578C48.974,87.439,48.267,88.146,47.396,88.147z M47.396,83.191c-0.974,0-1.767-0.792-1.767-1.767
			s0.793-1.767,1.767-1.767c0.974,0,1.767,0.792,1.767,1.767S48.371,83.191,47.396,83.191z M52.542,74.89L52.542,74.89
			c0.766,0,1.389,0.623,1.389,1.389s-0.624,1.39-1.39,1.39s-1.39-0.624-1.39-1.39C51.153,75.513,51.776,74.89,52.542,74.89z
			 M52.542,87.958c-0.371,0-0.719-0.145-0.982-0.407c-0.263-0.263-0.408-0.612-0.408-0.981c0-0.766,0.623-1.389,1.39-1.389
			c0.766,0,1.389,0.623,1.389,1.389S53.308,87.958,52.542,87.958z M52.542,83.002c-0.87,0-1.578-0.708-1.578-1.578
			c0-0.87,0.708-1.578,1.578-1.578s1.578,0.708,1.578,1.578C54.12,82.294,53.412,83.002,52.542,83.002z M57.687,90.703
			c0.557,0,1.012,0.456,1.012,1.013s-0.455,1.012-1.012,1.012c-0.556,0-1.012-0.456-1.012-1.013
			C56.675,91.159,57.131,90.703,57.687,90.703z M57.687,80.224c0.663,0,1.201,0.538,1.201,1.2s-0.539,1.2-1.201,1.2
			c-0.319,0-0.62-0.125-0.848-0.352c-0.228-0.227-0.353-0.529-0.353-0.848C56.487,80.762,57.025,80.224,57.687,80.224z
			 M57.687,70.121c0.557,0,1.012,0.456,1.012,1.013c0,0.556-0.455,1.012-1.011,1.012c-0.557,0-1.013-0.456-1.013-1.012
			C56.675,70.577,57.131,70.121,57.687,70.121z"/>
	</g>
	<g>
		<path fill="#777777" d="M173.447,76.884c0.707-0.107,1.471,0.134,1.941,0.688c0.549,0.605,0.648,1.57,0.244,2.277
			c-0.453,0.798-1.459,1.169-2.336,0.978c-0.91-0.164-1.668-1.01-1.629-1.954C171.645,77.88,172.473,76.995,173.447,76.884
			L173.447,76.884z"/>
		<path fill="#777777" d="M248.518,76.679c1.496-0.972,3.428-1.063,5.111-0.6c0.016,1.001,0,2.003,0.008,3.004
			c-0.801-0.352-1.742-0.581-2.586-0.236c-0.668,0.266-1.064,0.951-1.168,1.637c-0.127,0.869-0.043,1.75-0.064,2.625
			c1.709,0.004,3.418,0.001,5.127,0.002c0.014-1.11-0.012-2.221,0.016-3.331c1.162-0.331,2.313-0.702,3.469-1.051
			c0.012,1.462-0.014,2.926,0.014,4.39c1.156-0.017,2.311-0.004,3.469-0.008v2.847c-1.16-0.048-2.322-0.013-3.484-0.016
			c0.006,1.636,0.002,3.274,0.002,4.911c0.021,0.907-0.047,1.818,0.059,2.722c0.064,0.532,0.258,1.123,0.758,1.398
			c0.838,0.468,1.898,0.264,2.666-0.25v2.875c-1.002,0.436-2.123,0.568-3.205,0.492c-1.027-0.076-2.092-0.451-2.766-1.27
			c-0.773-0.923-0.973-2.174-0.99-3.345c-0.008-2.513,0.002-5.024-0.004-7.538c-1.709-0.001-3.42-0.002-5.129,0.001
			c-0.002,3.942-0.002,7.886-0.002,11.827c-1.17,0-2.338,0-3.506,0c0-3.941-0.004-7.881,0.002-11.823
			c-0.814-0.015-1.627,0.004-2.441-0.013c0.004-0.936,0.008-1.873-0.002-2.809c0.809-0.019,1.619-0.011,2.432-0.005
			c0.059-1.244-0.131-2.525,0.24-3.737C246.855,78.284,247.555,77.297,248.518,76.679L248.518,76.679z"/>
		<path fill="#777777" d="M146.576,77.318c1.699,0,3.398,0,5.1,0c1.586,4.03,3.186,8.056,4.773,12.087
			c0.406,1.008,0.785,2.027,1.211,3.028c2.043-5.037,4.113-10.06,6.141-15.103c1.635-0.026,3.271-0.005,4.906-0.01
			c-0.004,6.816-0.004,13.631-0.002,20.446c-1.18-0.002-2.357,0.01-3.537-0.008c0.012-5.028-0.002-10.058,0.004-15.088
			c0.002-0.226-0.004-0.452-0.02-0.678c-0.068,0.105-0.131,0.214-0.184,0.327c-2.027,5.148-4.092,10.281-6.105,15.435
			c-0.842,0.029-1.68,0.002-2.521,0.016c-2.09-5.148-4.154-10.308-6.234-15.459c-0.055-0.107-0.111-0.211-0.176-0.312
			c-0.045,2.204-0.008,4.409-0.02,6.612c0,3.052-0.002,6.104,0,9.155c-1.113,0.004-2.225,0-3.336,0
			C146.574,90.951,146.574,84.135,146.576,77.318L146.576,77.318z"/>
		<path fill="#777777" d="M183.096,83.098c1.693-0.482,3.518-0.463,5.209,0.015c0.35,0.097,0.686,0.233,1,0.417
			c-0.02,1.116,0,2.234-0.01,3.352c-1.131-0.864-2.564-1.411-4.002-1.229c-1.141,0.103-2.23,0.696-2.912,1.617
			c-0.879,1.144-1.08,2.661-0.93,4.06c0.113,1.095,0.566,2.188,1.416,2.914c0.887,0.785,2.125,1.063,3.281,0.976
			c1.145-0.131,2.221-0.616,3.146-1.291c0.01,1.058-0.006,2.117,0.008,3.175c-1.434,0.852-3.154,1.074-4.793,0.992
			c-1.68-0.09-3.352-0.725-4.568-1.904c-1.32-1.273-2.037-3.089-2.121-4.907c-0.086-1.889,0.299-3.861,1.387-5.439
			C180.117,84.499,181.545,83.545,183.096,83.098L183.096,83.098z"/>
		<path fill="#777777" d="M221.396,82.874c1.623-0.285,3.32-0.075,4.854,0.506c0.004,1.074,0,2.148,0.002,3.223
			c-1.072-0.737-2.381-1.133-3.682-1.087c-0.656,0.025-1.377,0.303-1.674,0.926c-0.24,0.617-0.076,1.425,0.506,1.794
			c0.994,0.665,2.18,0.948,3.211,1.543c0.811,0.456,1.6,1.051,2.008,1.91c0.771,1.609,0.445,3.734-0.912,4.934
			c-1.295,1.211-3.162,1.545-4.879,1.481c-1.219-0.078-2.443-0.318-3.564-0.817c0.006-1.13-0.008-2.26,0.006-3.39
			c0.943,0.685,2.029,1.174,3.182,1.373c0.801,0.131,1.672,0.137,2.418-0.222c0.717-0.354,0.844-1.371,0.42-1.992
			c-0.396-0.478-0.98-0.743-1.529-1.002c-1.035-0.464-2.121-0.853-3.027-1.548c-0.639-0.498-1.121-1.199-1.311-1.989
			c-0.279-1.166-0.191-2.48,0.482-3.499C218.682,83.831,220.027,83.119,221.396,82.874L221.396,82.874z"/>
		<path fill="#777777" d="M197.145,83.336c0.969-0.582,2.199-0.63,3.256-0.274c-0.004,1.169,0,2.338-0.002,3.508
			c-0.693-0.448-1.555-0.64-2.373-0.557c-0.994,0.113-1.781,0.877-2.191,1.754c-0.445,0.927-0.529,1.977-0.5,2.992
			c0,2.337,0.002,4.672,0,7.007c-1.152,0-2.305,0-3.457,0c-0.004-4.882,0.004-9.765-0.004-14.646
			c1.154-0.015,2.311-0.009,3.465-0.003c-0.006,0.839,0,1.677-0.004,2.516C195.707,84.719,196.266,83.834,197.145,83.336
			L197.145,83.336z"/>
		<path fill="#777777" d="M171.988,83.116c1.162-0.005,2.326-0.016,3.488,0.005c-0.014,4.882,0,9.764-0.006,14.645
			c-1.16,0-2.322,0-3.48,0C171.988,92.883,171.99,88,171.988,83.116L171.988,83.116z"/>
		<path fill="#777777" d="M214.934,86.533c-0.605-1.354-1.707-2.483-3.063-3.096c-1.561-0.71-3.338-0.806-5.018-0.592
			c-1.768,0.223-3.488,1.055-4.609,2.463c-1.025,1.258-1.523,2.875-1.619,4.478c-0.141,1.891,0.174,3.896,1.283,5.474
			c0.947,1.361,2.438,2.296,4.053,2.642c1.346,0.283,2.756,0.283,4.104,0.002c1.576-0.324,3.049-1.195,4.025-2.482
			c0.955-1.212,1.434-2.741,1.541-4.267C215.742,89.593,215.584,87.974,214.934,86.533z M211.549,93.26
			c-0.338,0.753-0.949,1.39-1.723,1.691c-0.906,0.348-1.924,0.368-2.859,0.126c-0.951-0.25-1.758-0.938-2.197-1.813
			c-0.564-1.127-0.65-2.431-0.531-3.667c0.104-1.125,0.496-2.282,1.354-3.058c0.621-0.581,1.469-0.864,2.307-0.911
			c1.055-0.069,2.176,0.23,2.932,0.996c0.811,0.796,1.125,1.952,1.211,3.054C212.104,90.884,212.053,92.141,211.549,93.26z"/>
		<path fill="#777777" d="M243.014,86.956c-0.537-1.455-1.617-2.713-3.01-3.409c-1.596-0.807-3.455-0.924-5.205-0.708
			c-1.41,0.182-2.797,0.716-3.873,1.662c-1.316,1.132-2.086,2.797-2.314,4.501c-0.215,1.703-0.143,3.497,0.551,5.091
			c0.666,1.563,1.984,2.833,3.563,3.455c1.561,0.615,3.297,0.684,4.941,0.418c1.678-0.277,3.27-1.16,4.309-2.519
			c1.111-1.405,1.59-3.222,1.588-4.993C243.584,89.271,243.438,88.069,243.014,86.956z M239.854,91.924
			c-0.135,0.771-0.402,1.541-0.906,2.151c-0.512,0.613-1.27,0.987-2.051,1.102c-0.84,0.125-1.723,0.065-2.508-0.272
			c-0.848-0.358-1.504-1.092-1.848-1.935c-0.416-1.005-0.5-2.118-0.416-3.193c0.08-1.041,0.375-2.109,1.061-2.918
			c0.627-0.756,1.592-1.173,2.561-1.228c0.99-0.069,2.047,0.16,2.809,0.829c0.701,0.583,1.09,1.455,1.27,2.333
			C240.025,89.822,240.023,90.889,239.854,91.924z"/>
	</g>
	<g>
		<path fill="#919191" d="M81.983,97.767l-8.69-9.756c-0.161-0.18-0.275-0.336-0.341-0.47h-0.057v10.226h-1.408V77.371h1.408v9.615
			h0.057c0.114-0.199,0.237-0.365,0.37-0.498l8.25-9.117h1.835l-8.946,9.885l9.501,10.51H81.983z"/>
		<path fill="#919191" d="M86.279,90.542c0,2,0.462,3.565,1.387,4.693s2.192,1.692,3.805,1.692c1.631,0,3.224-0.602,4.779-1.806
			v1.394c-1.507,1.071-3.191,1.606-5.049,1.606c-1.877,0-3.395-0.673-4.551-2.019s-1.735-3.248-1.735-5.704
			c0-2.124,0.604-3.914,1.813-5.369c1.208-1.455,2.78-2.183,4.715-2.183c1.811,0,3.2,0.635,4.167,1.906
			c0.967,1.271,1.451,3.006,1.451,5.206v0.583H86.279z M95.694,89.347c-0.057-1.678-0.46-2.982-1.209-3.912
			c-0.749-0.929-1.783-1.394-3.101-1.394c-1.365,0-2.496,0.458-3.392,1.373s-1.449,2.226-1.657,3.933H95.694z"/>
		<path fill="#919191" d="M107.542,84.568c-0.436-0.313-0.947-0.47-1.535-0.47c-1.148,0-2.109,0.593-2.887,1.778
			c-0.779,1.186-1.168,2.869-1.168,5.049v6.841h-1.279V83.203h1.279v3.229h0.059c0.33-1.109,0.857-1.972,1.578-2.588
			c0.721-0.616,1.555-0.924,2.504-0.924c0.539,0,1.023,0.085,1.449,0.256V84.568z"/>
		<path fill="#919191" d="M118.992,97.767v-2.915h-0.057c-0.465,0.996-1.141,1.79-2.027,2.382c-0.887,0.593-1.87,0.889-2.951,0.889
			c-1.385,0-2.479-0.389-3.285-1.166c-0.807-0.777-1.209-1.759-1.209-2.944c0-2.541,1.683-4.077,5.049-4.608l4.48-0.668
			c0-3.129-1.176-4.693-3.527-4.693c-1.603,0-3.162,0.645-4.68,1.934v-1.579c0.541-0.427,1.273-0.792,2.198-1.095
			c0.924-0.303,1.794-0.455,2.609-0.455c1.498,0,2.657,0.465,3.478,1.394s1.23,2.28,1.23,4.053v9.472H118.992z M114.981,90.513
			c-1.527,0.218-2.599,0.571-3.215,1.06c-0.616,0.489-0.924,1.283-0.924,2.382c0,0.863,0.286,1.574,0.86,2.134
			c0.573,0.56,1.372,0.839,2.396,0.839c1.403,0,2.569-0.519,3.499-1.557c0.929-1.039,1.394-2.377,1.394-4.018V89.93L114.981,90.513z
			"/>
		<path fill="#919191" d="M124.681,97.767V76.205h1.308v21.562H124.681z"/>
		<path fill="#919191" d="M139.359,97.767v-2.915h-0.057c-0.465,0.996-1.141,1.79-2.027,2.382c-0.887,0.593-1.871,0.889-2.951,0.889
			c-1.385,0-2.48-0.389-3.286-1.166c-0.807-0.777-1.209-1.759-1.209-2.944c0-2.541,1.683-4.077,5.049-4.608l4.48-0.668
			c0-3.129-1.176-4.693-3.527-4.693c-1.604,0-3.163,0.645-4.68,1.934v-1.579c0.541-0.427,1.273-0.792,2.198-1.095
			c0.924-0.303,1.795-0.455,2.609-0.455c1.498,0,2.658,0.465,3.479,1.394s1.23,2.28,1.23,4.053v9.472H139.359z M135.348,90.513
			c-1.527,0.218-2.598,0.571-3.214,1.06c-0.616,0.489-0.924,1.283-0.924,2.382c0,0.863,0.286,1.574,0.86,2.134
			c0.573,0.56,1.372,0.839,2.397,0.839c1.402,0,2.568-0.519,3.498-1.557c0.93-1.039,1.395-2.377,1.395-4.018V89.93L135.348,90.513z"
			/>
	</g>
	<g>
		<path fill="#919191" d="M82.596,109.711c0,4.424-1.886,6.635-5.659,6.635c-3.587,0-5.381-2.13-5.381-6.391v-9.797h1.087v9.642
			c0,3.691,1.501,5.536,4.504,5.536c2.907,0,4.36-1.793,4.36-5.381v-9.797h1.087V109.711z"/>
		<path fill="#919191" d="M85.668,115.569v-1.231c0.385,0.333,0.851,0.596,1.398,0.788s1.021,0.288,1.42,0.288
			c1.782,0,2.674-0.729,2.674-2.186c0-0.503-0.196-0.933-0.588-1.287c-0.392-0.355-1.028-0.722-1.908-1.099
			c-1.087-0.473-1.851-0.963-2.291-1.47s-0.66-1.122-0.66-1.848c0-0.925,0.353-1.671,1.06-2.241
			c0.706-0.569,1.577-0.854,2.613-0.854c0.977,0,1.812,0.2,2.507,0.6v1.153c-0.843-0.547-1.716-0.82-2.618-0.82
			c-0.747,0-1.35,0.194-1.809,0.582c-0.458,0.389-0.688,0.894-0.688,1.515c0,0.54,0.145,0.979,0.433,1.314
			c0.288,0.337,0.924,0.724,1.908,1.16c1.183,0.532,1.997,1.025,2.441,1.48s0.666,1.06,0.666,1.814c0,0.902-0.338,1.647-1.015,2.235
			s-1.611,0.882-2.801,0.882C87.314,116.346,86.401,116.087,85.668,115.569z"/>
		<path fill="#919191" d="M95.321,110.433c0,1.561,0.361,2.781,1.082,3.661s1.71,1.32,2.968,1.32c1.272,0,2.514-0.47,3.727-1.409
			v1.087c-1.176,0.836-2.488,1.254-3.938,1.254c-1.464,0-2.648-0.524-3.55-1.575c-0.902-1.05-1.354-2.533-1.354-4.449
			c0-1.656,0.472-3.053,1.415-4.188c0.943-1.135,2.169-1.703,3.678-1.703c1.413,0,2.497,0.496,3.251,1.487s1.131,2.345,1.131,4.061
			v0.455H95.321z M102.667,109.5c-0.045-1.309-0.359-2.325-0.943-3.051c-0.584-0.725-1.391-1.087-2.418-1.087
			c-1.065,0-1.947,0.356-2.646,1.07c-0.699,0.714-1.13,1.736-1.292,3.067H102.667z"/>
		<path fill="#919191" d="M111.909,105.772c-0.341-0.244-0.74-0.366-1.198-0.366c-0.896,0-1.646,0.463-2.253,1.387
			c-0.606,0.925-0.909,2.238-0.909,3.939v5.336h-0.999v-11.361h0.999v2.519h0.044c0.259-0.865,0.67-1.538,1.231-2.019
			c0.563-0.481,1.213-0.722,1.953-0.722c0.422,0,0.799,0.066,1.132,0.2V105.772z"/>
		<path fill="#919191" d="M113.683,115.569v-1.231c0.385,0.333,0.851,0.596,1.398,0.788c0.547,0.192,1.021,0.288,1.42,0.288
			c1.782,0,2.674-0.729,2.674-2.186c0-0.503-0.196-0.933-0.588-1.287c-0.393-0.355-1.028-0.722-1.908-1.099
			c-1.088-0.473-1.852-0.963-2.291-1.47c-0.44-0.507-0.66-1.122-0.66-1.848c0-0.925,0.353-1.671,1.06-2.241
			c0.706-0.569,1.577-0.854,2.612-0.854c0.977,0,1.813,0.2,2.508,0.6v1.153c-0.844-0.547-1.717-0.82-2.619-0.82
			c-0.747,0-1.35,0.194-1.808,0.582c-0.459,0.389-0.688,0.894-0.688,1.515c0,0.54,0.145,0.979,0.433,1.314
			c0.289,0.337,0.925,0.724,1.908,1.16c1.184,0.532,1.997,1.025,2.441,1.48c0.443,0.455,0.666,1.06,0.666,1.814
			c0,0.902-0.339,1.647-1.016,2.235s-1.61,0.882-2.802,0.882C115.329,116.346,114.416,116.087,113.683,115.569z"/>
		<path fill="#919191" d="M141.043,114.959c-1.641,0.925-3.332,1.387-5.07,1.387c-2.166,0-3.919-0.735-5.258-2.208
			c-1.339-1.472-2.009-3.402-2.009-5.791c0-2.411,0.722-4.423,2.164-6.036c1.442-1.612,3.369-2.418,5.781-2.418
			c1.396,0,2.754,0.281,4.07,0.843v1.198c-1.441-0.695-2.85-1.043-4.227-1.043c-2.004,0-3.615,0.685-4.832,2.053
			s-1.825,3.114-1.825,5.236c0,2.234,0.571,3.985,1.715,5.254c1.143,1.269,2.682,1.902,4.62,1.902c1.436,0,2.693-0.311,3.773-0.932
			v-5.248h-3.75v-0.998h4.848V114.959z"/>
		<path fill="#919191" d="M149.854,105.772c-0.342-0.244-0.74-0.366-1.199-0.366c-0.895,0-1.646,0.463-2.252,1.387
			c-0.607,0.925-0.91,2.238-0.91,3.939v5.336h-0.998v-11.361h0.998v2.519h0.045c0.258-0.865,0.67-1.538,1.23-2.019
			c0.563-0.481,1.213-0.722,1.953-0.722c0.422,0,0.799,0.066,1.133,0.2V105.772z"/>
		<path fill="#919191" d="M156.1,116.346c-1.658,0-2.969-0.545-3.934-1.636c-0.965-1.092-1.447-2.51-1.447-4.255
			c0-1.887,0.504-3.362,1.514-4.428c1.01-1.064,2.34-1.598,3.988-1.598c1.619,0,2.9,0.529,3.84,1.587
			c0.938,1.058,1.408,2.522,1.408,4.394c0,1.768-0.479,3.199-1.438,4.294C159.074,115.799,157.764,116.346,156.1,116.346z
			 M156.176,105.362c-1.338,0-2.404,0.451-3.201,1.354c-0.795,0.902-1.191,2.156-1.191,3.761c0,1.487,0.389,2.682,1.164,3.584
			c0.777,0.902,1.838,1.354,3.186,1.354c1.367,0,2.422-0.444,3.162-1.331c0.738-0.888,1.109-2.119,1.109-3.695
			c0-1.619-0.369-2.862-1.105-3.728C158.564,105.795,157.523,105.362,156.176,105.362z"/>
		<path fill="#919191" d="M171.787,116.068v-2.063h-0.045c-0.791,1.561-2.012,2.341-3.66,2.341c-2.686,0-4.027-1.689-4.027-5.07
			v-6.568h1.031v6.313c0,1.538,0.254,2.655,0.76,3.351s1.303,1.043,2.391,1.043c1.059,0,1.914-0.389,2.568-1.165
			s0.982-1.813,0.982-3.106v-6.436h1.021v11.361H171.787z"/>
		<path fill="#919191" d="M177.512,114.05h-0.045v7.244h-1.02v-16.587h1.02v2.342h0.045c0.406-0.836,0.99-1.481,1.748-1.937
			s1.592-0.683,2.502-0.683c1.441,0,2.568,0.498,3.379,1.492c0.809,0.995,1.215,2.347,1.215,4.056c0,1.901-0.465,3.438-1.393,4.61
			c-0.93,1.172-2.154,1.758-3.678,1.758C179.584,116.346,178.326,115.58,177.512,114.05z M177.467,109.822v1.432
			c0,1.139,0.359,2.117,1.076,2.935c0.719,0.817,1.662,1.226,2.83,1.226c1.162,0,2.104-0.497,2.83-1.492
			c0.725-0.995,1.086-2.303,1.086-3.922c0-1.421-0.332-2.548-0.998-3.384s-1.553-1.254-2.662-1.254c-1.324,0-2.35,0.443-3.074,1.331
			S177.467,108.624,177.467,109.822z"/>
	</g>
</g>
<g>
	<g>
		<path fill="#F25022" d="M27.237,138.268h2.079c0.843,0,1.533-0.69,1.533-1.533v-5.201c0-0.844-0.689-1.533-1.533-1.533h-5.2
			c-0.844,0-1.534,0.689-1.534,1.533v2.078c0,0.844-0.456,1.534-1.012,1.534s-1.012-0.69-1.012-1.532v-2.08
			c0-0.844-0.69-1.533-1.534-1.533h-5.2c-0.843,0-1.534,0.689-1.533,1.533v2.078c0,0.844-0.456,1.534-1.013,1.534
			s-1.012-0.69-1.012-1.534v-2.077c0-0.845-0.69-1.534-1.533-1.534H3.534c-0.843,0-1.533,0.689-1.533,1.533l0,5.201
			c0,0.844,0.69,1.533,1.533,1.533h2.079c0.843,0,1.534,0.455,1.534,1.012s-0.69,1.012-1.534,1.012H3.534
			c-0.843,0-1.533,0.69-1.533,1.533l0,5.2c0,0.843,0.689,1.534,1.534,1.534h2.079c0.843,0,1.533,0.455,1.533,1.012
			s-0.69,1.012-1.533,1.012h-2.08c-0.843,0-1.533,0.69-1.533,1.533v5.201c0,0.843,0.69,1.532,1.533,1.532h5.201
			c0.843,0,1.533-0.689,1.533-1.532v-2.08c0-0.843,0.455-1.533,1.013-1.533c0.556,0,1.012,0.69,1.012,1.533v2.079
			c0,0.844,0.69,1.533,1.533,1.533h5.2c0.843,0,1.534-0.689,1.534-1.533v-2.079c0-0.843,0.455-1.533,1.012-1.533
			c0.557,0,1.012,0.69,1.012,1.533l0,2.08c0,0.843,0.69,1.532,1.533,1.532h5.201c0.843,0,1.533-0.689,1.533-1.533v-5.2
			c0-0.844-0.689-1.533-1.533-1.533h-2.079c-0.843,0-1.534-0.455-1.534-1.012s0.69-1.012,1.534-1.012h2.079
			c0.844,0,1.533-0.691,1.533-1.534v-5.2c0-0.843-0.689-1.533-1.533-1.533h-2.079c-0.844,0-1.533-0.455-1.534-1.012
			C25.704,138.723,26.394,138.268,27.237,138.268z M6.134,155.728c-0.557,0-1.013-0.456-1.012-1.013
			c0-0.557,0.455-1.012,1.012-1.012c0.556,0,1.012,0.455,1.012,1.012S6.69,155.728,6.134,155.728z M6.134,135.146
			c-0.557,0-1.012-0.456-1.012-1.012c0-0.557,0.455-1.012,1.012-1.012c0.556,0,1.012,0.455,1.012,1.012
			C7.146,134.689,6.69,135.146,6.134,135.146z M6.134,145.625L6.134,145.625c-0.662,0-1.201-0.539-1.201-1.201
			c0-0.318,0.125-0.621,0.353-0.848c0.227-0.228,0.528-0.352,0.848-0.352c0.662,0,1.2,0.537,1.2,1.199S6.796,145.625,6.134,145.625z
			 M11.279,137.891c0.766,0,1.389,0.622,1.39,1.389c0,0.766-0.624,1.389-1.39,1.389s-1.389-0.623-1.389-1.389
			C9.891,138.513,10.513,137.891,11.279,137.891z M11.279,150.959c-0.766,0-1.389-0.623-1.389-1.389
			c0-0.767,0.623-1.391,1.389-1.391s1.39,0.624,1.39,1.391C12.669,150.336,12.045,150.959,11.279,150.959z M11.279,146.002
			c-0.87,0-1.578-0.708-1.578-1.578c0-0.869,0.708-1.577,1.578-1.577l0,0c0.87,0,1.578,0.708,1.578,1.577
			C12.857,145.294,12.149,146.002,11.279,146.002z M15.577,133.285c0.227-0.227,0.529-0.352,0.848-0.352s0.621,0.125,0.848,0.352
			c0.228,0.228,0.352,0.529,0.352,0.849c0,0.661-0.538,1.2-1.2,1.2l0,0c-0.662,0-1.2-0.539-1.2-1.2
			C15.225,133.814,15.349,133.513,15.577,133.285z M16.425,137.701c0.87,0,1.579,0.707,1.579,1.578c0,0.869-0.708,1.577-1.579,1.577
			c-0.42,0-0.816-0.164-1.115-0.462c-0.298-0.3-0.462-0.695-0.462-1.115C14.847,138.408,15.555,137.701,16.425,137.701z
			 M16.425,155.916L16.425,155.916c-0.663,0-1.201-0.539-1.201-1.201s0.538-1.2,1.2-1.2s1.2,0.538,1.2,1.201
			C17.625,155.377,17.087,155.916,16.425,155.916z M16.424,151.147c-0.87,0-1.577-0.708-1.577-1.577
			c0-0.871,0.708-1.578,1.578-1.578c0.87,0,1.578,0.707,1.578,1.578C18.002,150.439,17.295,151.146,16.424,151.147z M16.425,146.191
			c-0.974,0-1.766-0.793-1.766-1.768c0-0.974,0.792-1.766,1.766-1.766c0.974,0,1.767,0.792,1.767,1.766
			C18.191,145.398,17.399,146.191,16.425,146.191z M21.571,137.891L21.571,137.891c0.766,0,1.388,0.622,1.388,1.389
			c0,0.766-0.623,1.389-1.389,1.389s-1.389-0.623-1.389-1.389C20.181,138.513,20.804,137.891,21.571,137.891z M21.57,150.959
			c-0.37,0-0.719-0.146-0.981-0.408c-0.263-0.263-0.408-0.611-0.408-0.98c0-0.767,0.623-1.39,1.389-1.39
			c0.767,0,1.39,0.623,1.39,1.39C22.96,150.336,22.337,150.959,21.57,150.959z M21.57,146.002c-0.87,0-1.578-0.707-1.578-1.578
			c0-0.869,0.708-1.577,1.578-1.577s1.578,0.708,1.578,1.577C23.148,145.295,22.44,146.002,21.57,146.002z M26.715,153.703
			c0.557,0,1.013,0.455,1.013,1.013c0,0.556-0.455,1.012-1.012,1.012c-0.557-0.001-1.013-0.456-1.013-1.013
			S26.16,153.703,26.715,153.703z M26.716,143.225c0.661,0,1.2,0.537,1.2,1.199s-0.539,1.201-1.2,1.201
			c-0.32,0-0.621-0.125-0.849-0.353c-0.227-0.228-0.353-0.528-0.353-0.849C25.515,143.762,26.054,143.225,26.716,143.225z
			 M25.704,134.133c0-0.557,0.456-1.012,1.013-1.012s1.012,0.455,1.012,1.012s-0.455,1.013-1.012,1.013
			S25.704,134.689,25.704,134.133z"/>
		<path fill="#02A4EF" d="M27.237,169.238h2.079c0.843,0,1.533-0.689,1.533-1.533v-5.2c0-0.843-0.689-1.533-1.533-1.533h-5.2
			c-0.844,0-1.534,0.69-1.534,1.533v2.079c0,0.844-0.455,1.533-1.012,1.533s-1.012-0.689-1.012-1.533v-2.079
			c0-0.843-0.69-1.533-1.534-1.533h-5.2c-0.843,0-1.534,0.69-1.534,1.533v2.079c0.001,0.844-0.455,1.533-1.012,1.533
			s-1.012-0.689-1.012-1.533v-2.079c0-0.843-0.69-1.532-1.533-1.532l-5.201-0.001c-0.843,0-1.533,0.69-1.533,1.533v5.2
			c0,0.844,0.69,1.533,1.533,1.533h2.079c0.843,0,1.534,0.457,1.534,1.012c0,0.557-0.69,1.012-1.534,1.012H3.534
			c-0.843,0-1.533,0.691-1.533,1.535l0,5.199c0,0.844,0.689,1.533,1.533,1.533h2.08c0.843,0,1.533,0.455,1.533,1.012
			c0,0.557-0.691,1.012-1.533,1.012h-2.08c-0.843,0-1.533,0.691-1.533,1.535v5.199c0,0.844,0.69,1.533,1.533,1.533h5.201
			c0.843,0,1.533-0.689,1.533-1.533v-2.078c0-0.844,0.455-1.533,1.012-1.533s1.013,0.689,1.013,1.533v2.078
			c0,0.844,0.69,1.533,1.533,1.533h5.199c0.844,0,1.534-0.689,1.534-1.533v-2.078c0-0.844,0.455-1.533,1.012-1.533
			c0.557,0,1.012,0.689,1.012,1.533l0,2.078c0,0.844,0.69,1.533,1.533,1.533h5.201c0.844,0,1.533-0.689,1.533-1.533v-5.201
			c0-0.842-0.689-1.533-1.533-1.533h-2.079c-0.844,0-1.534-0.455-1.534-1.012c0-0.555,0.69-1.012,1.534-1.012h2.079
			c0.844,0,1.533-0.689,1.533-1.533v-5.199c0-0.844-0.689-1.535-1.533-1.535h-2.079c-0.843,0-1.533-0.455-1.534-1.012
			C25.704,169.693,26.393,169.238,27.237,169.238z M6.134,166.117c-0.557,0-1.012-0.455-1.012-1.012s0.455-1.012,1.012-1.012
			c0.556,0,1.012,0.455,1.012,1.012S6.69,166.117,6.134,166.117z M6.134,186.699c-0.558,0-1.013-0.455-1.013-1.012
			s0.455-1.012,1.013-1.012c0.556,0,1.012,0.455,1.012,1.012S6.69,186.699,6.134,186.699z M6.134,176.596L6.134,176.596
			c-0.662,0-1.201-0.537-1.201-1.199c0-0.32,0.125-0.621,0.353-0.848c0.227-0.229,0.528-0.354,0.848-0.354
			c0.662,0,1.2,0.539,1.2,1.201S6.795,176.596,6.134,176.596z M11.279,168.861c0.766,0,1.389,0.623,1.389,1.389
			c0,0.768-0.623,1.391-1.389,1.391s-1.389-0.623-1.39-1.391C9.89,169.484,10.513,168.861,11.279,168.861z M11.279,181.93
			c-0.766,0-1.389-0.623-1.389-1.389s0.623-1.389,1.389-1.389s1.389,0.623,1.389,1.389S12.045,181.93,11.279,181.93z
			 M11.279,176.975c-0.87,0-1.578-0.709-1.578-1.578c0-0.871,0.708-1.578,1.578-1.578h0c0.87,0,1.578,0.707,1.578,1.578
			C12.857,176.266,12.149,176.975,11.279,176.975z M15.577,164.258c0.227-0.228,0.529-0.354,0.848-0.354s0.62,0.126,0.848,0.354
			c0.227,0.227,0.352,0.527,0.352,0.848c0,0.661-0.538,1.2-1.2,1.2h0c-0.662,0-1.2-0.538-1.2-1.2
			C15.225,164.785,15.349,164.484,15.577,164.258z M16.425,168.674c0.87,0,1.578,0.707,1.578,1.576c0,0.871-0.708,1.578-1.578,1.578
			c-0.42,0-0.816-0.164-1.115-0.463s-0.463-0.693-0.462-1.115C14.847,169.381,15.555,168.674,16.425,168.674z M16.425,186.889
			L16.425,186.889c-0.662,0-1.2-0.539-1.2-1.201s0.538-1.201,1.2-1.201s1.2,0.539,1.2,1.201S17.087,186.889,16.425,186.889z
			 M16.424,182.119c-0.87,0-1.577-0.707-1.577-1.578c0-0.869,0.708-1.576,1.578-1.576s1.578,0.707,1.578,1.576
			S17.294,182.119,16.424,182.119z M16.425,177.162c-0.974,0-1.767-0.791-1.767-1.766s0.792-1.768,1.767-1.768
			s1.767,0.793,1.767,1.768S17.399,177.162,16.425,177.162z M21.57,168.861L21.57,168.861c0.766,0,1.389,0.623,1.389,1.389
			c0,0.768-0.623,1.391-1.389,1.391s-1.389-0.623-1.389-1.391C20.181,169.484,20.804,168.861,21.57,168.861z M21.57,181.93
			c-0.37,0-0.719-0.145-0.982-0.406c-0.262-0.264-0.407-0.611-0.407-0.982c0-0.766,0.623-1.389,1.389-1.389s1.389,0.623,1.389,1.389
			S22.336,181.93,21.57,181.93z M21.57,176.975c-0.87,0-1.578-0.709-1.578-1.578s0.708-1.578,1.578-1.578s1.578,0.709,1.578,1.578
			S22.44,176.975,21.57,176.975z M26.715,184.676c0.557,0,1.012,0.455,1.012,1.012c0.001,0.557-0.455,1.012-1.012,1.012
			c-0.556,0-1.012-0.455-1.012-1.012S26.159,184.676,26.715,184.676z M26.715,174.195c0.662,0,1.201,0.539,1.201,1.201
			s-0.539,1.199-1.201,1.199c-0.319,0-0.62-0.125-0.848-0.352s-0.353-0.529-0.353-0.848
			C25.515,174.734,26.054,174.195,26.715,174.195z M25.704,165.104c0-0.556,0.456-1.012,1.012-1.012
			c0.557,0,1.013,0.456,1.013,1.012c0,0.558-0.456,1.013-1.012,1.013C26.159,166.117,25.704,165.661,25.704,165.104z"/>
		<path fill="#FFB902" d="M58.209,169.238h2.078c0.844,0,1.533-0.689,1.533-1.533v-5.2c0-0.843-0.689-1.533-1.533-1.533h-5.2
			c-0.843,0-1.533,0.69-1.533,1.533v2.079c0,0.844-0.455,1.533-1.012,1.533s-1.013-0.689-1.013-1.533v-2.079
			c0.001-0.843-0.689-1.533-1.533-1.533h-5.2c-0.843,0-1.534,0.69-1.534,1.533v2.079c0,0.844-0.455,1.533-1.012,1.533
			s-1.012-0.689-1.012-1.533v-2.079c0-0.843-0.69-1.532-1.533-1.532l-5.201-0.001c-0.843,0-1.533,0.69-1.533,1.533v5.2
			c0,0.844,0.69,1.533,1.533,1.533h2.079c0.843,0,1.534,0.457,1.534,1.012c0,0.557-0.69,1.012-1.534,1.012h-2.079
			c-0.843,0-1.533,0.691-1.533,1.535v5.199c0,0.844,0.69,1.533,1.533,1.533h2.08c0.843,0,1.533,0.455,1.533,1.012
			s-0.689,1.012-1.534,1.012h-2.079c-0.843,0-1.533,0.691-1.533,1.535v5.199c0,0.844,0.69,1.533,1.533,1.533h5.201
			c0.843,0,1.533-0.689,1.533-1.533v-2.078c0-0.844,0.455-1.533,1.012-1.533s1.012,0.689,1.012,1.533v2.078
			c0,0.844,0.69,1.533,1.534,1.533h5.2c0.843,0,1.533-0.689,1.533-1.533v-2.078c0-0.844,0.456-1.533,1.013-1.533
			s1.013,0.689,1.012,1.533v2.078c0,0.844,0.689,1.533,1.533,1.533h5.2c0.844,0,1.533-0.689,1.533-1.533v-5.201
			c0-0.842-0.689-1.533-1.533-1.533h-2.078c-0.844,0-1.533-0.455-1.533-1.012c0-0.555,0.689-1.012,1.533-1.012h2.078
			c0.844,0,1.533-0.689,1.533-1.533v-5.199c0-0.844-0.689-1.535-1.533-1.535h-2.078c-0.844,0-1.533-0.455-1.533-1.012
			S57.366,169.238,58.209,169.238z M37.106,186.699c-0.557,0-1.012-0.455-1.012-1.012s0.455-1.012,1.012-1.012
			c0.556,0,1.012,0.455,1.012,1.012S37.663,186.699,37.106,186.699z M37.106,166.117c-0.557,0-1.012-0.455-1.012-1.012
			s0.455-1.012,1.012-1.012c0.556,0,1.012,0.455,1.012,1.012S37.663,166.117,37.106,166.117z M37.106,176.596L37.106,176.596
			c-0.662,0-1.201-0.537-1.201-1.199c0-0.32,0.125-0.621,0.353-0.848c0.227-0.229,0.528-0.354,0.848-0.354
			c0.662,0,1.2,0.539,1.2,1.201S37.768,176.596,37.106,176.596z M42.251,168.861c0.766,0,1.389,0.623,1.389,1.389
			c0,0.768-0.623,1.391-1.389,1.391s-1.39-0.623-1.39-1.391C40.862,169.484,41.485,168.861,42.251,168.861z M42.251,181.93
			c-0.766,0-1.389-0.623-1.389-1.389s0.623-1.389,1.389-1.389s1.389,0.623,1.389,1.389S43.018,181.93,42.251,181.93z
			 M42.251,176.975c-0.87,0-1.578-0.709-1.578-1.578c0-0.871,0.708-1.578,1.577-1.578h0c0.87,0,1.578,0.707,1.578,1.578
			C43.829,176.266,43.121,176.975,42.251,176.975z M46.549,164.258c0.227-0.228,0.529-0.354,0.848-0.354s0.621,0.126,0.848,0.354
			c0.228,0.227,0.352,0.527,0.352,0.848c0,0.661-0.538,1.2-1.2,1.2l0,0c-0.662,0-1.2-0.538-1.2-1.2
			C46.197,164.785,46.321,164.484,46.549,164.258z M47.397,168.674c0.87,0,1.578,0.707,1.578,1.576c0,0.871-0.708,1.578-1.578,1.578
			c-0.42,0-0.816-0.164-1.115-0.463s-0.463-0.693-0.462-1.115C45.819,169.381,46.527,168.674,47.397,168.674z M47.397,186.889
			L47.397,186.889c-0.662,0-1.201-0.539-1.201-1.201s0.538-1.201,1.2-1.201s1.2,0.539,1.2,1.201S48.059,186.889,47.397,186.889z
			 M47.397,182.119c-0.87,0-1.578-0.707-1.578-1.578c0-0.869,0.708-1.576,1.578-1.576s1.578,0.707,1.578,1.576
			S48.267,182.119,47.397,182.119z M47.397,177.162c-0.974,0-1.767-0.791-1.767-1.766s0.793-1.768,1.767-1.768
			c0.974,0,1.767,0.793,1.767,1.768S48.371,177.162,47.397,177.162z M52.543,168.861L52.543,168.861
			c0.766,0,1.388,0.623,1.388,1.389c0,0.768-0.622,1.391-1.389,1.391c-0.766,0-1.39-0.623-1.39-1.391
			C51.153,169.484,51.776,168.861,52.543,168.861z M52.543,181.93c-0.371,0-0.72-0.145-0.982-0.406
			c-0.263-0.264-0.408-0.611-0.408-0.982c0-0.766,0.623-1.389,1.39-1.389c0.766,0,1.389,0.623,1.389,1.389
			S53.309,181.93,52.543,181.93z M52.542,176.975c-0.87,0-1.578-0.709-1.578-1.578s0.708-1.578,1.578-1.578s1.578,0.709,1.578,1.578
			S53.413,176.975,52.542,176.975z M57.688,184.676c0.557,0,1.012,0.455,1.012,1.012s-0.455,1.012-1.012,1.012
			s-1.012-0.455-1.012-1.012S57.131,184.676,57.688,184.676z M57.688,174.195c0.662,0,1.201,0.539,1.201,1.201
			s-0.539,1.199-1.201,1.199c-0.32,0-0.621-0.125-0.848-0.352c-0.229-0.227-0.354-0.529-0.354-0.848
			C56.487,174.734,57.026,174.195,57.688,174.195z M57.688,164.093c0.557,0,1.012,0.456,1.012,1.012
			c0,0.558-0.455,1.013-1.012,1.013s-1.012-0.456-1.012-1.013C56.676,164.549,57.131,164.093,57.688,164.093z"/>
		<path fill="#80BA01" d="M58.209,138.268h2.078c0.844,0,1.533-0.69,1.533-1.533v-5.201c0-0.844-0.689-1.533-1.533-1.533h-5.2
			c-0.843,0-1.533,0.689-1.533,1.533v2.08c0,0.843-0.455,1.532-1.012,1.532s-1.013-0.689-1.013-1.532v-2.079
			c0.001-0.845-0.689-1.534-1.533-1.534h-5.2c-0.843,0-1.534,0.689-1.534,1.533v2.08c0,0.843-0.455,1.532-1.012,1.532
			s-1.012-0.689-1.012-1.532v-2.079c0-0.843-0.69-1.534-1.533-1.534h-5.201c-0.843,0-1.533,0.689-1.533,1.534v5.2
			c0,0.844,0.69,1.533,1.533,1.533h2.079c0.843,0,1.534,0.455,1.534,1.012s-0.69,1.012-1.534,1.012h-2.079
			c-0.843,0-1.533,0.69-1.533,1.533v5.201c0,0.842,0.69,1.533,1.533,1.533h2.08c0.843,0,1.533,0.455,1.533,1.012
			s-0.689,1.012-1.534,1.012h-2.079c-0.843,0-1.533,0.69-1.533,1.533v5.201c0,0.843,0.69,1.533,1.533,1.533h5.201
			c0.843,0,1.533-0.69,1.533-1.533v-2.08c0-0.842,0.455-1.532,1.012-1.532s1.012,0.69,1.012,1.532v2.08
			c0,0.843,0.69,1.533,1.534,1.532h5.2c0.843,0,1.533-0.689,1.533-1.533v-2.079c0-0.842,0.456-1.532,1.013-1.532
			s1.013,0.69,1.012,1.532v2.08c0,0.843,0.689,1.533,1.533,1.533h5.2c0.844,0,1.533-0.69,1.533-1.533v-5.201
			c0-0.844-0.689-1.533-1.533-1.533h-2.078c-0.844,0-1.533-0.455-1.533-1.012s0.689-1.012,1.533-1.012h2.078
			c0.844,0,1.533-0.691,1.533-1.534v-5.2c0-0.843-0.689-1.533-1.533-1.533h-2.078c-0.844,0-1.533-0.455-1.533-1.012
			S57.366,138.268,58.209,138.268z M37.106,155.728c-0.557,0-1.012-0.456-1.012-1.013s0.455-1.012,1.012-1.012
			c0.556,0,1.012,0.455,1.012,1.012C38.118,155.271,37.663,155.728,37.106,155.728z M37.106,135.146
			c-0.557,0-1.012-0.456-1.012-1.012c0-0.557,0.455-1.012,1.012-1.012c0.556,0,1.012,0.455,1.012,1.012
			C38.118,134.689,37.663,135.146,37.106,135.146z M37.106,145.625L37.106,145.625c-0.662,0-1.201-0.539-1.201-1.201
			c0-0.318,0.125-0.621,0.353-0.848c0.227-0.228,0.528-0.352,0.848-0.352c0.662,0,1.2,0.537,1.2,1.199
			S37.768,145.625,37.106,145.625z M42.251,137.891c0.766,0,1.389,0.622,1.389,1.389c0,0.766-0.623,1.389-1.389,1.389
			s-1.389-0.623-1.39-1.389C40.862,138.513,41.485,137.891,42.251,137.891z M42.251,150.959c-0.766,0-1.389-0.623-1.389-1.389
			c0-0.767,0.623-1.39,1.389-1.39s1.389,0.623,1.389,1.39C43.641,150.336,43.018,150.959,42.251,150.959z M42.251,146.002
			c-0.87,0-1.578-0.708-1.578-1.578c0-0.869,0.708-1.577,1.577-1.577h0c0.87,0,1.578,0.708,1.578,1.577
			C43.829,145.294,43.122,146.002,42.251,146.002z M46.549,133.285c0.227-0.227,0.529-0.352,0.848-0.352s0.621,0.125,0.848,0.352
			c0.228,0.228,0.352,0.529,0.352,0.849c0,0.661-0.538,1.2-1.2,1.2l0,0c-0.662,0-1.2-0.539-1.2-1.2
			C46.197,133.814,46.321,133.513,46.549,133.285z M47.397,137.701c0.871,0,1.578,0.707,1.578,1.578
			c0,0.869-0.708,1.577-1.578,1.577c-0.42,0-0.816-0.163-1.115-0.462s-0.462-0.695-0.462-1.115
			C45.819,138.408,46.527,137.701,47.397,137.701z M47.397,155.916L47.397,155.916c-0.662,0-1.201-0.539-1.201-1.2
			c0-0.663,0.538-1.201,1.2-1.201s1.2,0.538,1.2,1.201C48.597,155.377,48.059,155.916,47.397,155.916z M47.397,151.147
			c-0.87,0-1.578-0.708-1.578-1.577c0-0.871,0.708-1.578,1.578-1.578c0.87,0,1.578,0.707,1.578,1.578
			C48.975,150.439,48.267,151.146,47.397,151.147z M47.397,146.191c-0.974,0-1.767-0.793-1.767-1.768
			c0-0.974,0.793-1.766,1.767-1.766c0.974,0,1.767,0.792,1.767,1.766C49.164,145.398,48.371,146.191,47.397,146.191z
			 M52.543,137.891L52.543,137.891c0.766,0,1.389,0.622,1.389,1.389c0,0.766-0.623,1.389-1.39,1.389c-0.766,0-1.39-0.623-1.39-1.389
			C51.153,138.513,51.777,137.891,52.543,137.891z M52.543,150.959c-0.371,0-0.72-0.146-0.982-0.408
			c-0.263-0.263-0.408-0.611-0.408-0.98c0-0.767,0.623-1.39,1.39-1.39c0.766,0,1.389,0.623,1.389,1.39
			C53.932,150.336,53.309,150.959,52.543,150.959z M52.542,146.002c-0.87,0-1.578-0.707-1.578-1.578
			c0-0.869,0.708-1.577,1.578-1.577s1.578,0.708,1.578,1.577C54.121,145.295,53.413,146.002,52.542,146.002z M57.688,153.703
			c0.557,0,1.012,0.456,1.012,1.013s-0.455,1.012-1.012,1.012s-1.012-0.456-1.012-1.013S57.131,153.703,57.688,153.703z
			 M57.688,143.225c0.662,0,1.201,0.537,1.201,1.199s-0.539,1.201-1.201,1.201c-0.32,0-0.621-0.125-0.848-0.353
			c-0.229-0.228-0.354-0.528-0.354-0.849C56.487,143.762,57.026,143.225,57.688,143.225z M57.688,133.121
			c0.557,0,1.012,0.456,1.012,1.013c0,0.556-0.455,1.012-1.012,1.012s-1.012-0.456-1.012-1.012
			C56.676,133.577,57.131,133.121,57.688,133.121z"/>
	</g>
	<g>
		<path fill="#FFFFFF" d="M173.436,139.884c0.707-0.106,1.471,0.135,1.941,0.688c0.549,0.605,0.648,1.57,0.244,2.277
			c-0.453,0.799-1.459,1.17-2.336,0.979c-0.91-0.164-1.668-1.01-1.629-1.954C171.633,140.88,172.461,139.995,173.436,139.884
			L173.436,139.884z"/>
		<path fill="#FFFFFF" d="M248.506,139.679c1.496-0.972,3.428-1.063,5.111-0.6c0.016,1.002,0,2.004,0.008,3.005
			c-0.801-0.353-1.742-0.581-2.586-0.236c-0.668,0.266-1.064,0.95-1.168,1.637c-0.127,0.869-0.043,1.751-0.064,2.624
			c1.709,0.004,3.418,0.002,5.127,0.002c0.014-1.109-0.012-2.221,0.016-3.33c1.162-0.332,2.313-0.703,3.469-1.051
			c0.012,1.462-0.014,2.926,0.014,4.39c1.156-0.017,2.311-0.005,3.469-0.009v2.848c-1.16-0.048-2.322-0.013-3.484-0.016
			c0.006,1.635,0.002,3.273,0.002,4.91c0.021,0.907-0.047,1.818,0.059,2.723c0.064,0.531,0.258,1.123,0.758,1.397
			c0.838,0.468,1.898,0.264,2.666-0.251v2.876c-1.002,0.436-2.123,0.568-3.205,0.492c-1.027-0.076-2.092-0.451-2.766-1.27
			c-0.773-0.923-0.973-2.175-0.99-3.345c-0.008-2.514,0.002-5.024-0.004-7.538c-1.709-0.001-3.42-0.002-5.129,0.001
			c-0.002,3.941-0.002,7.886-0.002,11.827c-1.17,0-2.338,0-3.506,0c0-3.94-0.004-7.881,0.002-11.823
			c-0.814-0.016-1.627,0.004-2.441-0.013c0.004-0.936,0.008-1.872-0.002-2.809c0.809-0.019,1.619-0.011,2.432-0.005
			c0.059-1.244-0.131-2.525,0.24-3.737C246.844,141.284,247.543,140.297,248.506,139.679L248.506,139.679z"/>
		<path fill="#FFFFFF" d="M146.564,140.318c1.699,0,3.398,0,5.1,0c1.586,4.03,3.186,8.056,4.773,12.087
			c0.406,1.008,0.785,2.027,1.211,3.027c2.043-5.036,4.113-10.06,6.141-15.103c1.635-0.026,3.271-0.005,4.906-0.011
			c-0.004,6.816-0.004,13.631-0.002,20.446c-1.18-0.002-2.357,0.01-3.537-0.008c0.012-5.028-0.002-10.058,0.004-15.088
			c0.002-0.226-0.004-0.452-0.02-0.678c-0.068,0.104-0.131,0.214-0.184,0.327c-2.027,5.148-4.092,10.281-6.105,15.435
			c-0.842,0.029-1.68,0.002-2.521,0.016c-2.09-5.148-4.154-10.308-6.234-15.46c-0.055-0.107-0.111-0.211-0.176-0.312
			c-0.045,2.204-0.008,4.409-0.02,6.612c0,3.052-0.002,6.104,0,9.155c-1.113,0.004-2.225,0-3.336,0
			C146.563,153.95,146.563,147.135,146.564,140.318L146.564,140.318z"/>
		<path fill="#FFFFFF" d="M183.084,146.098c1.693-0.482,3.518-0.463,5.209,0.015c0.35,0.098,0.686,0.233,1,0.418
			c-0.02,1.115,0,2.234-0.01,3.352c-1.131-0.863-2.564-1.41-4.002-1.229c-1.141,0.103-2.23,0.696-2.912,1.617
			c-0.879,1.144-1.08,2.661-0.93,4.06c0.113,1.095,0.566,2.188,1.416,2.914c0.887,0.785,2.125,1.063,3.281,0.977
			c1.145-0.132,2.221-0.616,3.146-1.291c0.01,1.058-0.006,2.117,0.008,3.174c-1.434,0.853-3.154,1.075-4.793,0.993
			c-1.68-0.09-3.352-0.725-4.568-1.904c-1.32-1.273-2.037-3.089-2.121-4.907c-0.086-1.889,0.299-3.861,1.387-5.439
			C180.105,147.499,181.533,146.546,183.084,146.098L183.084,146.098z"/>
		<path fill="#FFFFFF" d="M221.385,145.874c1.623-0.285,3.32-0.075,4.854,0.506c0.004,1.074,0,2.148,0.002,3.223
			c-1.072-0.737-2.381-1.133-3.682-1.088c-0.656,0.025-1.377,0.304-1.674,0.926c-0.24,0.617-0.076,1.426,0.506,1.795
			c0.994,0.664,2.18,0.947,3.211,1.543c0.811,0.455,1.6,1.051,2.008,1.91c0.771,1.609,0.445,3.734-0.912,4.934
			c-1.295,1.212-3.162,1.546-4.879,1.481c-1.219-0.078-2.443-0.318-3.564-0.817c0.006-1.13-0.008-2.26,0.006-3.39
			c0.943,0.685,2.029,1.175,3.182,1.373c0.801,0.131,1.672,0.137,2.418-0.222c0.717-0.355,0.844-1.371,0.42-1.992
			c-0.396-0.479-0.98-0.743-1.529-1.002c-1.035-0.465-2.121-0.854-3.027-1.549c-0.639-0.498-1.121-1.199-1.311-1.989
			c-0.279-1.166-0.191-2.479,0.482-3.499C218.67,146.831,220.016,146.119,221.385,145.874L221.385,145.874z"/>
		<path fill="#FFFFFF" d="M197.133,146.336c0.969-0.581,2.199-0.63,3.256-0.274c-0.004,1.169,0,2.338-0.002,3.508
			c-0.693-0.447-1.555-0.64-2.373-0.557c-0.994,0.113-1.781,0.877-2.191,1.754c-0.445,0.928-0.529,1.977-0.5,2.992
			c0,2.336,0.002,4.672,0,7.007c-1.152,0-2.305,0-3.457,0c-0.004-4.882,0.004-9.765-0.004-14.646
			c1.154-0.015,2.311-0.009,3.465-0.003c-0.006,0.838,0,1.676-0.004,2.516C195.695,147.719,196.254,146.834,197.133,146.336
			L197.133,146.336z"/>
		<path fill="#FFFFFF" d="M171.977,146.116c1.162-0.006,2.326-0.017,3.488,0.005c-0.014,4.882,0,9.764-0.006,14.645
			c-1.16,0-2.322,0-3.48,0C171.977,155.883,171.979,151,171.977,146.116L171.977,146.116z"/>
		<path fill="#FFFFFF" d="M214.922,149.532c-0.605-1.354-1.707-2.482-3.063-3.096c-1.561-0.71-3.338-0.806-5.018-0.592
			c-1.768,0.224-3.488,1.055-4.609,2.464c-1.025,1.259-1.523,2.874-1.619,4.478c-0.141,1.891,0.174,3.896,1.283,5.475
			c0.947,1.36,2.438,2.296,4.053,2.642c1.346,0.283,2.756,0.283,4.104,0.002c1.576-0.324,3.049-1.195,4.025-2.482
			c0.955-1.212,1.434-2.741,1.541-4.267C215.73,152.593,215.572,150.974,214.922,149.532z M211.537,156.26
			c-0.338,0.753-0.949,1.39-1.723,1.691c-0.906,0.348-1.924,0.368-2.859,0.126c-0.951-0.25-1.758-0.938-2.197-1.813
			c-0.564-1.128-0.65-2.431-0.531-3.667c0.104-1.126,0.496-2.282,1.354-3.059c0.621-0.58,1.469-0.863,2.307-0.91
			c1.055-0.069,2.176,0.229,2.932,0.996c0.811,0.795,1.125,1.951,1.211,3.053C212.092,153.884,212.041,155.142,211.537,156.26z"/>
		<path fill="#FFFFFF" d="M243.002,149.956c-0.537-1.455-1.617-2.713-3.01-3.408c-1.596-0.807-3.455-0.924-5.205-0.708
			c-1.41,0.183-2.797,0.716-3.873,1.662c-1.316,1.132-2.086,2.797-2.314,4.501c-0.215,1.703-0.143,3.497,0.551,5.091
			c0.666,1.563,1.984,2.833,3.563,3.455c1.561,0.615,3.297,0.684,4.941,0.418c1.678-0.277,3.27-1.159,4.309-2.519
			c1.111-1.405,1.59-3.223,1.588-4.993C243.572,152.271,243.426,151.069,243.002,149.956z M239.842,154.925
			c-0.135,0.771-0.402,1.54-0.906,2.15c-0.512,0.613-1.27,0.987-2.051,1.102c-0.84,0.126-1.723,0.066-2.508-0.271
			c-0.848-0.358-1.504-1.092-1.848-1.936c-0.416-1.006-0.5-2.118-0.416-3.193c0.08-1.041,0.375-2.108,1.061-2.918
			c0.627-0.756,1.592-1.173,2.561-1.228c0.99-0.069,2.047,0.16,2.809,0.829c0.701,0.582,1.09,1.455,1.27,2.332
			C240.014,152.822,240.012,153.89,239.842,154.925z"/>
	</g>
	<g>
		<path fill="#FFFFFF" d="M81.971,160.767l-8.69-9.757c-0.161-0.18-0.275-0.336-0.341-0.47h-0.057v10.227h-1.408v-20.396h1.408
			v9.614h0.057c0.114-0.198,0.237-0.364,0.37-0.497l8.25-9.117h1.835l-8.946,9.885l9.501,10.511H81.971z"/>
		<path fill="#FFFFFF" d="M86.267,153.542c0,2,0.462,3.564,1.387,4.693c0.924,1.128,2.192,1.692,3.805,1.692
			c1.631,0,3.224-0.603,4.779-1.807v1.395c-1.507,1.071-3.191,1.606-5.049,1.606c-1.877,0-3.395-0.673-4.551-2.02
			c-1.157-1.346-1.735-3.247-1.735-5.703c0-2.124,0.604-3.914,1.813-5.369c1.208-1.455,2.78-2.184,4.715-2.184
			c1.811,0,3.2,0.636,4.167,1.906c0.967,1.271,1.451,3.006,1.451,5.205v0.584H86.267z M95.682,152.347
			c-0.057-1.678-0.46-2.981-1.209-3.911s-1.783-1.394-3.101-1.394c-1.365,0-2.496,0.457-3.392,1.372s-1.449,2.226-1.657,3.933
			H95.682z"/>
		<path fill="#FFFFFF" d="M107.529,147.568c-0.436-0.313-0.947-0.47-1.535-0.47c-1.148,0-2.109,0.593-2.887,1.777
			c-0.779,1.186-1.168,2.869-1.168,5.05v6.841h-1.279v-14.564h1.279v3.229h0.059c0.33-1.109,0.857-1.972,1.578-2.588
			s1.555-0.925,2.504-0.925c0.539,0,1.023,0.085,1.449,0.256V147.568z"/>
		<path fill="#FFFFFF" d="M118.979,160.767v-2.915h-0.057c-0.465,0.995-1.141,1.789-2.027,2.382s-1.87,0.889-2.951,0.889
			c-1.385,0-2.479-0.389-3.285-1.166c-0.807-0.777-1.209-1.759-1.209-2.944c0-2.541,1.683-4.077,5.049-4.608l4.48-0.668
			c0-3.129-1.176-4.693-3.527-4.693c-1.603,0-3.162,0.645-4.68,1.934v-1.578c0.541-0.427,1.273-0.792,2.198-1.096
			c0.924-0.303,1.794-0.455,2.609-0.455c1.498,0,2.657,0.465,3.478,1.395c0.82,0.929,1.23,2.28,1.23,4.053v9.473H118.979z
			 M114.969,153.513c-1.527,0.219-2.599,0.571-3.215,1.06c-0.616,0.489-0.924,1.283-0.924,2.383c0,0.863,0.286,1.574,0.86,2.134
			c0.573,0.56,1.372,0.839,2.396,0.839c1.403,0,2.569-0.52,3.499-1.558c0.929-1.038,1.394-2.377,1.394-4.018v-1.423L114.969,153.513
			z"/>
		<path fill="#FFFFFF" d="M124.669,160.767v-21.562h1.308v21.562H124.669z"/>
		<path fill="#FFFFFF" d="M139.347,160.767v-2.915h-0.057c-0.465,0.995-1.141,1.789-2.027,2.382s-1.87,0.889-2.951,0.889
			c-1.385,0-2.479-0.389-3.285-1.166c-0.807-0.777-1.209-1.759-1.209-2.944c0-2.541,1.683-4.077,5.049-4.608l4.48-0.668
			c0-3.129-1.176-4.693-3.527-4.693c-1.603,0-3.162,0.645-4.68,1.934v-1.578c0.541-0.427,1.273-0.792,2.198-1.096
			c0.924-0.303,1.794-0.455,2.609-0.455c1.498,0,2.657,0.465,3.478,1.395c0.82,0.929,1.23,2.28,1.23,4.053v9.473H139.347z
			 M135.336,153.513c-1.527,0.219-2.599,0.571-3.215,1.06c-0.616,0.489-0.924,1.283-0.924,2.383c0,0.863,0.286,1.574,0.86,2.134
			c0.573,0.56,1.372,0.839,2.396,0.839c1.403,0,2.569-0.52,3.499-1.558c0.929-1.038,1.394-2.377,1.394-4.018v-1.423L135.336,153.513
			z"/>
	</g>
	<g>
		<path fill="#FFFFFF" d="M82.583,172.711c0,4.424-1.886,6.635-5.659,6.635c-3.587,0-5.381-2.13-5.381-6.391v-9.797h1.087v9.642
			c0,3.691,1.501,5.536,4.504,5.536c2.907,0,4.36-1.793,4.36-5.381v-9.797h1.087V172.711z"/>
		<path fill="#FFFFFF" d="M85.656,178.569v-1.231c0.385,0.333,0.851,0.596,1.398,0.788s1.021,0.288,1.42,0.288
			c1.782,0,2.674-0.729,2.674-2.186c0-0.503-0.196-0.933-0.588-1.287c-0.392-0.355-1.028-0.722-1.908-1.099
			c-1.087-0.473-1.851-0.963-2.291-1.47s-0.66-1.122-0.66-1.848c0-0.925,0.353-1.671,1.06-2.241
			c0.706-0.569,1.577-0.854,2.613-0.854c0.977,0,1.812,0.2,2.507,0.6v1.153c-0.843-0.547-1.716-0.82-2.618-0.82
			c-0.747,0-1.35,0.194-1.809,0.582c-0.458,0.389-0.688,0.894-0.688,1.515c0,0.54,0.145,0.979,0.433,1.314
			c0.288,0.337,0.924,0.724,1.908,1.16c1.183,0.532,1.997,1.025,2.441,1.48s0.666,1.06,0.666,1.814c0,0.902-0.338,1.647-1.015,2.235
			s-1.611,0.882-2.801,0.882C87.302,179.346,86.389,179.087,85.656,178.569z"/>
		<path fill="#FFFFFF" d="M95.309,173.433c0,1.561,0.361,2.781,1.082,3.661s1.71,1.32,2.968,1.32c1.272,0,2.514-0.47,3.727-1.409
			v1.087c-1.176,0.836-2.488,1.254-3.938,1.254c-1.464,0-2.648-0.524-3.55-1.575c-0.902-1.05-1.354-2.533-1.354-4.449
			c0-1.656,0.472-3.053,1.415-4.188c0.943-1.135,2.169-1.703,3.678-1.703c1.413,0,2.497,0.496,3.251,1.487s1.131,2.345,1.131,4.061
			v0.455H95.309z M102.654,172.5c-0.045-1.309-0.359-2.325-0.943-3.051c-0.584-0.725-1.391-1.087-2.418-1.087
			c-1.065,0-1.947,0.356-2.646,1.07c-0.699,0.714-1.13,1.736-1.292,3.067H102.654z"/>
		<path fill="#FFFFFF" d="M111.896,168.772c-0.341-0.244-0.74-0.366-1.198-0.366c-0.896,0-1.646,0.463-2.253,1.387
			c-0.606,0.925-0.909,2.238-0.909,3.939v5.336h-0.999v-11.361h0.999v2.519h0.044c0.259-0.865,0.67-1.538,1.231-2.019
			c0.563-0.481,1.213-0.722,1.953-0.722c0.422,0,0.799,0.066,1.132,0.2V168.772z"/>
		<path fill="#FFFFFF" d="M113.671,178.569v-1.231c0.385,0.333,0.851,0.596,1.398,0.788c0.547,0.192,1.021,0.288,1.42,0.288
			c1.782,0,2.674-0.729,2.674-2.186c0-0.503-0.196-0.933-0.588-1.287c-0.393-0.355-1.028-0.722-1.908-1.099
			c-1.088-0.473-1.852-0.963-2.291-1.47c-0.44-0.507-0.66-1.122-0.66-1.848c0-0.925,0.353-1.671,1.06-2.241
			c0.706-0.569,1.577-0.854,2.612-0.854c0.977,0,1.813,0.2,2.508,0.6v1.153c-0.844-0.547-1.717-0.82-2.619-0.82
			c-0.747,0-1.35,0.194-1.808,0.582c-0.459,0.389-0.688,0.894-0.688,1.515c0,0.54,0.145,0.979,0.433,1.314
			c0.289,0.337,0.925,0.724,1.908,1.16c1.184,0.532,1.997,1.025,2.441,1.48c0.443,0.455,0.666,1.06,0.666,1.814
			c0,0.902-0.339,1.647-1.016,2.235s-1.61,0.882-2.802,0.882C115.316,179.346,114.403,179.087,113.671,178.569z"/>
		<path fill="#FFFFFF" d="M141.031,177.959c-1.642,0.925-3.332,1.387-5.07,1.387c-2.167,0-3.92-0.735-5.259-2.208
			c-1.339-1.472-2.009-3.402-2.009-5.791c0-2.411,0.722-4.423,2.164-6.036c1.442-1.612,3.369-2.418,5.78-2.418
			c1.397,0,2.755,0.281,4.071,0.843v1.198c-1.441-0.695-2.851-1.043-4.227-1.043c-2.005,0-3.615,0.685-4.832,2.053
			s-1.825,3.114-1.825,5.236c0,2.234,0.571,3.985,1.715,5.254c1.143,1.269,2.683,1.902,4.62,1.902c1.436,0,2.692-0.311,3.772-0.932
			v-5.248h-3.75v-0.998h4.849V177.959z"/>
		<path fill="#FFFFFF" d="M149.841,168.772c-0.341-0.244-0.74-0.366-1.198-0.366c-0.896,0-1.646,0.463-2.253,1.387
			c-0.606,0.925-0.909,2.238-0.909,3.939v5.336h-0.999v-11.361h0.999v2.519h0.044c0.259-0.865,0.67-1.538,1.231-2.019
			c0.563-0.481,1.213-0.722,1.953-0.722c0.422,0,0.799,0.066,1.132,0.2V168.772z"/>
		<path fill="#FFFFFF" d="M156.087,179.346c-1.657,0-2.968-0.545-3.934-1.636c-0.965-1.092-1.447-2.51-1.447-4.255
			c0-1.887,0.504-3.362,1.514-4.428c1.01-1.064,2.34-1.598,3.989-1.598c1.619,0,2.899,0.529,3.839,1.587
			c0.938,1.058,1.408,2.522,1.408,4.394c0,1.768-0.479,3.199-1.437,4.294S157.751,179.346,156.087,179.346z M156.164,168.362
			c-1.339,0-2.405,0.451-3.201,1.354c-0.795,0.902-1.192,2.156-1.192,3.761c0,1.487,0.389,2.682,1.165,3.584
			s1.838,1.354,3.185,1.354c1.368,0,2.422-0.444,3.162-1.331c0.739-0.888,1.109-2.119,1.109-3.695c0-1.619-0.368-2.862-1.104-3.728
			C158.552,168.795,157.511,168.362,156.164,168.362z"/>
		<path fill="#FFFFFF" d="M171.774,179.068v-2.063h-0.044c-0.792,1.561-2.012,2.341-3.661,2.341c-2.686,0-4.027-1.689-4.027-5.07
			v-6.568h1.031v6.313c0,1.538,0.254,2.655,0.76,3.351c0.507,0.695,1.304,1.043,2.392,1.043c1.058,0,1.914-0.389,2.568-1.165
			s0.981-1.813,0.981-3.106v-6.436h1.021v11.361H171.774z"/>
		<path fill="#FFFFFF" d="M177.5,177.05h-0.045v7.244h-1.021v-16.587h1.021v2.342h0.045c0.406-0.836,0.989-1.481,1.747-1.937
			c0.759-0.455,1.593-0.683,2.502-0.683c1.442,0,2.568,0.498,3.379,1.492c0.81,0.995,1.215,2.347,1.215,4.056
			c0,1.901-0.465,3.438-1.393,4.61c-0.929,1.172-2.154,1.758-3.678,1.758C179.571,179.346,178.313,178.58,177.5,177.05z
			 M177.455,172.822v1.432c0,1.139,0.359,2.117,1.076,2.935c0.718,0.817,1.661,1.226,2.83,1.226c1.161,0,2.104-0.497,2.829-1.492
			c0.725-0.995,1.087-2.303,1.087-3.922c0-1.421-0.333-2.548-0.998-3.384c-0.666-0.836-1.554-1.254-2.663-1.254
			c-1.324,0-2.349,0.443-3.073,1.331C177.817,170.581,177.455,171.624,177.455,172.822z"/>
	</g>
</g>
</svg>
